{"glyphs":{"0":{"ha":1027,"x_min":101,"x_max":924,"o":"m 511 172 q 596 191 562 172 q 649 245 629 211 q 677 325 669 279 q 685 422 685 370 q 676 514 685 472 q 647 588 667 557 q 593 636 627 618 q 511 654 560 654 q 429 634 461 654 q 377 580 396 614 q 350 504 357 547 q 342 415 342 460 q 351 313 342 358 q 380 236 359 267 q 432 188 400 205 q 511 172 465 172 m 511 844 q 691 814 614 844 q 820 728 768 785 q 898 589 872 671 q 924 404 924 507 q 896 226 924 304 q 815 93 868 148 q 685 10 762 39 q 510 -19 608 -19 q 333 12 409 -19 q 205 99 256 43 q 127 235 153 155 q 101 413 101 315 q 128 596 101 515 q 207 731 155 676 q 336 815 259 787 q 511 844 412 844 z "},"1":{"ha":650,"x_min":73,"x_max":502,"o":"m 247 614 l 141 569 l 73 743 l 266 821 l 345 818 l 502 818 l 502 0 l 247 0 l 247 614 z "},"2":{"ha":827,"x_min":95,"x_max":749,"o":"m 504 547 q 480 619 504 595 q 404 643 457 643 q 342 636 375 643 q 278 618 310 629 q 216 594 245 608 q 162 568 186 581 l 95 743 q 121 754 102 746 q 165 772 140 762 q 222 793 191 783 q 287 813 254 804 q 355 828 321 823 q 420 834 389 834 q 495 829 456 834 q 570 813 533 824 q 639 783 606 802 q 696 736 671 764 q 734 670 720 708 q 749 583 749 632 q 740 506 749 541 q 709 434 730 470 q 654 361 688 399 q 571 279 621 323 l 479 195 l 725 195 l 725 0 l 121 0 l 121 157 l 419 410 q 446 435 431 420 q 473 468 460 450 q 495 506 486 486 q 504 547 504 526 z "},"3":{"ha":829,"x_min":83,"x_max":725,"o":"m 473 580 q 444 633 473 616 q 366 650 414 650 q 299 643 334 650 q 237 626 265 635 q 189 609 208 617 q 167 601 170 602 l 83 768 q 117 785 94 773 q 175 810 141 798 q 253 832 210 823 q 347 842 296 842 q 492 827 427 842 q 603 781 557 813 q 674 697 649 749 q 700 570 700 645 q 691 511 700 541 q 665 456 682 481 q 623 411 648 430 q 566 383 598 391 q 630 352 601 374 q 681 301 660 330 q 713 239 702 273 q 725 172 725 205 q 697 39 725 95 q 621 -52 670 -16 q 505 -104 572 -87 q 359 -121 438 -121 q 257 -115 302 -121 q 178 -100 211 -109 q 124 -85 144 -92 q 99 -76 104 -78 l 160 109 q 183 99 165 106 q 228 85 201 92 q 286 72 254 78 q 351 66 317 66 q 454 90 420 66 q 488 170 488 113 q 470 225 488 202 q 422 264 452 249 q 356 287 393 279 q 283 294 320 294 l 283 473 q 354 479 319 473 q 414 497 388 485 q 457 530 441 510 q 473 580 473 551 z "},"4":{"ha":903,"x_min":60,"x_max":820,"o":"m 484 228 l 484 500 l 303 228 l 484 228 m 694 806 l 694 230 l 820 230 l 820 41 l 694 41 l 694 -149 l 484 -149 l 484 41 l 89 41 l 60 186 l 511 854 l 694 806 z "},"5":{"ha":829,"x_min":92,"x_max":741,"o":"m 121 122 q 167 106 139 115 q 229 89 195 97 q 299 76 262 81 q 372 71 336 71 q 483 101 444 71 q 522 198 522 132 q 489 311 522 270 q 389 351 456 351 q 214 296 321 351 l 114 385 l 114 819 l 682 819 l 682 641 l 319 641 l 319 495 q 327 500 319 496 q 348 509 335 505 q 378 518 361 514 q 414 522 395 522 q 550 499 490 522 q 653 434 611 476 q 718 331 695 391 q 741 197 741 271 q 714 65 741 124 q 641 -37 688 5 q 529 -103 593 -79 q 389 -126 465 -126 q 314 -121 353 -126 q 237 -107 275 -116 q 161 -87 198 -99 q 92 -62 123 -75 l 121 122 z "},"6":{"ha":863,"x_min":71,"x_max":811,"o":"m 811 274 q 787 136 811 199 q 718 29 763 74 q 607 -41 673 -16 q 460 -66 542 -66 q 295 -36 368 -66 q 173 47 223 -5 q 97 171 123 100 q 71 321 71 241 q 114 559 71 455 q 231 742 157 664 q 405 872 305 820 q 616 954 504 924 l 675 761 q 503 703 572 741 q 386 615 433 666 q 430 617 409 616 q 467 618 450 618 q 609 590 545 618 q 717 514 672 562 q 787 404 762 467 q 811 274 811 342 m 309 324 q 319 240 311 277 q 345 177 328 203 q 391 138 363 151 q 458 124 418 124 q 519 139 496 124 q 557 179 543 153 q 576 238 571 204 q 581 310 581 272 q 553 402 581 372 q 463 433 524 433 q 383 418 420 433 q 309 369 346 404 q 309 346 309 357 q 309 324 309 335 z "},"7":{"ha":789,"x_min":90,"x_max":767,"o":"m 767 685 l 354 -170 l 137 -73 l 477 627 l 90 627 l 90 814 l 708 814 l 767 685 z "},"8":{"ha":918,"x_min":96,"x_max":822,"o":"m 573 644 q 546 715 573 690 q 459 740 519 740 q 372 715 399 740 q 345 643 345 690 q 372 558 345 583 q 459 533 399 533 q 546 558 519 533 q 573 644 573 583 m 586 211 q 554 314 586 276 q 459 353 522 353 q 363 315 395 353 q 332 211 332 277 q 364 129 332 152 q 459 106 396 106 q 554 129 523 106 q 586 211 586 152 m 801 654 q 787 573 801 611 q 749 505 774 535 q 691 455 725 475 q 616 427 657 434 q 692 403 655 422 q 758 353 728 384 q 804 282 787 323 q 822 195 822 242 q 791 66 822 119 q 709 -22 760 12 q 593 -72 659 -56 q 459 -87 528 -87 q 325 -72 390 -87 q 208 -22 259 -56 q 126 66 157 12 q 96 197 96 120 q 114 283 96 243 q 160 354 132 323 q 226 403 189 384 q 301 427 263 422 q 227 454 261 434 q 169 505 193 475 q 131 573 144 535 q 117 654 117 611 q 143 772 117 721 q 217 857 170 823 q 326 909 263 891 q 459 926 388 926 q 593 909 531 926 q 702 857 656 891 q 774 771 748 822 q 801 654 801 720 z "},"9":{"ha":893,"x_min":81,"x_max":823,"o":"m 425 163 q 283 185 347 163 q 174 249 219 208 q 105 351 130 291 q 81 486 81 410 q 106 624 81 562 q 177 730 132 686 q 285 800 222 775 q 422 824 347 824 q 590 798 516 824 q 716 722 665 772 q 795 600 768 672 q 823 437 823 528 q 798 264 823 344 q 732 119 774 185 q 635 -1 690 52 q 520 -93 581 -54 q 396 -158 459 -132 q 275 -197 333 -184 l 218 -2 q 317 26 273 9 q 397 66 361 43 q 461 115 433 88 q 511 170 490 141 q 468 165 489 166 q 425 163 446 163 m 311 470 q 319 420 311 443 q 341 380 327 397 q 376 354 355 363 q 422 345 397 345 q 455 346 435 345 q 497 347 475 347 q 537 348 518 347 q 568 349 557 349 l 577 349 q 582 398 580 374 q 588 446 585 422 q 578 524 587 489 q 552 583 570 558 q 507 620 534 607 q 439 633 479 633 q 376 624 401 633 q 337 595 351 614 q 317 544 323 575 q 311 470 312 513 z "},"\u0000":{"ha":1389,"x_min":0,"x_max":0,"o":""},"\r":{"ha":467,"x_min":0,"x_max":0,"o":""}," ":{"ha":349,"x_min":0,"x_max":0,"o":""},"!":{"ha":508,"x_min":90,"x_max":409,"o":"m 163 33 q 122 132 122 71 q 132 185 122 159 q 161 231 142 211 q 204 263 179 251 q 258 275 229 275 q 313 263 288 275 q 358 232 339 252 q 387 186 376 212 q 398 132 398 160 q 387 76 398 102 q 357 32 376 51 q 313 2 338 13 q 258 -9 287 -9 q 163 33 198 -9 m 326 351 l 176 351 l 90 1105 l 409 1105 l 326 351 z "},"\"":{"ha":757,"x_min":57,"x_max":746,"o":"m 746 1105 l 658 546 l 496 546 l 435 1105 l 746 1105 m 368 1105 l 279 546 l 118 546 l 68 1010 l 57 1105 l 368 1105 z "},"#":{"ha":891,"x_min":85,"x_max":831,"o":"m 517 400 l 539 576 l 400 576 l 378 400 l 517 400 m 364 292 l 317 -20 l 151 -20 l 199 292 l 87 292 l 87 400 l 210 400 l 233 576 l 85 576 l 85 684 l 249 684 l 292 995 l 455 995 l 413 684 l 557 684 l 597 996 l 763 996 l 722 684 l 829 684 l 829 576 l 708 576 l 684 400 l 831 400 l 831 292 l 670 292 l 625 -20 l 460 -20 l 506 292 l 364 292 z "},"$":{"ha":980,"x_min":52,"x_max":889,"o":"m 523 184 q 608 229 576 197 q 640 313 640 260 q 618 390 640 358 q 543 444 596 421 q 532 449 537 447 q 523 453 528 450 l 523 184 m 446 940 q 388 935 415 939 q 340 920 361 931 q 308 889 320 909 q 296 836 296 869 q 299 815 296 826 q 311 794 302 805 q 339 771 321 783 q 388 748 357 760 q 418 738 404 743 q 446 727 432 732 l 446 940 m 446 1221 l 523 1221 l 523 1140 q 705 1109 626 1131 q 840 1059 784 1088 l 777 871 q 684 903 730 889 q 643 916 665 909 q 601 926 622 922 q 560 933 580 930 q 523 937 540 937 l 523 698 q 579 677 551 688 q 635 656 606 667 q 733 609 686 637 q 814 542 779 580 q 869 455 848 503 q 889 350 889 407 q 865 195 889 262 q 794 81 841 128 q 679 8 747 35 q 523 -25 611 -18 l 523 -100 l 446 -100 l 446 -26 q 384 -22 415 -26 q 322 -11 353 -18 q 262 4 291 -4 q 207 22 233 13 q 89 71 146 44 l 136 265 q 240 220 186 240 q 288 204 262 212 q 340 190 314 196 q 394 179 367 183 q 446 176 420 176 l 446 485 q 345 528 395 507 q 243 570 295 549 q 100 674 149 609 q 52 834 52 739 q 84 983 52 923 q 170 1078 116 1042 q 296 1129 224 1114 q 446 1145 367 1145 l 446 1221 z "},"%":{"ha":1169,"x_min":9,"x_max":1197,"o":"m 948 140 q 989 147 971 140 q 1019 174 1006 155 q 1037 227 1031 193 q 1043 312 1043 260 q 1019 447 1043 406 q 948 489 996 489 q 876 447 900 489 q 852 312 852 406 q 859 227 852 260 q 877 174 865 193 q 907 147 889 155 q 948 140 925 140 m 951 8 q 863 22 901 8 q 798 61 825 37 q 752 116 770 85 q 724 180 734 146 q 709 245 713 213 q 705 306 705 278 q 722 451 705 390 q 771 552 739 512 q 849 610 804 591 q 951 629 895 629 q 1053 610 1007 629 q 1130 552 1098 591 q 1180 451 1162 512 q 1197 306 1197 390 q 1193 247 1197 279 q 1178 182 1189 215 q 1150 117 1168 149 q 1105 62 1133 86 q 1040 23 1078 37 q 951 8 1002 8 m 252 568 q 293 575 275 568 q 323 602 311 583 q 341 654 335 621 q 347 739 347 688 q 323 875 347 833 q 252 917 300 917 q 181 875 204 917 q 157 739 157 833 q 163 654 157 688 q 182 602 170 621 q 212 575 194 583 q 252 568 229 568 m 256 435 q 168 450 205 435 q 102 488 130 464 q 57 543 75 512 q 29 607 39 574 q 14 673 18 640 q 9 733 9 705 q 27 879 9 817 q 76 980 44 940 q 154 1038 108 1019 q 256 1057 199 1057 q 357 1038 311 1057 q 435 980 403 1019 q 484 879 467 940 q 502 733 502 817 q 498 674 502 707 q 483 609 494 642 q 455 545 473 576 q 410 489 437 513 q 345 450 382 465 q 256 435 307 435 m 770 1053 l 911 979 l 427 -28 l 286 40 l 770 1053 z "},"&":{"ha":1261,"x_min":112,"x_max":1260,"o":"m 340 324 q 396 208 340 248 q 574 168 452 168 q 683 177 636 168 q 762 199 730 187 q 810 221 793 212 l 826 231 l 523 494 q 452 471 486 485 q 394 437 419 457 q 354 389 369 417 q 340 324 340 361 m 574 -28 q 395 -9 479 -28 q 248 50 311 9 q 149 153 185 90 q 112 307 112 217 q 134 431 112 380 q 192 520 156 483 q 274 585 228 558 q 368 633 319 611 l 368 633 q 292 709 325 667 q 264 748 278 727 q 240 794 251 770 q 223 844 230 818 q 217 899 217 871 q 244 1002 217 957 q 318 1078 271 1047 q 426 1124 364 1108 q 556 1140 487 1140 q 687 1123 627 1140 q 789 1075 747 1106 q 856 1000 832 1044 q 880 903 880 956 q 869 803 880 852 q 834 711 858 753 q 774 634 810 668 q 687 582 737 601 l 901 395 q 900 455 900 426 q 899 513 899 484 q 899 573 899 542 q 899 638 899 604 l 1109 638 q 1106 539 1109 589 q 1099 444 1103 488 q 1090 362 1095 399 q 1081 304 1085 326 l 1072 256 l 1260 94 l 1153 -41 l 983 102 q 828 8 930 43 q 574 -28 727 -28 m 690 873 q 657 952 690 927 q 564 977 624 977 q 435 878 435 977 q 449 822 435 846 q 479 777 462 798 q 506 750 491 766 q 538 727 521 735 q 597 748 570 736 q 645 776 625 760 q 678 816 666 793 q 690 873 690 840 z "},"'":{"ha":418,"x_min":53,"x_max":363,"o":"m 363 1105 l 275 546 l 113 546 l 53 1105 l 363 1105 z "},"(":{"ha":580,"x_min":99,"x_max":541,"o":"m 99 475 q 122 694 99 589 q 188 888 146 798 q 290 1053 231 979 q 422 1181 350 1126 l 537 1027 q 452 921 490 981 q 387 789 414 861 q 346 638 360 718 q 331 475 331 559 q 346 315 331 392 q 387 169 360 237 q 453 40 414 100 q 541 -66 492 -19 l 425 -220 q 291 -92 351 -165 q 189 70 231 -19 q 122 260 146 158 q 99 475 99 362 z "},")":{"ha":577,"x_min":44,"x_max":488,"o":"m 488 485 q 464 268 488 372 q 397 73 440 163 q 295 -92 355 -17 q 164 -220 236 -166 l 48 -66 q 134 40 96 -20 q 199 172 172 101 q 240 323 226 243 q 254 486 254 403 q 239 647 254 570 q 197 794 224 725 q 131 922 170 863 q 44 1027 92 981 l 161 1181 q 296 1051 235 1125 q 399 888 356 977 q 465 698 441 800 q 488 485 488 596 z "},"*":{"ha":714,"x_min":41,"x_max":672,"o":"m 451 1154 l 593 1069 l 500 906 l 672 906 l 672 763 l 502 763 l 594 605 l 449 517 l 363 668 l 277 519 l 134 605 l 226 763 l 41 763 l 41 906 l 228 906 l 134 1072 l 275 1152 l 361 1000 l 451 1154 z "},"+":{"ha":747,"x_min":77,"x_max":673,"o":"m 480 310 l 480 63 l 269 63 l 269 310 l 77 310 l 77 509 l 269 509 l 269 754 l 480 754 l 480 509 l 673 509 l 673 310 l 480 310 z "},",":{"ha":519,"x_min":115,"x_max":418,"o":"m 115 298 l 418 298 l 418 38 q 395 -71 418 -27 q 335 -142 372 -114 q 252 -188 298 -170 q 162 -218 207 -205 l 116 -138 q 174 -113 150 -125 q 214 -84 199 -100 q 236 -47 229 -68 q 243 0 243 -27 l 115 0 l 115 298 z "},"-":{"ha":807,"x_min":121,"x_max":686,"o":"m 121 406 l 121 597 l 686 597 l 686 406 l 121 406 z "},".":{"ha":552,"x_min":112,"x_max":415,"o":"m 112 298 l 415 298 l 415 0 l 112 0 l 112 298 z "},"/":{"ha":632,"x_min":52,"x_max":653,"o":"m 449 1164 l 653 1099 l 253 -100 l 52 -38 l 449 1164 z "},":":{"ha":534,"x_min":135,"x_max":437,"o":"m 135 313 l 437 313 l 437 0 l 135 0 l 135 313 m 135 839 l 437 839 l 437 526 l 135 526 l 135 839 z "},";":{"ha":536,"x_min":136,"x_max":440,"o":"m 136 839 l 438 839 l 438 526 l 136 526 l 136 839 m 137 298 l 440 298 l 440 38 q 417 -71 440 -27 q 356 -142 393 -114 q 273 -188 319 -170 q 183 -218 228 -205 l 138 -138 q 196 -113 172 -125 q 235 -84 220 -100 q 257 -47 250 -68 q 264 0 264 -27 l 137 0 l 137 298 z "},"<":{"ha":833,"x_min":79,"x_max":686,"o":"m 79 496 l 679 856 l 679 608 l 298 412 l 686 214 l 686 -33 l 79 321 l 79 496 z "},"=":{"ha":849,"x_min":100,"x_max":749,"o":"m 100 188 l 100 358 l 749 358 l 749 188 l 100 188 m 100 460 l 100 630 l 749 630 l 749 460 l 100 460 z "},">":{"ha":785,"x_min":118,"x_max":720,"o":"m 125 -33 l 125 222 l 501 412 l 118 601 l 118 856 l 720 495 l 720 321 l 125 -33 z "},"?":{"ha":749,"x_min":1,"x_max":714,"o":"m 140 81 q 139 86 140 84 q 139 91 139 88 q 150 149 139 123 q 180 193 161 174 q 224 221 199 211 q 280 231 250 231 q 337 219 312 231 q 380 189 363 208 q 408 143 398 170 q 417 88 417 117 q 406 30 417 56 q 377 -14 395 4 q 332 -43 358 -33 q 276 -53 307 -53 q 221 -42 246 -53 q 178 -14 196 -32 q 150 29 160 5 q 140 81 140 54 m 467 789 q 452 845 467 825 q 414 874 437 865 q 359 886 390 884 q 295 888 328 888 q 254 885 278 888 q 204 876 231 882 q 152 865 178 871 q 106 853 126 859 q 73 844 85 848 q 60 839 60 840 l 1 1024 q 76 1056 39 1043 q 151 1075 113 1068 q 231 1085 190 1082 q 318 1088 272 1088 q 477 1073 404 1088 q 602 1023 549 1057 q 685 933 655 988 q 714 799 714 878 q 712 759 714 783 q 699 706 709 735 q 668 646 688 677 q 610 583 647 614 q 517 523 573 552 q 382 472 462 494 l 382 303 l 149 303 l 149 585 q 220 608 183 596 q 293 632 258 619 q 360 661 328 646 q 415 695 391 676 q 453 737 439 714 q 467 789 467 760 z "},"@":{"ha":1375,"x_min":88,"x_max":1312,"o":"m 680 -92 q 439 -53 548 -92 q 253 56 331 -15 q 131 228 174 127 q 88 454 88 328 q 105 606 88 530 q 158 751 123 682 q 247 880 193 821 q 373 984 300 940 q 539 1053 446 1028 q 745 1078 631 1078 q 889 1063 819 1078 q 1023 1017 960 1047 q 1139 942 1086 987 q 1231 841 1192 898 q 1290 714 1269 783 q 1312 564 1312 644 q 1298 454 1312 508 q 1262 355 1285 401 q 1207 273 1239 309 q 1139 216 1176 237 q 1079 199 1120 204 q 973 195 1038 195 q 880 233 911 195 q 848 343 848 271 q 848 355 848 349 q 851 368 848 361 q 814 284 833 319 q 770 227 795 249 q 713 195 745 205 q 637 184 681 184 q 572 191 605 184 q 508 216 539 198 q 449 267 477 235 q 399 349 421 299 q 376 467 376 399 q 385 549 376 510 q 410 620 394 587 q 446 680 425 652 q 489 728 467 707 q 600 796 538 773 q 734 819 661 819 q 831 809 783 819 q 919 782 880 800 q 983 736 958 764 q 1007 672 1007 709 q 1006 660 1007 663 l 943 336 q 1076 403 1036 353 q 1117 531 1117 452 q 1017 807 1117 711 q 725 903 917 903 q 547 870 627 903 q 411 777 467 836 q 324 634 355 717 q 293 454 293 551 q 325 278 293 351 q 416 160 357 206 q 558 93 475 114 q 747 72 642 72 q 812 82 777 72 q 880 106 847 92 l 916 -47 q 809 -80 871 -69 q 680 -92 747 -92 m 737 690 q 659 676 693 690 q 601 633 625 663 q 566 558 578 604 q 553 449 553 512 q 559 404 553 426 q 577 365 566 382 q 605 337 589 347 q 642 326 621 326 q 707 341 679 326 q 758 382 736 356 q 795 442 779 408 q 823 516 810 477 q 844 596 835 555 q 861 677 852 637 q 800 686 830 682 q 737 690 770 690 z "},"A":{"ha":1057,"x_min":18,"x_max":1038,"o":"m 669 1105 l 1038 0 l 768 0 l 692 243 l 365 243 l 288 0 l 18 0 l 382 1105 l 669 1105 m 399 367 l 669 367 l 533 774 l 399 367 z "},"B":{"ha":1020,"x_min":107,"x_max":969,"o":"m 404 1105 q 578 1098 506 1105 q 701 1078 650 1090 q 783 1050 751 1066 q 837 1018 814 1034 q 909 929 886 981 q 932 808 932 877 q 913 726 932 765 q 863 656 895 687 q 786 606 830 626 q 690 581 742 586 q 820 548 766 569 q 906 494 873 526 q 954 420 939 463 q 969 326 969 378 q 937 177 969 239 q 844 76 905 115 q 695 18 783 37 q 492 0 606 0 l 354 0 l 107 0 l 107 1105 l 404 1105 m 454 170 q 562 173 515 170 q 640 191 608 176 q 686 237 671 205 q 702 326 702 269 q 688 406 702 374 q 646 455 675 437 q 573 480 618 473 q 465 487 528 487 l 378 487 l 378 170 l 454 170 m 378 651 l 467 651 q 634 686 577 651 q 692 790 692 721 q 681 855 692 827 q 645 901 671 883 q 578 927 620 918 q 474 936 536 936 l 378 936 l 378 651 z "},"C":{"ha":921,"x_min":72,"x_max":895,"o":"m 340 549 q 402 268 340 360 q 585 176 463 176 q 703 193 645 176 q 821 252 760 210 l 893 62 q 839 30 873 45 q 763 4 806 15 q 668 -13 720 -7 q 559 -19 616 -19 q 356 19 446 -19 q 203 130 266 57 q 106 311 140 203 q 72 556 72 418 q 105 804 72 697 q 202 981 139 910 q 355 1088 265 1053 q 559 1124 446 1124 q 642 1120 598 1124 q 730 1106 686 1116 q 817 1080 774 1097 q 895 1039 859 1064 l 821 849 q 754 888 785 872 q 693 912 723 903 q 636 926 664 922 q 578 930 608 930 q 473 908 517 930 q 398 841 428 887 q 355 723 369 795 q 340 549 340 650 z "},"D":{"ha":1094,"x_min":107,"x_max":1022,"o":"m 751 550 q 746 660 751 608 q 728 753 741 711 q 692 830 715 796 q 631 887 669 863 q 541 923 594 910 q 414 935 488 935 l 378 935 l 378 170 l 416 170 q 580 198 515 170 q 683 276 645 226 q 736 395 721 326 q 751 550 751 465 m 1022 547 q 987 311 1022 413 q 881 140 952 209 q 701 35 810 71 q 446 0 593 0 l 107 0 l 107 1105 l 448 1105 q 878 965 734 1105 q 1022 547 1022 825 z "},"E":{"ha":920,"x_min":107,"x_max":870,"o":"m 107 0 l 107 1105 l 864 1105 l 864 935 l 377 935 l 377 654 l 801 654 l 801 488 l 377 488 l 377 166 l 870 166 l 870 0 l 107 0 z "},"F":{"ha":880,"x_min":107,"x_max":875,"o":"m 377 0 l 107 0 l 107 1105 l 875 1105 l 875 935 l 377 935 l 377 654 l 812 654 l 812 488 l 377 488 l 377 0 z "},"G":{"ha":1110,"x_min":72,"x_max":1007,"o":"m 770 457 l 523 457 l 523 620 l 1007 620 l 1007 0 l 831 0 l 798 83 q 758 37 783 56 q 698 6 732 18 q 626 -13 665 -7 q 545 -19 587 -19 q 349 16 436 -19 q 200 120 261 50 q 105 294 138 189 q 72 538 72 399 q 108 781 72 673 q 213 965 144 889 q 385 1083 283 1042 q 618 1124 486 1124 q 745 1114 690 1124 q 841 1091 800 1105 q 908 1062 882 1077 q 951 1036 935 1047 l 873 857 q 811 883 843 870 q 748 907 780 897 q 686 923 717 917 q 625 930 655 930 q 505 904 557 930 q 416 828 452 878 q 361 705 380 779 q 342 536 342 632 q 355 397 342 463 q 396 282 368 331 q 467 204 424 233 q 568 175 509 175 q 675 184 626 175 q 770 206 724 193 l 770 457 z "},"H":{"ha":1127,"x_min":107,"x_max":1020,"o":"m 749 489 l 378 489 l 378 0 l 107 0 l 107 1105 l 378 1105 l 378 655 l 749 655 l 749 1105 l 1020 1105 l 1020 0 l 749 0 l 749 489 z "},"I":{"ha":611,"x_min":52,"x_max":558,"o":"m 169 123 l 169 982 l 52 982 l 52 1105 l 558 1105 l 558 982 l 440 982 l 440 123 l 558 123 l 558 0 l 52 0 l 52 123 l 169 123 z "},"J":{"ha":620,"x_min":20,"x_max":513,"o":"m 20 116 q 126 137 83 124 q 194 177 168 151 q 231 246 220 203 q 241 356 241 289 l 241 1105 l 513 1105 l 513 355 q 487 167 513 245 q 409 40 462 90 q 277 -34 357 -10 q 90 -60 197 -58 l 20 116 z "},"K":{"ha":1041,"x_min":107,"x_max":1048,"o":"m 378 0 l 107 0 l 107 1105 l 378 1105 l 378 631 l 425 631 l 728 1105 l 1011 1105 l 639 555 l 1048 0 l 745 0 l 420 465 l 378 465 l 378 0 z "},"L":{"ha":845,"x_min":107,"x_max":851,"o":"m 107 0 l 107 1105 l 377 1105 l 377 170 l 851 170 l 851 0 l 107 0 z "},"M":{"ha":1388,"x_min":107,"x_max":1280,"o":"m 330 735 l 330 0 l 107 0 l 107 1105 l 419 1105 l 688 299 l 968 1105 l 1280 1105 l 1280 0 l 1058 0 l 1058 735 l 821 0 l 570 0 l 330 735 z "},"N":{"ha":1150,"x_min":107,"x_max":1044,"o":"m 767 0 l 347 730 l 347 0 l 107 0 l 107 1105 l 392 1105 l 805 387 l 805 1105 l 1044 1105 l 1044 0 l 767 0 z "},"O":{"ha":1147,"x_min":72,"x_max":1074,"o":"m 1074 552 q 1044 313 1074 418 q 951 133 1013 207 q 795 20 889 60 q 573 -19 701 -19 q 352 20 446 -19 q 195 133 258 59 q 102 312 133 206 q 72 550 72 417 q 103 792 72 685 q 196 972 134 899 q 353 1085 258 1046 q 573 1124 447 1124 q 794 1084 700 1124 q 950 971 888 1045 q 1043 792 1013 898 q 1074 552 1074 686 m 342 554 q 351 409 342 477 q 387 288 361 340 q 457 205 412 236 q 573 175 502 175 q 690 207 645 175 q 761 291 736 238 q 796 412 787 343 q 805 554 805 480 q 795 698 805 630 q 759 818 785 766 q 688 900 733 869 q 572 930 643 930 q 456 899 501 930 q 386 817 412 869 q 351 697 361 765 q 342 554 342 629 z "},"P":{"ha":978,"x_min":107,"x_max":956,"o":"m 956 733 q 916 559 956 627 q 805 451 877 490 q 634 396 734 412 q 414 381 534 381 l 378 381 l 378 0 l 107 0 l 107 1105 l 433 1105 q 651 1088 555 1105 q 814 1028 747 1071 q 917 913 881 985 q 956 733 954 842 m 413 540 q 519 548 469 540 q 606 578 569 557 q 665 637 644 600 q 687 731 687 674 q 670 830 687 790 q 622 893 654 869 q 542 926 589 916 q 433 936 495 936 l 378 936 l 378 540 l 413 540 z "},"Q":{"ha":1145,"x_min":72,"x_max":1074,"o":"m 1074 554 q 1052 346 1074 441 q 984 180 1029 252 q 870 61 939 109 q 708 -5 802 14 l 904 -160 l 778 -294 l 461 -9 q 290 51 363 6 q 169 168 217 96 q 96 337 120 240 q 72 553 72 433 q 103 796 72 690 q 198 975 135 902 q 354 1086 260 1048 q 574 1124 448 1124 q 794 1084 701 1124 q 950 971 888 1045 q 1043 792 1013 897 q 1074 554 1074 686 m 572 930 q 460 901 505 930 q 389 821 416 871 q 352 701 363 770 q 342 553 342 632 q 352 410 342 478 q 387 289 361 341 q 458 206 413 237 q 572 175 503 175 q 686 204 641 175 q 756 284 730 233 q 793 404 783 335 q 804 553 804 473 q 800 639 804 595 q 788 725 797 683 q 763 804 779 766 q 721 869 747 841 q 659 913 695 897 q 572 930 622 930 z "},"R":{"ha":1040,"x_min":107,"x_max":974,"o":"m 390 632 q 523 637 465 632 q 618 660 580 643 q 676 708 656 677 q 696 789 696 739 q 682 862 696 833 q 637 907 669 890 q 555 929 606 923 q 429 936 504 936 l 378 936 l 378 632 l 390 632 m 634 550 q 770 525 707 543 q 877 475 832 508 q 948 392 922 443 q 974 267 974 341 l 974 0 l 707 0 l 707 285 q 690 373 707 338 q 642 430 674 409 q 564 460 610 452 q 456 469 517 469 l 378 469 l 378 0 l 107 0 l 107 1105 l 397 1105 q 598 1097 511 1105 q 747 1073 684 1089 q 852 1033 810 1057 q 919 977 894 1008 q 955 906 944 945 q 965 821 965 867 q 941 697 965 747 q 872 616 916 648 q 767 570 828 585 q 634 550 707 555 z "},"S":{"ha":932,"x_min":61,"x_max":887,"o":"m 887 315 q 783 67 887 153 q 477 -19 679 -19 q 317 -2 390 -19 q 190 35 244 14 q 75 88 127 58 l 132 276 q 150 269 132 276 q 198 249 168 260 q 266 225 227 238 q 344 200 304 212 q 422 182 384 189 q 492 174 460 174 q 602 195 566 174 q 637 269 637 216 q 633 307 637 289 q 618 340 629 324 q 591 368 608 355 q 547 393 574 381 l 267 511 q 113 629 164 554 q 61 810 61 704 q 78 908 61 864 q 124 988 95 953 q 194 1048 154 1023 q 279 1090 233 1074 q 374 1116 325 1107 q 473 1124 424 1124 q 578 1117 528 1124 q 671 1100 629 1110 q 748 1077 714 1089 q 807 1054 783 1065 q 844 1037 831 1044 l 856 1030 l 793 854 l 781 860 q 749 874 770 865 q 701 892 729 882 q 640 910 673 902 q 572 924 608 919 q 500 930 536 930 q 435 927 469 930 q 372 914 401 924 q 324 884 343 904 q 305 831 305 865 q 306 813 305 823 q 315 792 307 803 q 338 768 322 781 q 385 744 355 756 l 637 642 q 743 587 696 618 q 822 516 789 556 q 870 426 854 476 q 887 315 887 376 z "},"T":{"ha":804,"x_min":-14,"x_max":818,"o":"m 540 935 l 540 0 l 269 0 l 269 935 l -14 935 l -14 1105 l 818 1105 l 818 935 l 540 935 z "},"U":{"ha":1109,"x_min":98,"x_max":1012,"o":"m 555 175 q 635 186 603 175 q 689 218 668 197 q 720 268 709 239 q 736 334 731 298 q 741 414 741 371 q 742 505 742 457 l 742 1105 l 1012 1105 l 1012 507 q 986 276 1012 375 q 906 112 961 178 q 764 14 851 47 q 555 -19 677 -19 q 346 14 433 -19 q 205 112 260 47 q 124 276 150 178 q 98 507 98 375 l 98 1105 l 369 1105 l 369 505 q 369 414 369 457 q 374 335 370 372 q 389 269 378 298 q 421 218 400 239 q 474 186 441 197 q 555 175 507 175 z "},"V":{"ha":988,"x_min":18,"x_max":970,"o":"m 497 374 l 715 1105 l 970 1105 l 626 0 l 361 0 l 18 1105 l 270 1105 l 497 374 z "},"W":{"ha":1413,"x_min":20,"x_max":1396,"o":"m 850 1105 l 989 335 l 1135 1105 l 1396 1105 l 1159 1 l 869 1 l 707 837 l 548 0 l 256 0 l 20 1105 l 281 1105 l 427 335 l 566 1105 l 850 1105 z "},"X":{"ha":962,"x_min":-7,"x_max":969,"o":"m 688 1105 l 969 1105 l 632 559 l 969 0 l 683 0 l 481 337 l 278 0 l -7 0 l 330 559 l -7 1105 l 273 1105 l 481 758 l 688 1105 z "},"Y":{"ha":860,"x_min":-51,"x_max":913,"o":"m 639 1105 l 913 1105 l 556 366 l 556 0 l 301 0 l 301 366 l -51 1105 l 218 1105 l 428 649 l 639 1105 z "},"Z":{"ha":851,"x_min":33,"x_max":816,"o":"m 814 945 l 337 170 l 816 170 l 816 0 l 33 0 l 33 165 l 517 935 l 33 935 l 33 1105 l 814 1105 l 814 945 z "},"[":{"ha":818,"x_min":158,"x_max":689,"o":"m 689 1105 l 689 936 l 400 936 l 400 170 l 689 170 l 689 0 l 158 0 l 158 1105 l 689 1105 z "},"\\":{"ha":837,"x_min":119,"x_max":752,"o":"m 752 -22 l 517 -101 l 119 1099 l 356 1177 l 752 -22 z "},"]":{"ha":814,"x_min":165,"x_max":696,"o":"m 696 1105 l 696 0 l 165 0 l 165 170 l 452 170 l 452 935 l 165 935 l 165 1105 l 696 1105 z "},"^":{"ha":848,"x_min":151,"x_max":696,"o":"m 517 840 l 696 404 l 494 404 l 422 673 l 351 398 l 151 398 l 330 840 l 517 840 z "},"_":{"ha":783,"x_min":43,"x_max":745,"o":"m 43 -68 l 43 124 l 745 124 l 745 -68 l 43 -68 z "},"`":{"ha":610,"x_min":119,"x_max":488,"o":"m 119 526 l 342 631 l 488 203 l 372 147 l 119 526 z "},"a":{"ha":868,"x_min":49,"x_max":777,"o":"m 422 668 q 286 652 348 668 q 161 608 224 637 l 101 759 q 247 818 164 798 q 431 838 330 838 q 588 815 522 838 q 695 745 653 791 q 757 631 737 699 q 777 475 777 564 l 777 0 l 578 0 l 544 103 q 504 48 525 71 q 458 10 483 25 q 402 -12 433 -5 q 335 -18 372 -18 q 215 -1 268 -18 q 125 52 162 17 q 68 137 88 86 q 49 254 49 188 q 75 370 49 321 q 151 450 101 418 q 275 497 201 481 q 443 512 348 512 q 483 511 463 512 q 523 506 503 509 q 520 562 523 533 q 508 614 518 590 q 478 653 498 637 q 422 668 458 668 m 402 154 q 523 220 474 154 l 523 376 q 484 378 500 377 q 465 380 468 380 q 385 373 416 380 q 336 352 354 366 q 312 320 319 339 q 305 276 305 300 q 330 187 305 220 q 402 154 355 154 z "},"b":{"ha":939,"x_min":110,"x_max":890,"o":"m 497 154 q 556 169 530 154 q 598 215 581 184 q 624 294 616 246 q 633 409 633 342 q 626 536 633 486 q 606 616 620 587 q 572 656 593 645 q 521 668 551 668 q 445 652 482 668 q 366 597 407 636 l 366 209 q 427 165 395 176 q 497 154 459 154 m 560 -18 q 345 115 382 -18 l 288 0 l 110 0 l 110 1182 l 366 1216 l 366 745 q 461 815 407 791 q 587 838 515 838 q 715 807 659 838 q 811 720 772 776 q 870 588 850 665 q 890 420 890 511 q 871 234 890 315 q 810 96 851 152 q 708 11 770 40 q 560 -18 646 -18 z "},"c":{"ha":767,"x_min":49,"x_max":730,"o":"m 468 -18 q 318 1 382 -18 q 207 54 254 21 q 130 130 161 87 q 81 219 100 173 q 56 313 63 266 q 49 400 49 359 q 78 574 49 494 q 161 713 106 654 q 293 805 215 772 q 470 838 371 838 q 566 832 524 838 q 639 815 608 825 q 693 793 671 805 q 730 770 715 781 l 684 606 q 650 627 669 616 q 607 647 631 637 q 555 662 584 656 q 492 668 526 668 q 417 654 451 668 q 358 609 382 640 q 320 529 334 578 q 307 412 307 481 q 358 218 307 282 q 515 154 409 154 q 608 172 564 154 q 683 214 652 190 l 729 50 q 689 26 713 38 q 633 4 665 14 q 561 -12 602 -6 q 468 -18 519 -18 z "},"d":{"ha":934,"x_min":49,"x_max":831,"o":"m 306 411 q 338 219 306 284 q 441 154 371 154 q 523 168 490 154 q 574 209 555 181 l 574 597 q 495 651 534 633 q 418 668 456 668 q 364 652 386 668 q 330 605 342 637 q 311 524 317 572 q 306 411 306 476 m 363 838 q 574 734 498 838 l 574 1182 l 831 1217 l 831 0 l 650 0 l 594 115 q 564 61 585 85 q 512 19 542 37 q 447 -8 481 1 q 376 -18 412 -18 q 259 1 309 -18 q 172 54 208 20 q 112 131 136 87 q 74 227 88 176 q 55 332 60 277 q 49 438 49 386 q 70 593 49 520 q 132 720 92 666 q 230 806 172 774 q 363 838 288 838 z "},"e":{"ha":850,"x_min":49,"x_max":795,"o":"m 753 47 q 620 -2 686 14 q 479 -18 553 -18 q 303 8 382 -18 q 168 85 224 35 q 80 211 111 136 q 49 380 49 285 q 76 576 49 490 q 154 720 102 662 q 282 808 206 778 q 457 838 358 838 q 602 810 539 838 q 707 733 665 783 q 772 615 750 684 q 794 465 794 547 q 794 407 794 436 q 795 347 794 377 l 313 347 q 327 269 314 304 q 365 208 340 233 q 423 168 389 182 q 500 154 457 154 q 611 170 561 154 q 707 218 662 185 l 753 47 m 587 471 q 554 618 587 572 q 451 668 522 665 q 388 649 414 665 q 345 607 361 633 q 320 546 328 581 q 312 473 312 511 l 587 473 l 587 471 z "},"f":{"ha":589,"x_min":8,"x_max":595,"o":"m 493 1000 q 453 992 471 1000 q 423 962 435 983 q 405 905 411 941 q 398 813 398 869 l 589 813 l 589 708 l 397 708 l 397 0 l 141 0 l 141 708 l 8 708 l 8 813 l 141 813 q 158 974 141 903 q 211 1092 176 1044 q 302 1165 247 1140 q 433 1190 357 1190 q 528 1184 490 1190 q 591 1173 566 1178 l 595 985 q 544 995 570 989 q 493 1000 517 1000 z "},"g":{"ha":881,"x_min":45,"x_max":903,"o":"m 399 -215 q 526 -207 479 -215 q 596 -183 572 -198 q 627 -146 620 -168 q 633 -100 633 -125 q 623 -53 633 -71 q 584 -24 613 -35 q 501 -4 554 -12 q 363 14 448 4 q 326 -8 346 8 q 288 -45 305 -24 q 259 -88 271 -66 q 248 -128 248 -111 q 262 -178 248 -161 q 300 -204 277 -196 q 350 -214 323 -212 q 399 -215 376 -215 m 469 432 q 499 445 483 433 q 530 475 515 457 q 553 515 544 493 q 562 559 562 538 q 532 641 562 615 q 441 667 503 667 q 385 662 409 667 q 346 643 361 656 q 323 607 330 629 q 315 552 315 585 q 330 478 315 511 q 382 426 345 446 l 469 432 m 729 674 q 773 570 773 607 q 768 512 773 542 q 750 453 763 482 q 716 397 737 424 q 662 349 694 370 q 586 312 630 327 q 484 292 542 297 l 274 274 l 286 191 l 473 176 q 641 148 569 168 q 762 94 713 127 q 834 10 810 60 q 858 -106 858 -39 q 746 -326 858 -250 q 406 -401 635 -401 q 238 -387 307 -401 q 126 -342 169 -372 q 64 -264 83 -311 q 45 -151 45 -216 q 56 -92 45 -121 q 86 -38 66 -64 q 132 11 105 -12 q 191 52 159 34 q 96 99 127 57 q 64 216 64 141 q 74 279 64 253 q 106 324 84 304 q 163 358 127 343 q 251 385 199 372 q 184 396 214 386 q 132 428 154 407 q 99 479 111 449 q 87 550 87 510 q 110 671 87 617 q 177 762 134 724 q 280 819 220 799 q 416 838 341 838 q 546 828 492 838 q 633 798 600 817 q 744 830 686 821 q 866 838 802 838 l 903 838 l 903 674 l 729 674 z "},"h":{"ha":961,"x_min":110,"x_max":871,"o":"m 366 745 q 403 784 380 766 q 453 813 426 801 q 513 832 481 825 q 580 838 545 838 q 703 817 649 838 q 794 753 758 795 q 851 651 831 712 q 871 513 871 591 l 871 0 l 614 0 l 614 532 q 605 588 614 563 q 580 631 595 614 q 545 659 565 649 q 505 668 525 668 q 447 665 469 668 q 412 655 426 661 q 388 639 398 648 q 366 619 378 630 l 366 0 l 110 0 l 110 1175 l 366 1218 l 366 745 z "},"i":{"ha":471,"x_min":94,"x_max":378,"o":"m 108 0 l 108 812 l 363 812 l 363 0 l 108 0 m 94 1135 q 105 1191 94 1165 q 135 1236 116 1217 q 180 1266 155 1255 q 235 1277 205 1277 q 290 1266 264 1277 q 336 1236 316 1255 q 367 1191 355 1217 q 378 1135 378 1165 q 367 1079 378 1105 q 335 1034 355 1053 q 290 1005 315 1015 q 235 994 264 994 q 179 1005 205 994 q 134 1035 153 1016 q 105 1080 115 1054 q 94 1135 94 1105 z "},"j":{"ha":507,"x_min":-8,"x_max":405,"o":"m 130 1133 q 140 1190 130 1164 q 169 1235 151 1216 q 212 1264 187 1254 q 267 1275 237 1275 q 321 1264 296 1275 q 365 1234 346 1253 q 394 1190 383 1215 q 405 1133 405 1164 q 394 1075 405 1101 q 364 1030 383 1049 q 320 1002 345 1012 q 267 991 295 991 q 210 1003 235 991 q 166 1034 184 1015 q 139 1079 149 1053 q 130 1133 130 1105 m -8 -69 q 52 -31 24 -50 q 98 12 79 -12 q 129 70 118 37 q 140 149 140 102 l 140 812 l 397 812 l 397 145 q 371 6 397 70 q 300 -109 345 -58 q 197 -193 256 -159 q 74 -242 139 -227 l -8 -69 z "},"k":{"ha":951,"x_min":110,"x_max":949,"o":"m 366 0 l 110 0 l 110 1182 l 366 1217 l 366 523 l 666 813 l 944 813 l 587 454 l 949 0 l 661 0 l 429 344 l 366 283 l 366 0 z "},"l":{"ha":485,"x_min":114,"x_max":371,"o":"m 371 0 l 114 0 l 114 1182 l 371 1217 l 371 0 z "},"m":{"ha":1371,"x_min":110,"x_max":1281,"o":"m 366 0 l 110 0 l 110 812 l 290 812 l 348 689 q 431 804 377 770 q 564 838 485 838 q 635 832 602 838 q 695 812 668 826 q 745 776 723 798 q 783 720 767 753 q 828 773 804 751 q 881 810 852 795 q 945 831 909 824 q 1027 838 981 838 q 1138 818 1090 838 q 1217 757 1185 797 q 1265 660 1249 718 q 1281 528 1281 602 l 1281 0 l 1024 0 l 1024 549 q 943 669 1024 669 q 912 665 926 669 q 884 652 897 661 q 856 631 870 644 q 827 604 842 619 l 827 0 l 571 0 l 571 557 q 553 644 571 618 q 494 670 534 670 q 451 661 472 670 q 414 639 431 652 q 384 610 397 626 q 366 581 372 595 l 366 0 z "},"n":{"ha":940,"x_min":110,"x_max":849,"o":"m 354 710 q 434 807 385 777 q 559 838 484 838 q 780 756 710 838 q 849 505 849 674 l 849 0 l 593 0 l 593 524 q 586 594 593 566 q 567 638 580 622 q 533 661 553 654 q 487 668 513 668 q 410 648 439 668 q 366 598 381 627 l 366 0 l 110 0 l 110 812 l 304 812 l 354 710 z "},"o":{"ha":901,"x_min":45,"x_max":847,"o":"m 446 155 q 509 169 482 155 q 555 214 536 183 q 583 293 573 244 q 592 410 592 341 q 583 528 592 479 q 555 608 573 577 q 509 654 536 640 q 446 669 482 669 q 383 654 410 669 q 338 608 356 640 q 311 528 320 577 q 302 410 302 479 q 303 352 302 382 q 310 294 304 322 q 324 241 315 266 q 350 197 334 216 q 389 167 366 178 q 446 155 413 156 m 847 408 q 820 226 847 305 q 742 93 793 146 q 616 11 690 39 q 446 -17 542 -17 q 277 11 351 -17 q 151 93 202 39 q 72 226 99 146 q 45 408 45 305 q 72 593 45 513 q 151 728 100 673 q 277 811 203 783 q 446 839 352 839 q 613 811 539 839 q 740 728 688 783 q 819 593 791 673 q 847 408 847 513 z "},"p":{"ha":942,"x_min":110,"x_max":893,"o":"m 519 668 q 438 651 476 668 q 366 598 401 634 l 366 230 q 455 172 418 189 q 524 154 493 154 q 566 166 548 154 q 596 199 584 178 q 616 245 609 219 q 628 298 624 271 q 633 352 632 326 q 635 401 635 379 q 632 505 635 456 q 618 590 629 554 q 584 647 607 627 q 519 668 560 668 m 552 -18 q 449 6 494 -18 q 366 81 403 31 l 366 -279 l 110 -279 l 110 812 l 305 812 l 353 709 q 424 806 372 773 q 570 838 477 838 q 720 806 659 838 q 820 715 782 774 q 876 576 859 657 q 893 397 893 494 q 868 214 893 292 q 797 84 842 136 q 689 7 751 33 q 552 -18 626 -18 z "},"q":{"ha":934,"x_min":49,"x_max":831,"o":"m 415 154 q 493 172 455 154 q 574 232 532 191 l 574 578 q 545 621 558 604 q 517 649 532 638 q 486 664 503 659 q 446 668 469 668 q 375 646 403 668 q 332 588 348 625 q 311 503 317 551 q 305 401 305 454 q 306 353 305 380 q 309 299 306 327 q 318 246 311 272 q 336 199 324 220 q 368 166 349 179 q 415 154 387 154 m 388 838 q 442 833 416 838 q 491 813 468 828 q 535 773 515 799 q 574 705 556 747 l 610 812 l 831 812 l 831 -278 l 574 -278 l 574 82 q 483 6 530 31 q 383 -18 437 -18 q 229 16 292 -18 q 125 107 165 50 q 67 239 85 165 q 49 394 49 314 q 133 725 49 611 q 388 838 218 838 z "},"r":{"ha":606,"x_min":110,"x_max":600,"o":"m 359 684 q 399 748 374 723 q 455 786 423 772 q 523 806 486 800 q 600 812 560 811 l 600 593 q 561 604 581 600 q 520 607 542 607 q 443 594 481 607 q 366 553 405 582 l 366 0 l 110 0 l 110 812 l 331 812 l 359 684 z "},"s":{"ha":760,"x_min":54,"x_max":703,"o":"m 231 366 q 163 397 195 380 q 107 441 132 414 q 68 506 83 467 q 54 604 54 545 q 76 701 54 657 q 142 774 99 744 q 246 822 184 805 q 387 838 308 838 q 462 833 425 838 q 533 822 499 829 q 596 806 568 814 q 646 791 625 798 q 679 780 667 784 q 690 776 690 775 l 644 614 l 644 613 q 629 617 642 613 q 596 627 616 621 q 550 641 576 633 q 497 654 524 648 q 443 664 470 660 q 393 668 416 668 q 340 664 361 668 q 307 651 319 659 q 290 629 295 642 q 286 598 286 616 q 288 578 286 587 q 297 564 291 570 q 315 552 304 557 q 343 540 326 547 l 486 485 q 580 440 540 465 q 648 387 621 416 q 689 322 675 357 q 703 245 703 288 q 674 118 703 168 q 597 37 644 67 q 490 -6 549 7 q 369 -18 430 -18 q 286 -13 326 -18 q 211 1 246 -7 q 146 18 176 9 q 97 36 117 28 q 65 48 76 43 q 55 53 54 54 l 101 218 q 115 214 102 218 q 148 202 127 210 q 195 186 168 195 q 250 171 221 178 q 308 159 279 163 q 361 154 336 154 q 415 159 395 154 q 446 174 435 163 q 461 201 457 184 q 465 239 465 217 q 448 269 465 254 q 395 299 431 284 l 231 366 z "},"t":{"ha":642,"x_min":-14,"x_max":640,"o":"m 399 -18 q 289 0 338 -18 q 206 59 240 19 q 153 164 172 100 q 135 319 135 228 l 135 708 l -14 708 l -14 812 l 140 812 l 140 1120 l 390 1181 l 390 812 l 618 812 l 618 708 l 390 708 l 390 302 q 394 244 390 271 q 408 197 399 217 q 434 165 418 177 q 473 154 450 154 q 502 158 487 154 q 531 169 517 162 q 559 183 546 175 q 581 197 572 191 l 640 44 q 620 33 637 43 q 571 12 602 23 q 497 -9 541 0 q 399 -18 453 -18 z "},"u":{"ha":929,"x_min":91,"x_max":819,"o":"m 344 295 q 348 237 344 264 q 364 192 353 211 q 395 162 376 173 q 446 152 415 152 q 512 169 484 152 q 562 215 539 186 l 562 812 l 819 812 l 819 0 l 638 0 l 581 124 q 555 59 572 86 q 512 15 537 33 q 457 -10 488 -2 q 391 -18 426 -18 q 164 65 237 -18 q 91 315 91 149 l 91 812 l 344 812 l 344 295 z "},"v":{"ha":823,"x_min":0,"x_max":827,"o":"m 256 0 l 0 812 l 270 812 l 413 218 l 553 812 l 827 812 l 569 0 l 256 0 z "},"w":{"ha":1103,"x_min":0,"x_max":1106,"o":"m 550 479 l 447 0 l 208 0 l 0 812 l 237 812 l 338 271 l 442 812 l 664 812 l 768 272 l 874 812 l 1106 812 l 897 0 l 655 0 l 550 479 z "},"x":{"ha":830,"x_min":3,"x_max":827,"o":"m 292 0 l 9 0 l 286 410 l 3 812 l 292 812 l 420 593 l 543 812 l 827 812 l 551 410 l 823 0 l 543 0 l 416 233 l 292 0 z "},"y":{"ha":834,"x_min":0,"x_max":837,"o":"m 0 812 l 263 812 l 450 271 l 578 812 l 837 812 l 562 -22 q 505 -154 538 -97 q 424 -249 471 -210 q 313 -308 377 -288 q 164 -328 250 -328 l 92 -155 q 202 -138 160 -150 q 271 -104 245 -126 q 313 -49 298 -82 q 340 31 328 -16 l 0 812 z "},"z":{"ha":740,"x_min":67,"x_max":684,"o":"m 74 642 l 74 813 l 676 813 l 676 647 l 349 170 l 684 170 l 684 0 l 67 0 l 67 168 l 406 642 l 74 642 z "},"{":{"ha":599,"x_min":104,"x_max":481,"o":"m 414 680 q 401 572 414 614 q 369 506 388 531 q 329 469 350 481 q 290 450 307 457 q 384 369 352 427 q 415 220 415 311 q 417 96 415 142 q 427 26 420 50 q 447 -6 434 1 q 481 -14 460 -14 l 481 -147 q 414 -143 449 -147 q 344 -127 378 -139 q 279 -94 310 -115 q 225 -38 248 -73 q 188 45 202 -4 q 174 161 174 94 l 174 197 q 171 288 174 252 q 158 345 167 323 q 137 375 150 366 q 104 383 123 383 l 104 516 q 136 525 123 516 q 157 554 149 534 q 169 610 165 575 q 173 697 173 645 l 173 736 q 186 852 173 803 q 223 936 200 901 q 278 991 247 970 q 343 1026 309 1013 q 413 1043 377 1038 q 481 1047 448 1047 l 481 913 q 448 907 461 913 q 428 877 435 901 q 417 806 420 852 q 414 680 414 760 z "},"|":{"ha":582,"x_min":179,"x_max":403,"o":"m 179 1166 l 403 1166 l 403 -105 l 179 -105 l 179 1166 z "},"}":{"ha":599,"x_min":115,"x_max":491,"o":"m 182 681 q 178 810 182 763 q 167 880 175 857 q 146 908 159 903 q 115 914 134 914 l 115 1048 q 183 1044 147 1048 q 253 1028 218 1040 q 318 995 287 1016 q 372 939 349 973 q 409 854 395 904 q 423 737 423 805 q 423 715 423 726 q 422 695 422 705 q 426 609 422 644 q 437 554 429 575 q 459 525 446 534 q 491 517 472 517 l 491 385 q 459 376 472 385 q 437 346 446 368 q 426 289 429 325 q 422 199 422 253 l 422 163 q 408 48 422 96 q 372 -35 395 -1 q 318 -92 349 -70 q 253 -125 288 -113 q 183 -142 219 -138 q 115 -146 148 -146 l 115 -13 q 145 -7 133 -13 q 166 20 158 -2 q 178 86 174 42 q 181 208 181 131 q 211 365 181 304 q 306 451 240 425 q 264 471 286 458 q 224 510 242 484 q 194 576 205 535 q 182 681 182 618 z "},"~":{"ha":867,"x_min":130,"x_max":758,"o":"m 593 136 q 524 147 558 136 q 461 175 490 158 q 425 197 444 185 q 386 219 405 209 q 349 237 366 230 q 320 243 332 243 q 289 224 299 243 q 279 155 279 204 l 130 155 q 170 336 130 275 q 292 397 210 397 q 349 390 323 397 q 397 371 375 382 q 440 347 420 360 q 479 322 460 334 q 517 304 498 311 q 558 296 536 296 q 578 299 570 296 q 591 310 586 302 q 597 331 595 317 q 599 368 599 345 l 758 368 q 746 273 758 316 q 713 199 734 230 q 661 152 692 169 q 593 136 631 136 z "}," ":{"ha":472,"x_min":0,"x_max":0,"o":""},"¡":{"ha":555,"x_min":116,"x_max":435,"o":"m 435 -1 l 116 -1 l 202 739 l 353 739 l 435 -1 m 143 936 q 154 989 143 963 q 182 1034 164 1015 q 226 1065 201 1053 q 279 1077 251 1077 q 334 1066 308 1077 q 378 1036 359 1055 q 409 991 397 1017 q 420 936 420 965 q 409 881 420 907 q 379 836 398 855 q 335 804 361 816 q 279 793 309 793 q 225 805 250 793 q 182 836 200 817 q 153 882 163 856 q 143 936 143 908 z "},"¢":{"ha":766,"x_min":50,"x_max":730,"o":"m 308 411 q 435 174 308 216 l 435 653 q 365 618 390 644 q 327 558 340 592 q 311 485 315 524 q 308 411 308 446 m 435 -9 q 285 22 355 -6 q 163 103 215 51 q 80 233 111 156 q 50 411 50 310 q 83 589 50 511 q 170 719 116 666 q 293 800 224 772 q 435 830 362 828 l 435 968 l 553 968 l 553 824 q 603 813 580 819 q 646 800 625 807 q 687 783 667 792 q 730 762 707 774 l 684 597 q 667 611 680 604 q 636 626 654 618 q 596 641 618 633 q 553 652 575 648 l 553 165 q 594 175 572 165 q 637 195 617 184 q 670 214 657 205 l 683 224 l 730 62 q 713 52 730 62 q 671 29 697 41 q 614 7 646 17 q 553 -3 583 -3 l 553 -102 l 435 -102 l 435 -9 z "},"£":{"ha":848,"x_min":133,"x_max":766,"o":"m 133 162 q 158 199 142 173 q 191 258 175 224 q 220 328 208 291 q 232 399 232 366 l 148 399 l 148 501 l 216 501 q 203 511 216 500 q 176 545 191 523 q 149 598 161 567 q 137 667 137 629 q 158 769 137 722 q 219 851 178 816 q 320 906 260 886 q 460 926 380 926 q 583 915 530 926 q 675 887 637 903 q 736 857 713 871 q 766 836 759 842 l 673 672 q 649 691 665 680 q 610 712 633 703 q 558 728 587 722 q 494 735 529 735 q 427 725 451 735 q 390 699 402 715 q 375 666 378 684 q 372 632 372 648 q 383 577 372 607 q 426 506 394 547 l 708 506 l 708 399 l 440 399 q 432 329 440 361 q 413 271 425 297 q 388 225 401 245 q 363 192 375 205 q 344 172 352 179 q 336 166 336 165 l 336 167 l 748 167 l 748 0 l 133 0 l 133 162 z "},"¤":{"ha":980,"x_min":100,"x_max":902,"o":"m 237 512 q 188 677 188 587 q 243 854 188 771 l 100 996 l 191 1086 l 334 944 q 512 1000 414 1000 q 676 951 602 1000 l 812 1086 l 902 996 l 766 859 q 810 702 810 787 q 755 523 810 605 l 902 376 l 812 284 l 663 433 q 487 378 582 378 q 330 422 402 378 l 191 284 l 100 376 l 237 512 m 507 873 q 434 858 469 873 q 372 816 399 842 q 329 755 345 790 q 313 683 313 721 q 329 612 313 645 q 370 555 344 579 q 429 516 395 530 q 498 503 462 503 q 569 519 535 503 q 628 562 602 535 q 669 623 654 589 q 684 694 684 658 q 669 764 684 731 q 630 821 654 796 q 573 859 605 845 q 507 873 541 873 z "},"¥":{"ha":895,"x_min":-35,"x_max":928,"o":"m 646 1104 l 928 1104 l 663 546 l 800 546 l 800 461 l 620 461 l 572 368 l 800 368 l 800 282 l 571 282 l 571 0 l 317 0 l 317 282 l 88 282 l 88 368 l 315 368 l 269 461 l 88 461 l 88 546 l 227 546 l -35 1104 l 242 1104 l 444 570 l 646 1104 z "},"¦":{"ha":536,"x_min":156,"x_max":380,"o":"m 156 1174 l 380 1174 l 380 648 l 156 648 l 156 1174 m 156 414 l 380 414 l 380 -113 l 156 -113 l 156 414 z "},"§":{"ha":782,"x_min":64,"x_max":699,"o":"m 378 457 q 476 474 446 457 q 507 524 507 491 q 503 550 507 537 q 485 572 498 562 q 446 588 471 582 q 379 593 421 593 q 309 587 334 593 q 271 571 283 581 q 256 549 259 561 q 253 525 253 536 q 281 474 253 490 q 378 457 310 457 m 605 848 q 594 854 604 848 q 568 870 585 861 q 529 890 551 880 q 481 910 507 901 q 430 926 456 920 q 378 932 403 932 q 308 926 333 932 q 271 913 283 921 q 257 896 259 905 q 254 880 254 887 q 255 867 254 874 q 264 851 256 860 q 291 831 273 842 q 343 808 309 820 q 483 756 425 780 q 581 710 541 732 q 643 667 620 688 q 678 623 666 646 q 694 575 690 600 q 697 519 697 549 q 689 468 697 494 q 666 420 682 442 q 627 380 651 397 q 572 353 604 363 q 633 315 609 337 q 672 267 658 292 q 693 214 687 241 q 699 161 699 186 q 684 72 699 109 q 645 7 670 34 q 588 -36 621 -19 q 518 -61 555 -52 q 442 -74 481 -71 q 366 -77 403 -77 q 292 -69 329 -77 q 221 -49 254 -61 q 158 -22 187 -37 q 109 4 130 -7 q 76 24 87 16 q 65 31 64 32 l 134 188 q 145 181 135 188 q 171 164 155 174 q 210 141 188 153 q 257 119 232 130 q 309 102 282 109 q 360 95 335 95 q 503 176 503 95 q 497 207 503 194 q 481 229 492 219 q 450 248 469 239 q 401 267 430 256 l 290 304 q 175 352 219 329 q 108 403 132 376 q 76 463 84 430 q 68 539 68 496 q 74 583 68 558 q 96 630 81 607 q 135 674 111 654 q 196 705 159 694 q 100 773 133 726 q 68 891 68 821 q 82 964 68 926 q 132 1034 97 1002 q 225 1086 167 1065 q 370 1106 283 1106 q 448 1098 410 1106 q 520 1077 486 1089 q 582 1049 554 1064 q 631 1023 610 1035 q 662 1002 651 1010 q 671 995 672 994 l 605 848 z "},"¨":{"ha":892,"x_min":67,"x_max":833,"o":"m 67 281 q 78 336 67 311 q 108 381 89 362 q 153 411 127 400 q 208 422 178 422 q 263 411 237 422 q 309 381 290 400 q 340 336 328 362 q 351 281 351 311 q 340 225 351 251 q 309 180 328 199 q 263 150 290 161 q 208 139 237 139 q 152 150 178 139 q 107 180 125 161 q 78 225 88 199 q 67 281 67 251 m 549 281 q 559 336 549 311 q 590 381 570 362 q 634 411 609 400 q 690 422 660 422 q 745 411 719 422 q 790 381 771 400 q 821 336 810 362 q 833 281 833 311 q 821 225 833 251 q 790 180 810 199 q 745 150 771 161 q 690 139 719 139 q 633 150 659 139 q 588 180 607 161 q 559 225 570 199 q 549 281 549 251 z "},"©":{"ha":1455,"x_min":92,"x_max":1388,"o":"m 726 71 q 920 107 832 71 q 1070 209 1007 144 q 1167 360 1133 273 q 1201 545 1201 446 q 1182 684 1201 619 q 1131 801 1164 748 q 1054 895 1099 854 q 959 964 1010 936 q 852 1007 907 993 q 741 1022 796 1022 q 629 1007 685 1022 q 522 965 573 993 q 426 895 471 937 q 349 801 382 854 q 298 684 317 748 q 279 545 279 620 q 309 360 279 446 q 395 209 338 273 q 535 107 452 144 q 726 71 618 71 m 600 547 q 611 446 600 486 q 644 381 623 406 q 694 347 665 357 q 758 336 723 336 q 795 339 776 336 q 839 349 815 342 q 894 370 863 357 q 965 404 924 383 l 965 244 q 906 216 933 228 q 854 198 878 205 q 808 188 829 191 q 766 184 787 184 q 650 200 701 184 q 562 242 599 215 q 499 304 524 269 q 458 381 473 340 q 436 466 443 422 q 429 554 429 511 q 453 699 429 634 q 519 811 476 764 q 621 882 562 857 q 753 907 681 907 q 805 903 777 907 q 862 890 834 898 q 916 872 890 882 q 959 851 941 862 l 959 697 q 847 742 899 728 q 751 755 795 755 q 674 736 704 755 q 628 687 645 718 q 606 620 612 657 q 600 547 600 583 m 732 -100 q 563 -79 644 -100 q 410 -18 481 -58 q 281 79 339 22 q 180 208 222 136 q 115 366 138 280 q 92 548 92 452 q 116 731 92 645 q 183 888 140 817 q 287 1017 227 960 q 418 1113 347 1074 q 572 1173 490 1152 q 741 1194 654 1194 q 904 1173 824 1194 q 1057 1113 985 1152 q 1189 1017 1128 1074 q 1294 888 1250 960 q 1363 731 1338 817 q 1388 548 1388 645 q 1363 366 1388 452 q 1295 208 1339 280 q 1191 79 1251 136 q 1057 -18 1130 22 q 901 -79 984 -58 q 732 -100 819 -100 z "},"ª":{"ha":879,"x_min":140,"x_max":651,"o":"m 554 562 q 543 545 553 562 q 510 507 533 528 q 449 470 487 487 q 355 453 411 453 q 265 466 304 453 q 197 505 225 479 q 155 567 170 530 q 140 651 140 604 q 157 738 140 700 q 207 801 175 775 q 284 840 239 827 q 383 853 329 853 q 440 850 412 853 q 491 842 469 846 q 527 832 513 837 q 542 826 541 828 l 542 865 q 537 935 542 905 q 519 985 533 965 q 480 1016 505 1006 q 412 1026 454 1026 q 336 1019 372 1026 q 274 1002 300 1011 q 231 986 247 994 q 214 979 215 979 l 178 1053 q 197 1062 179 1053 q 245 1082 214 1071 q 317 1102 275 1093 q 406 1111 358 1111 q 522 1096 475 1111 q 598 1048 569 1081 q 639 963 627 1015 q 651 838 651 911 l 651 465 l 572 465 l 554 562 m 542 774 q 477 782 507 779 q 422 785 448 785 q 249 659 249 785 q 256 598 249 623 q 278 558 262 574 q 318 536 293 543 q 380 530 343 530 q 448 542 418 530 q 498 570 477 555 q 531 598 519 585 q 542 612 542 611 l 542 774 m 183 390 l 647 390 l 647 302 l 183 302 l 183 390 z "},"«":{"ha":1314,"x_min":65,"x_max":1219,"o":"m 886 406 l 1219 199 l 1219 -46 l 642 316 l 642 490 l 1219 851 l 1219 606 l 886 406 m 310 406 l 643 199 l 643 -46 l 65 316 l 65 490 l 643 851 l 643 606 l 310 406 z "},"¬":{"ha":751,"x_min":42,"x_max":715,"o":"m 42 380 l 42 570 l 715 570 l 715 153 l 580 153 l 580 380 l 42 380 z "},"­":{"ha":802,"x_min":110,"x_max":688,"o":"m 110 406 l 110 599 l 688 599 l 688 406 l 110 406 z "},"®":{"ha":959,"x_min":4,"x_max":960,"o":"m 4 863 q 20 981 4 923 q 66 1089 36 1038 q 138 1182 96 1139 q 234 1255 180 1224 q 349 1302 287 1285 q 482 1319 412 1319 q 608 1303 547 1319 q 723 1259 669 1288 q 820 1188 776 1230 q 895 1097 863 1147 q 943 987 926 1046 q 960 863 960 928 q 944 743 960 801 q 898 634 928 685 q 825 541 868 583 q 729 469 782 499 q 614 422 676 439 q 482 406 551 406 q 295 440 382 406 q 143 537 208 475 q 41 682 79 598 q 4 863 4 765 m 481 503 q 629 531 562 503 q 745 607 696 559 q 821 721 793 656 q 848 861 848 786 q 821 1003 848 937 q 745 1117 793 1068 q 629 1193 696 1165 q 481 1220 562 1220 q 334 1193 401 1220 q 218 1117 267 1165 q 142 1002 170 1068 q 115 861 115 937 q 142 719 115 784 q 217 605 169 653 q 333 530 266 557 q 481 503 401 503 m 456 895 q 538 909 511 895 q 566 965 566 923 q 561 994 566 982 q 541 1012 555 1005 q 500 1021 526 1019 q 431 1024 474 1024 l 431 901 l 463 901 q 456 895 456 901 m 585 610 l 455 821 l 427 821 l 427 629 l 333 629 l 333 1103 l 428 1103 q 521 1097 479 1103 q 594 1076 564 1090 q 643 1036 625 1061 q 660 972 660 1010 q 654 924 660 944 q 635 888 648 903 q 599 861 621 872 q 544 839 576 849 l 677 655 l 585 610 z "},"¯":{"ha":680,"x_min":66,"x_max":529,"o":"m 66 146 l 529 146 l 529 66 l 66 66 l 66 146 z "},"°":{"ha":577,"x_min":17,"x_max":559,"o":"m 166 722 q 176 675 166 696 q 202 637 186 653 q 241 612 219 621 q 288 603 263 603 q 334 612 312 603 q 374 637 357 621 q 400 675 391 653 q 410 722 410 696 q 400 770 410 748 q 373 807 390 791 q 334 832 356 823 q 288 842 312 842 q 240 832 262 842 q 202 806 218 823 q 176 768 185 790 q 166 722 166 747 m 289 973 q 392 954 342 973 q 478 901 441 935 q 537 821 515 867 q 559 719 559 774 q 535 617 559 663 q 473 539 512 571 q 384 489 434 507 q 281 471 334 471 q 180 491 228 471 q 96 546 132 511 q 38 627 60 581 q 17 726 17 673 q 40 826 17 781 q 101 904 63 871 q 189 955 140 937 q 289 973 237 973 z "},"±":{"ha":793,"x_min":123,"x_max":720,"o":"m 140 4 l 140 170 l 703 170 l 703 4 l 140 4 m 527 553 l 527 305 l 315 305 l 315 553 l 123 553 l 123 750 l 315 750 l 315 996 l 527 996 l 527 750 l 720 750 l 720 553 l 527 553 z "},"²":{"ha":764,"x_min":172,"x_max":623,"o":"m 172 546 l 355 709 q 431 779 401 749 q 477 831 460 808 q 500 874 494 854 q 507 918 507 895 q 474 991 507 966 q 384 1017 441 1017 q 316 1012 351 1017 q 252 1000 281 1006 q 183 982 217 992 l 183 1076 q 240 1093 208 1086 q 306 1105 268 1100 q 391 1111 344 1111 q 503 1092 458 1111 q 575 1044 548 1073 q 612 982 602 1016 q 623 920 623 949 q 615 859 623 888 q 588 801 607 830 q 537 739 569 771 q 458 666 506 706 l 329 556 l 604 556 l 604 453 l 172 453 l 172 546 z "},"³":{"ha":819,"x_min":203,"x_max":690,"o":"m 238 505 q 276 488 255 497 q 320 472 296 479 q 372 460 345 465 q 428 456 399 456 q 488 465 460 456 q 535 489 515 473 q 566 528 555 505 q 577 578 577 551 q 534 680 577 642 q 399 727 492 717 l 399 819 q 460 826 431 819 q 513 847 490 833 q 550 885 536 862 q 564 938 564 907 q 527 1017 564 989 q 412 1045 490 1045 q 372 1042 393 1045 q 330 1034 351 1039 q 289 1021 309 1028 q 254 1006 270 1014 l 222 1093 q 239 1100 223 1093 q 281 1116 255 1107 q 342 1131 308 1124 q 416 1137 377 1137 q 469 1134 441 1137 q 526 1121 498 1130 q 580 1099 554 1113 q 625 1063 606 1084 q 657 1013 645 1042 q 669 945 669 983 q 650 865 669 898 q 605 812 631 833 q 550 783 578 792 q 503 774 522 774 q 540 765 519 771 q 582 748 561 758 q 622 721 602 737 q 656 683 642 705 q 681 632 671 661 q 690 566 690 604 q 666 476 690 514 q 604 414 642 438 q 519 378 566 389 q 426 366 472 366 q 309 379 364 366 q 203 419 254 392 l 238 505 z "},"´":{"ha":768,"x_min":282,"x_max":652,"o":"m 282 200 l 427 630 l 652 524 l 399 145 l 282 200 z "},"µ":{"ha":895,"x_min":125,"x_max":791,"o":"m 125 793 l 243 793 l 243 300 q 414 83 243 83 q 502 96 462 83 q 573 126 542 109 q 623 161 604 144 q 650 186 643 178 l 650 793 l 791 793 l 791 11 l 692 11 l 675 115 q 406 -14 559 -14 q 349 -4 375 -14 q 303 19 323 5 q 268 48 283 33 q 243 77 253 64 l 243 -197 l 125 -197 l 125 793 z "},"¶":{"ha":1019,"x_min":52,"x_max":913,"o":"m 913 0 l 729 0 l 729 1000 l 635 1000 l 635 0 l 448 0 l 448 485 q 346 491 396 485 q 252 512 296 498 q 171 551 208 527 q 108 610 134 574 q 66 693 81 645 q 52 803 52 741 q 70 917 52 869 q 120 998 89 964 q 194 1053 152 1031 q 284 1085 237 1074 q 381 1101 332 1097 q 479 1105 431 1105 l 913 1105 l 913 0 z "},"·":{"ha":442,"x_min":68,"x_max":377,"o":"m 68 498 q 80 557 68 529 q 113 606 92 585 q 161 640 134 627 q 221 652 189 652 q 282 640 254 652 q 331 606 310 627 q 365 557 353 585 q 377 498 377 529 q 365 438 377 466 q 331 389 353 410 q 282 355 310 368 q 221 343 254 343 q 161 355 189 343 q 112 389 133 368 q 80 438 92 410 q 68 498 68 466 z "},"¸":{"ha":467,"x_min":50,"x_max":408,"o":"m 50 -336 q 93 -351 71 -345 q 135 -361 112 -357 q 182 -366 159 -366 q 215 -363 199 -366 q 242 -353 231 -361 q 261 -331 254 -345 q 269 -294 269 -317 q 223 -218 269 -241 q 86 -195 177 -195 l 101 13 l 185 13 l 176 -113 q 221 -117 196 -113 q 271 -130 245 -121 q 321 -152 297 -138 q 365 -186 346 -165 q 396 -233 385 -206 q 408 -294 408 -260 q 394 -368 408 -335 q 352 -424 379 -401 q 288 -459 326 -447 q 203 -472 250 -472 q 138 -466 166 -472 q 90 -452 109 -460 q 60 -439 70 -445 q 50 -433 50 -433 l 50 -336 z "},"¹":{"ha":502,"x_min":81,"x_max":336,"o":"m 222 884 l 106 836 l 81 912 l 241 977 l 336 959 l 336 324 l 222 324 l 222 884 z "},"º":{"ha":851,"x_min":145,"x_max":721,"o":"m 433 454 q 306 480 359 454 q 216 549 252 505 q 163 653 180 593 q 145 781 145 713 q 162 908 145 848 q 215 1013 180 968 q 305 1084 251 1058 q 433 1111 359 1111 q 561 1084 507 1111 q 651 1013 615 1058 q 704 908 686 968 q 721 781 721 848 q 704 654 721 713 q 651 550 686 595 q 561 480 615 506 q 433 454 507 454 m 433 541 q 516 558 481 541 q 572 609 550 576 q 604 685 593 641 q 614 783 614 730 q 604 879 614 834 q 572 956 593 923 q 516 1007 550 988 q 433 1025 481 1025 q 350 1007 384 1025 q 294 956 315 989 q 262 879 272 924 q 252 783 252 835 q 262 686 252 730 q 294 609 272 642 q 350 559 315 577 q 433 541 384 541 m 203 390 l 667 390 l 667 302 l 203 302 l 203 390 z "},"»":{"ha":1347,"x_min":119,"x_max":1274,"o":"m 119 851 l 697 490 l 697 316 l 119 -46 l 119 199 l 459 406 l 119 606 l 119 851 m 696 851 l 1274 490 l 1274 316 l 696 -46 l 696 199 l 1036 406 l 696 606 l 696 851 z "},"¼":{"ha":1394,"x_min":35,"x_max":1324,"o":"m 1050 222 l 1050 412 l 941 222 l 1050 222 m 1227 683 l 1227 223 l 1324 223 l 1324 71 l 1227 71 l 1227 -79 l 1050 -79 l 1050 71 l 741 71 l 717 188 l 1078 722 l 1227 683 m 800 1091 l 965 1034 l 488 -74 l 328 -20 l 800 1091 m 175 769 l 90 732 l 35 871 l 239 951 l 367 922 l 367 277 l 175 277 l 175 769 z "},"½":{"ha":1466,"x_min":32,"x_max":1405,"o":"m 1213 522 q 1194 582 1213 562 q 1130 601 1175 601 q 1094 596 1115 601 q 1048 583 1073 591 q 996 564 1023 575 q 941 541 968 553 l 886 677 q 950 703 919 690 q 1014 727 982 717 q 1077 745 1045 738 q 1143 751 1109 751 q 1236 742 1190 751 q 1321 709 1283 732 q 1382 647 1358 686 q 1405 551 1405 609 q 1398 489 1405 517 q 1374 431 1391 460 q 1330 373 1357 403 q 1263 307 1303 343 l 1187 239 l 1389 239 l 1389 85 l 904 85 l 904 210 q 999 290 952 250 q 1095 371 1046 330 q 1125 395 1105 380 q 1164 430 1145 410 q 1198 473 1183 450 q 1213 522 1213 496 m 171 769 l 87 732 l 32 871 l 235 951 l 363 922 l 363 277 l 171 277 l 171 769 m 798 1091 l 963 1034 l 486 -74 l 326 -20 l 798 1091 z "},"¾":{"ha":1487,"x_min":48,"x_max":1430,"o":"m 1170 222 l 1170 419 l 1039 222 l 1170 222 m 1333 683 l 1333 221 l 1430 221 l 1430 71 l 1333 71 l 1333 -79 l 1171 -79 l 1171 71 l 846 71 l 822 188 l 1183 722 l 1333 683 m 905 1091 l 1070 1034 l 593 -74 l 433 -20 l 905 1091 m 361 838 q 337 882 361 868 q 274 896 313 896 q 241 893 260 896 q 201 884 222 890 q 158 872 180 879 q 115 857 136 865 l 48 989 q 86 1008 64 998 q 135 1027 108 1019 q 193 1041 161 1036 q 258 1047 224 1047 q 374 1036 322 1047 q 464 1000 427 1025 q 521 934 500 975 q 541 833 541 893 q 534 786 541 810 q 514 741 528 762 q 480 704 500 720 q 434 681 460 688 q 486 656 463 673 q 526 616 509 639 q 552 566 543 593 q 561 513 561 539 q 538 404 561 448 q 475 331 515 359 q 378 290 434 302 q 256 277 322 277 q 210 280 237 277 q 154 287 182 282 q 101 298 126 292 q 62 314 76 305 l 109 460 q 122 455 109 460 q 157 444 135 450 q 207 432 179 437 q 263 427 235 427 q 346 445 319 427 q 374 509 374 463 q 360 553 374 534 q 323 585 346 572 q 270 604 300 597 q 208 610 240 610 l 208 753 q 265 757 238 753 q 313 771 292 762 q 347 798 334 781 q 361 838 359 814 z "},"¿":{"ha":807,"x_min":72,"x_max":784,"o":"m 646 916 q 636 858 646 884 q 606 814 625 832 q 561 786 587 795 q 505 776 535 776 q 447 787 473 776 q 404 817 422 798 q 377 863 387 836 q 368 921 368 889 q 379 979 368 953 q 409 1023 390 1004 q 454 1051 428 1041 q 509 1061 479 1061 q 564 1050 539 1061 q 608 1021 589 1039 q 636 978 626 1002 q 646 926 646 953 l 646 916 m 318 218 q 333 161 318 182 q 371 131 347 141 q 427 120 395 121 q 491 118 458 118 q 540 121 513 118 q 592 130 566 125 q 643 142 618 136 q 685 154 667 149 q 715 163 704 159 q 726 168 726 167 l 784 -17 q 709 -48 746 -36 q 634 -68 673 -61 q 554 -78 595 -75 q 468 -81 513 -81 q 309 -65 382 -81 q 184 -16 237 -50 q 101 74 131 18 q 72 208 72 129 q 74 248 72 224 q 87 300 77 272 q 118 361 98 329 q 176 424 139 393 q 269 483 213 454 q 404 534 324 512 l 404 705 l 637 705 l 637 423 q 577 404 611 414 q 508 380 543 393 q 438 352 473 368 q 377 317 404 337 q 334 273 351 298 q 318 218 318 249 z "},"À":{"ha":1057,"x_min":18,"x_max":1038,"o":"m 669 1105 l 1038 0 l 768 0 l 692 243 l 365 243 l 288 0 l 18 0 l 382 1105 l 669 1105 m 399 367 l 669 367 l 533 774 l 399 367 m 356 1630 l 579 1735 l 725 1306 l 609 1251 l 356 1630 z "},"Á":{"ha":1057,"x_min":18,"x_max":1038,"o":"m 669 1105 l 1038 0 l 768 0 l 692 243 l 365 243 l 288 0 l 18 0 l 382 1105 l 669 1105 m 399 367 l 669 367 l 533 774 l 399 367 m 433 1303 l 578 1733 l 802 1628 l 550 1249 l 433 1303 z "},"Â":{"ha":1057,"x_min":18,"x_max":1038,"o":"m 669 1105 l 1038 0 l 768 0 l 692 243 l 365 243 l 288 0 l 18 0 l 382 1105 l 669 1105 m 399 367 l 669 367 l 533 774 l 399 367 m 626 1685 l 805 1248 l 603 1248 l 532 1518 l 459 1242 l 259 1242 l 438 1685 l 626 1685 z "},"Ã":{"ha":1057,"x_min":18,"x_max":1038,"o":"m 669 1105 l 1038 0 l 768 0 l 692 243 l 365 243 l 288 0 l 18 0 l 382 1105 l 669 1105 m 399 367 l 669 367 l 533 774 l 399 367 m 683 1248 q 610 1260 650 1248 q 530 1295 571 1273 q 492 1315 511 1305 q 458 1333 474 1325 q 429 1344 442 1340 q 406 1349 416 1349 q 389 1345 397 1349 q 375 1332 381 1341 q 365 1308 369 1323 q 361 1267 361 1292 l 212 1267 q 376 1510 212 1510 q 420 1506 399 1510 q 459 1496 441 1502 q 495 1483 478 1491 q 529 1468 512 1476 q 568 1450 549 1459 q 605 1433 588 1440 q 637 1420 623 1425 q 661 1415 651 1415 q 670 1417 666 1415 q 676 1426 674 1419 q 680 1445 679 1432 q 682 1480 682 1458 l 840 1480 q 800 1307 840 1366 q 683 1248 760 1248 z "},"Ä":{"ha":1057,"x_min":18,"x_max":1038,"o":"m 669 1105 l 1038 0 l 768 0 l 692 243 l 365 243 l 288 0 l 18 0 l 382 1105 l 669 1105 m 399 367 l 669 367 l 533 774 l 399 367 m 148 1390 q 159 1446 148 1420 q 189 1491 170 1472 q 233 1520 208 1510 q 289 1531 259 1531 q 344 1520 318 1531 q 390 1491 370 1510 q 420 1446 409 1472 q 432 1390 432 1420 q 420 1335 432 1360 q 390 1290 409 1309 q 344 1259 370 1270 q 289 1249 318 1249 q 232 1260 258 1249 q 188 1290 206 1271 q 158 1335 169 1309 q 148 1390 148 1360 m 629 1390 q 640 1446 629 1420 q 670 1491 651 1472 q 715 1520 690 1510 q 770 1531 741 1531 q 826 1520 800 1531 q 871 1491 852 1510 q 902 1446 890 1472 q 913 1390 913 1420 q 902 1335 913 1360 q 871 1290 890 1309 q 826 1259 852 1270 q 770 1249 800 1249 q 714 1260 740 1249 q 669 1290 688 1271 q 640 1335 650 1309 q 629 1390 629 1360 z "},"Å":{"ha":1057,"x_min":18,"x_max":1038,"o":"m 669 1105 l 1038 0 l 768 0 l 692 243 l 365 243 l 288 0 l 18 0 l 382 1105 l 669 1105 m 399 367 l 669 367 l 533 774 l 399 367 m 406 1493 q 416 1444 406 1467 q 444 1404 426 1421 q 485 1378 461 1388 q 534 1369 508 1369 q 583 1378 560 1369 q 624 1404 606 1388 q 652 1444 642 1421 q 662 1493 662 1467 q 651 1544 662 1520 q 623 1584 641 1567 q 583 1610 606 1600 q 534 1620 559 1620 q 484 1610 507 1620 q 443 1583 460 1600 q 416 1543 426 1566 q 406 1493 406 1520 m 534 1739 q 635 1721 587 1739 q 719 1669 683 1702 q 777 1590 755 1636 q 798 1491 798 1545 q 775 1391 798 1436 q 714 1315 752 1346 q 627 1266 675 1283 q 526 1249 578 1249 q 428 1269 475 1249 q 347 1322 382 1289 q 291 1401 311 1356 q 270 1498 270 1447 q 292 1594 270 1550 q 352 1671 315 1638 q 436 1721 389 1703 q 534 1739 484 1739 z "},"Æ":{"ha":1374,"x_min":18,"x_max":1327,"o":"m 585 932 l 393 366 l 585 366 l 585 932 m 1321 939 l 851 939 l 851 661 l 1255 661 l 1255 518 l 851 518 l 851 166 l 1327 166 l 1327 0 l 585 0 l 585 243 l 360 243 l 280 0 l 18 0 l 438 1105 l 1321 1105 l 1321 939 z "},"Ç":{"ha":921,"x_min":72,"x_max":895,"o":"m 340 549 q 402 268 340 360 q 585 176 463 176 q 703 193 645 176 q 821 252 760 210 l 893 62 q 839 30 873 45 q 763 4 806 15 q 668 -13 720 -7 q 559 -19 616 -19 q 356 19 446 -19 q 203 130 266 57 q 106 311 140 203 q 72 556 72 418 q 105 804 72 697 q 202 981 139 910 q 355 1088 265 1053 q 559 1124 446 1124 q 642 1120 598 1124 q 730 1106 686 1116 q 817 1080 774 1097 q 895 1039 859 1064 l 821 849 q 754 888 785 872 q 693 912 723 903 q 636 926 664 922 q 578 930 608 930 q 473 908 517 930 q 398 841 428 887 q 355 723 369 795 q 340 549 340 650 m 482 -333 q 525 -349 503 -342 q 567 -359 544 -354 q 614 -363 591 -363 q 647 -361 631 -363 q 674 -350 663 -358 q 693 -328 686 -342 q 701 -292 701 -314 q 655 -215 701 -239 q 518 -192 609 -192 l 533 16 l 617 16 l 608 -111 q 653 -114 628 -111 q 703 -127 677 -118 q 753 -149 729 -136 q 797 -183 778 -163 q 828 -230 817 -203 q 840 -292 840 -257 q 826 -365 840 -332 q 784 -421 811 -398 q 720 -457 758 -444 q 635 -469 682 -469 q 570 -463 598 -469 q 522 -450 541 -457 q 492 -436 502 -442 q 482 -430 481 -430 l 482 -333 z "},"È":{"ha":920,"x_min":107,"x_max":870,"o":"m 107 0 l 107 1105 l 864 1105 l 864 935 l 377 935 l 377 654 l 801 654 l 801 488 l 377 488 l 377 166 l 870 166 l 870 0 l 107 0 m 313 1633 l 536 1738 l 682 1310 l 566 1254 l 313 1633 z "},"É":{"ha":920,"x_min":107,"x_max":870,"o":"m 107 0 l 107 1105 l 864 1105 l 864 935 l 377 935 l 377 654 l 801 654 l 801 488 l 377 488 l 377 166 l 870 166 l 870 0 l 107 0 m 390 1307 l 535 1737 l 760 1631 l 507 1252 l 390 1307 z "},"Ê":{"ha":920,"x_min":107,"x_max":870,"o":"m 107 0 l 107 1105 l 864 1105 l 864 935 l 377 935 l 377 654 l 801 654 l 801 488 l 377 488 l 377 166 l 870 166 l 870 0 l 107 0 m 583 1688 l 762 1251 l 560 1251 l 489 1521 l 416 1246 l 216 1246 l 395 1688 l 583 1688 z "},"Ë":{"ha":920,"x_min":105,"x_max":871,"o":"m 107 0 l 107 1105 l 864 1105 l 864 935 l 377 935 l 377 654 l 801 654 l 801 488 l 377 488 l 377 166 l 870 166 l 870 0 l 107 0 m 105 1393 q 116 1449 105 1423 q 146 1493 127 1474 q 191 1523 165 1512 q 246 1534 216 1534 q 301 1523 275 1534 q 347 1493 328 1512 q 378 1449 366 1474 q 389 1393 389 1423 q 378 1337 389 1363 q 347 1292 366 1312 q 301 1262 328 1273 q 246 1251 275 1251 q 190 1262 216 1251 q 145 1293 163 1274 q 116 1337 126 1312 q 105 1393 105 1363 m 587 1393 q 597 1449 587 1423 q 628 1493 608 1474 q 672 1523 647 1512 q 728 1534 698 1534 q 783 1523 757 1534 q 828 1493 809 1512 q 859 1449 848 1474 q 871 1393 871 1423 q 859 1337 871 1363 q 828 1292 848 1312 q 783 1262 809 1273 q 728 1251 757 1251 q 671 1262 697 1251 q 626 1293 645 1274 q 597 1337 608 1312 q 587 1393 587 1363 z "},"Ì":{"ha":611,"x_min":52,"x_max":558,"o":"m 169 123 l 169 982 l 52 982 l 52 1105 l 558 1105 l 558 982 l 440 982 l 440 123 l 558 123 l 558 0 l 52 0 l 52 123 l 169 123 m 124 1640 l 347 1745 l 493 1316 l 377 1261 l 124 1640 z "},"Í":{"ha":611,"x_min":52,"x_max":571,"o":"m 169 123 l 169 982 l 52 982 l 52 1105 l 558 1105 l 558 982 l 440 982 l 440 123 l 558 123 l 558 0 l 52 0 l 52 123 l 169 123 m 201 1314 l 347 1744 l 571 1638 l 319 1259 l 201 1314 z "},"Î":{"ha":611,"x_min":28,"x_max":574,"o":"m 169 123 l 169 982 l 52 982 l 52 1105 l 558 1105 l 558 982 l 440 982 l 440 123 l 558 123 l 558 0 l 52 0 l 52 123 l 169 123 m 395 1695 l 574 1258 l 372 1258 l 300 1528 l 228 1253 l 28 1253 l 207 1695 l 395 1695 z "},"Ï":{"ha":611,"x_min":-83,"x_max":682,"o":"m 169 123 l 169 982 l 52 982 l 52 1105 l 558 1105 l 558 982 l 440 982 l 440 123 l 558 123 l 558 0 l 52 0 l 52 123 l 169 123 m -83 1400 q -73 1455 -83 1430 q -43 1500 -62 1481 q 2 1530 -24 1519 q 58 1541 28 1541 q 113 1530 87 1541 q 158 1500 139 1519 q 189 1455 178 1481 q 201 1400 201 1430 q 189 1344 201 1370 q 158 1299 178 1318 q 113 1269 139 1280 q 58 1258 87 1258 q 1 1269 27 1258 q -44 1299 -25 1280 q -73 1344 -62 1318 q -83 1400 -83 1370 m 398 1400 q 409 1455 398 1430 q 439 1500 420 1481 q 484 1530 458 1519 q 539 1541 509 1541 q 594 1530 568 1541 q 640 1500 621 1519 q 671 1455 659 1481 q 682 1400 682 1430 q 671 1344 682 1370 q 640 1299 659 1318 q 594 1269 621 1280 q 539 1258 568 1258 q 483 1269 509 1258 q 438 1299 456 1280 q 409 1344 419 1318 q 398 1400 398 1370 z "},"Ð":{"ha":1107,"x_min":1,"x_max":1034,"o":"m 764 549 q 760 655 764 604 q 745 750 757 706 q 712 830 734 794 q 654 892 690 866 q 565 932 618 918 q 437 946 511 946 l 382 946 l 382 643 l 568 643 l 568 474 l 382 474 l 382 166 l 437 166 q 562 179 509 166 q 651 217 614 193 q 709 275 687 241 q 744 352 732 310 q 760 445 755 395 q 764 549 764 494 m 1034 547 q 1000 312 1034 414 q 894 140 965 210 q 715 36 823 71 q 458 0 606 0 l 112 0 l 112 474 l 1 474 l 1 643 l 112 643 l 112 1105 l 458 1105 q 889 967 745 1105 q 1034 547 1034 829 z "},"Ñ":{"ha":1150,"x_min":107,"x_max":1044,"o":"m 767 0 l 347 730 l 347 0 l 107 0 l 107 1105 l 392 1105 l 805 387 l 805 1105 l 1044 1105 l 1044 0 l 767 0 m 714 1251 q 642 1264 681 1251 q 562 1298 602 1276 q 524 1319 542 1309 q 489 1336 505 1329 q 460 1348 473 1343 q 437 1352 447 1352 q 420 1349 429 1352 q 406 1336 412 1345 q 396 1311 400 1326 q 393 1271 393 1295 l 243 1271 q 407 1513 243 1513 q 451 1509 431 1513 q 491 1500 472 1506 q 526 1487 509 1494 q 560 1472 543 1479 q 600 1453 580 1462 q 636 1436 619 1444 q 668 1423 654 1428 q 692 1419 682 1419 q 701 1421 697 1419 q 708 1429 705 1423 q 711 1449 710 1436 q 713 1484 713 1461 l 871 1484 q 831 1310 871 1369 q 714 1251 791 1251 z "},"Ò":{"ha":1147,"x_min":72,"x_max":1074,"o":"m 1074 552 q 1044 313 1074 418 q 951 133 1013 207 q 795 20 889 60 q 573 -19 701 -19 q 352 20 446 -19 q 195 133 258 59 q 102 312 133 206 q 72 550 72 417 q 103 792 72 685 q 196 972 134 899 q 353 1085 258 1046 q 573 1124 447 1124 q 794 1084 700 1124 q 950 971 888 1045 q 1043 792 1013 898 q 1074 552 1074 686 m 342 554 q 351 409 342 477 q 387 288 361 340 q 457 205 412 236 q 573 175 502 175 q 690 207 645 175 q 761 291 736 238 q 796 412 787 343 q 805 554 805 480 q 795 698 805 630 q 759 818 785 766 q 688 900 733 869 q 572 930 643 930 q 456 899 501 930 q 386 817 412 869 q 351 697 361 765 q 342 554 342 629 m 395 1632 l 618 1737 l 764 1308 l 648 1253 l 395 1632 z "},"Ó":{"ha":1147,"x_min":72,"x_max":1074,"o":"m 1074 552 q 1044 313 1074 418 q 951 133 1013 207 q 795 20 889 60 q 573 -19 701 -19 q 352 20 446 -19 q 195 133 258 59 q 102 312 133 206 q 72 550 72 417 q 103 792 72 685 q 196 972 134 899 q 353 1085 258 1046 q 573 1124 447 1124 q 794 1084 700 1124 q 950 971 888 1045 q 1043 792 1013 898 q 1074 552 1074 686 m 342 554 q 351 409 342 477 q 387 288 361 340 q 457 205 412 236 q 573 175 502 175 q 690 207 645 175 q 761 291 736 238 q 796 412 787 343 q 805 554 805 480 q 795 698 805 630 q 759 818 785 766 q 688 900 733 869 q 572 930 643 930 q 456 899 501 930 q 386 817 412 869 q 351 697 361 765 q 342 554 342 629 m 473 1305 l 618 1735 l 842 1630 l 590 1251 l 473 1305 z "},"Ô":{"ha":1147,"x_min":72,"x_max":1074,"o":"m 1074 552 q 1044 313 1074 418 q 951 133 1013 207 q 795 20 889 60 q 573 -19 701 -19 q 352 20 446 -19 q 195 133 258 59 q 102 312 133 206 q 72 550 72 417 q 103 792 72 685 q 196 972 134 899 q 353 1085 258 1046 q 573 1124 447 1124 q 794 1084 700 1124 q 950 971 888 1045 q 1043 792 1013 898 q 1074 552 1074 686 m 342 554 q 351 409 342 477 q 387 288 361 340 q 457 205 412 236 q 573 175 502 175 q 690 207 645 175 q 761 291 736 238 q 796 412 787 343 q 805 554 805 480 q 795 698 805 630 q 759 818 785 766 q 688 900 733 869 q 572 930 643 930 q 456 899 501 930 q 386 817 412 869 q 351 697 361 765 q 342 554 342 629 m 666 1687 l 845 1250 l 643 1250 l 572 1520 l 499 1244 l 299 1244 l 478 1687 l 666 1687 z "},"Õ":{"ha":1147,"x_min":72,"x_max":1074,"o":"m 1074 552 q 1044 313 1074 418 q 951 133 1013 207 q 795 20 889 60 q 573 -19 701 -19 q 352 20 446 -19 q 195 133 258 59 q 102 312 133 206 q 72 550 72 417 q 103 792 72 685 q 196 972 134 899 q 353 1085 258 1046 q 573 1124 447 1124 q 794 1084 700 1124 q 950 971 888 1045 q 1043 792 1013 898 q 1074 552 1074 686 m 342 554 q 351 409 342 477 q 387 288 361 340 q 457 205 412 236 q 573 175 502 175 q 690 207 645 175 q 761 291 736 238 q 796 412 787 343 q 805 554 805 480 q 795 698 805 630 q 759 818 785 766 q 688 900 733 869 q 572 930 643 930 q 456 899 501 930 q 386 817 412 869 q 351 697 361 765 q 342 554 342 629 m 723 1250 q 650 1262 690 1250 q 570 1297 611 1275 q 532 1317 551 1308 q 498 1335 514 1327 q 469 1347 482 1342 q 446 1351 456 1351 q 429 1347 437 1351 q 415 1334 421 1343 q 405 1310 409 1325 q 401 1270 401 1294 l 252 1270 q 416 1512 252 1512 q 460 1508 439 1512 q 499 1498 481 1504 q 535 1485 518 1493 q 569 1470 552 1478 q 608 1452 589 1461 q 645 1435 628 1442 q 677 1422 663 1427 q 701 1417 691 1417 q 710 1419 706 1417 q 716 1428 714 1421 q 720 1447 719 1434 q 722 1482 722 1460 l 880 1482 q 840 1309 880 1368 q 723 1250 800 1250 z "},"Ö":{"ha":1147,"x_min":72,"x_max":1074,"o":"m 1074 552 q 1044 313 1074 418 q 951 133 1013 207 q 795 20 889 60 q 573 -19 701 -19 q 352 20 446 -19 q 195 133 258 59 q 102 312 133 206 q 72 550 72 417 q 103 792 72 685 q 196 972 134 899 q 353 1085 258 1046 q 573 1124 447 1124 q 794 1084 700 1124 q 950 971 888 1045 q 1043 792 1013 898 q 1074 552 1074 686 m 342 554 q 351 409 342 477 q 387 288 361 340 q 457 205 412 236 q 573 175 502 175 q 690 207 645 175 q 761 291 736 238 q 796 412 787 343 q 805 554 805 480 q 795 698 805 630 q 759 818 785 766 q 688 900 733 869 q 572 930 643 930 q 456 899 501 930 q 386 817 412 869 q 351 697 361 765 q 342 554 342 629 m 187 1392 q 198 1447 187 1421 q 228 1492 209 1473 q 273 1522 247 1511 q 328 1533 298 1533 q 384 1522 357 1533 q 429 1492 410 1511 q 460 1447 448 1473 q 471 1392 471 1421 q 460 1336 471 1362 q 429 1291 448 1310 q 384 1261 410 1272 q 328 1250 357 1250 q 272 1261 298 1250 q 227 1291 245 1272 q 198 1336 208 1310 q 187 1392 187 1362 m 669 1392 q 680 1447 669 1421 q 710 1492 690 1473 q 754 1522 729 1511 q 810 1533 780 1533 q 865 1522 839 1533 q 910 1492 891 1511 q 941 1447 930 1473 q 953 1392 953 1421 q 941 1336 953 1362 q 910 1291 930 1310 q 865 1261 891 1272 q 810 1250 839 1250 q 753 1261 779 1250 q 708 1291 727 1272 q 679 1336 690 1310 q 669 1392 669 1362 z "},"×":{"ha":920,"x_min":141,"x_max":810,"o":"m 274 712 l 475 523 l 676 712 l 810 566 l 618 388 l 810 209 l 676 63 l 475 252 l 274 63 l 141 209 l 332 388 l 141 566 l 274 712 z "},"Ø":{"ha":1147,"x_min":72,"x_max":1074,"o":"m 334 27 q 216 109 266 58 q 135 227 167 159 q 87 377 102 294 q 72 553 72 459 q 101 787 72 682 q 192 967 130 892 q 348 1083 253 1042 q 574 1124 443 1124 q 765 1097 674 1124 l 814 1220 l 908 1189 l 854 1056 q 1019 861 964 988 q 1074 553 1074 733 q 1044 315 1074 421 q 952 135 1014 209 q 796 21 890 60 q 573 -19 702 -19 q 431 -5 487 -19 l 387 -118 l 289 -87 l 334 27 m 507 184 q 544 177 528 178 q 573 175 560 175 q 687 205 642 175 q 758 286 732 235 q 795 407 785 338 q 805 553 805 475 q 796 696 805 631 q 760 818 787 760 l 507 184 m 422 211 q 425 226 425 218 q 420 239 425 235 l 685 901 q 633 922 659 914 q 572 930 607 930 q 461 901 505 930 q 390 822 416 873 q 353 703 363 772 q 342 553 342 634 q 346 452 342 501 q 359 359 350 403 q 384 278 368 315 q 422 211 399 240 z "},"Ù":{"ha":1109,"x_min":98,"x_max":1012,"o":"m 555 175 q 635 186 603 175 q 689 218 668 197 q 720 268 709 239 q 736 334 731 298 q 741 414 741 371 q 742 505 742 457 l 742 1105 l 1012 1105 l 1012 507 q 986 276 1012 375 q 906 112 961 178 q 764 14 851 47 q 555 -19 677 -19 q 346 14 433 -19 q 205 112 260 47 q 124 276 150 178 q 98 507 98 375 l 98 1105 l 369 1105 l 369 505 q 369 414 369 457 q 374 335 370 372 q 389 269 378 298 q 421 218 400 239 q 474 186 441 197 q 555 175 507 175 m 372 1633 l 595 1738 l 741 1310 l 625 1254 l 372 1633 z "},"Ú":{"ha":1109,"x_min":98,"x_max":1012,"o":"m 555 175 q 635 186 603 175 q 689 218 668 197 q 720 268 709 239 q 736 334 731 298 q 741 414 741 371 q 742 505 742 457 l 742 1105 l 1012 1105 l 1012 507 q 986 276 1012 375 q 906 112 961 178 q 764 14 851 47 q 555 -19 677 -19 q 346 14 433 -19 q 205 112 260 47 q 124 276 150 178 q 98 507 98 375 l 98 1105 l 369 1105 l 369 505 q 369 414 369 457 q 374 335 370 372 q 389 269 378 298 q 421 218 400 239 q 474 186 441 197 q 555 175 507 175 m 450 1307 l 595 1737 l 819 1631 l 567 1252 l 450 1307 z "},"Û":{"ha":1109,"x_min":98,"x_max":1012,"o":"m 555 175 q 635 186 603 175 q 689 218 668 197 q 720 268 709 239 q 736 334 731 298 q 741 414 741 371 q 742 505 742 457 l 742 1105 l 1012 1105 l 1012 507 q 986 276 1012 375 q 906 112 961 178 q 764 14 851 47 q 555 -19 677 -19 q 346 14 433 -19 q 205 112 260 47 q 124 276 150 178 q 98 507 98 375 l 98 1105 l 369 1105 l 369 505 q 369 414 369 457 q 374 335 370 372 q 389 269 378 298 q 421 218 400 239 q 474 186 441 197 q 555 175 507 175 m 643 1688 l 822 1251 l 620 1251 l 549 1521 l 476 1246 l 276 1246 l 455 1688 l 643 1688 z "},"Ü":{"ha":1109,"x_min":98,"x_max":1012,"o":"m 555 175 q 635 186 603 175 q 689 218 668 197 q 720 268 709 239 q 736 334 731 298 q 741 414 741 371 q 742 505 742 457 l 742 1105 l 1012 1105 l 1012 507 q 986 276 1012 375 q 906 112 961 178 q 764 14 851 47 q 555 -19 677 -19 q 346 14 433 -19 q 205 112 260 47 q 124 276 150 178 q 98 507 98 375 l 98 1105 l 369 1105 l 369 505 q 369 414 369 457 q 374 335 370 372 q 389 269 378 298 q 421 218 400 239 q 474 186 441 197 q 555 175 507 175 m 164 1393 q 175 1449 164 1423 q 205 1493 186 1474 q 250 1523 224 1512 q 305 1534 275 1534 q 360 1523 334 1534 q 406 1493 387 1512 q 437 1449 425 1474 q 448 1393 448 1423 q 437 1337 448 1363 q 406 1292 425 1312 q 360 1262 387 1273 q 305 1251 334 1251 q 249 1262 275 1251 q 204 1293 222 1274 q 175 1337 185 1312 q 164 1393 164 1363 m 646 1393 q 656 1449 646 1423 q 687 1493 667 1474 q 731 1523 706 1512 q 787 1534 757 1534 q 842 1523 816 1534 q 887 1493 868 1512 q 918 1449 907 1474 q 930 1393 930 1423 q 918 1337 930 1363 q 887 1292 907 1312 q 842 1262 868 1273 q 787 1251 816 1251 q 730 1262 756 1251 q 685 1293 704 1274 q 656 1337 667 1312 q 646 1393 646 1363 z "},"Ý":{"ha":860,"x_min":-51,"x_max":913,"o":"m 639 1105 l 913 1105 l 556 366 l 556 0 l 301 0 l 301 366 l -51 1105 l 218 1105 l 428 649 l 639 1105 m 328 1307 l 473 1737 l 698 1631 l 446 1252 l 328 1307 z "},"Þ":{"ha":932,"x_min":107,"x_max":888,"o":"m 628 526 q 594 713 628 650 q 495 776 560 776 q 436 770 459 776 q 399 755 413 764 q 377 735 385 746 q 363 715 370 725 l 363 336 q 425 280 389 299 q 509 260 461 262 q 559 272 539 260 q 592 306 579 285 q 613 353 606 326 q 623 410 620 380 q 627 470 627 439 q 628 526 628 500 m 562 93 q 363 190 428 93 l 363 -169 l 107 -169 l 107 1105 l 349 1105 l 349 825 q 383 876 361 854 q 431 915 404 899 q 490 939 458 930 q 553 947 521 947 q 697 916 635 947 q 802 827 760 884 q 865 691 844 770 q 888 516 886 612 q 864 335 888 414 q 798 202 841 256 q 695 121 755 149 q 562 93 635 93 z "},"ß":{"ha":1118,"x_min":107,"x_max":1078,"o":"m 484 477 q 483 486 484 480 q 483 507 483 491 q 483 552 483 522 q 483 635 483 583 q 672 673 612 635 q 731 791 731 711 q 725 845 731 820 q 701 890 720 871 q 648 920 682 909 q 555 930 613 930 q 470 917 504 930 q 416 875 436 904 q 387 800 395 846 q 379 686 379 753 l 379 0 l 107 0 l 107 686 q 133 867 107 789 q 214 999 159 946 q 353 1079 269 1052 q 555 1106 438 1106 q 711 1092 645 1106 q 822 1054 777 1078 q 897 999 868 1030 q 941 936 925 968 q 962 870 957 903 q 968 810 968 838 q 955 728 968 768 q 913 657 942 689 q 839 602 885 625 q 728 572 793 580 q 991 473 905 555 q 1078 246 1078 391 q 1055 125 1078 180 q 989 27 1031 70 q 889 -48 947 -16 q 763 -101 831 -80 q 616 -132 694 -122 q 459 -142 539 -142 l 459 63 q 640 89 571 71 q 746 130 708 106 q 796 185 783 155 q 809 250 809 216 q 727 421 809 366 q 484 477 645 477 z "},"à":{"ha":868,"x_min":49,"x_max":777,"o":"m 422 668 q 286 652 348 668 q 161 608 224 637 l 101 759 q 247 818 164 798 q 431 838 330 838 q 588 815 522 838 q 695 745 653 791 q 757 631 737 699 q 777 475 777 564 l 777 0 l 578 0 l 544 103 q 504 48 525 71 q 458 10 483 25 q 402 -12 433 -5 q 335 -18 372 -18 q 215 -1 268 -18 q 125 52 162 17 q 68 137 88 86 q 49 254 49 188 q 75 370 49 321 q 151 450 101 418 q 275 497 201 481 q 443 512 348 512 q 483 511 463 512 q 523 506 503 509 q 520 562 523 533 q 508 614 518 590 q 478 653 498 637 q 422 668 458 668 m 402 154 q 523 220 474 154 l 523 376 q 484 378 500 377 q 465 380 468 380 q 385 373 416 380 q 336 352 354 366 q 312 320 319 339 q 305 276 305 300 q 330 187 305 220 q 402 154 355 154 m 254 1337 l 477 1442 l 623 1013 l 507 958 l 254 1337 z "},"á":{"ha":868,"x_min":49,"x_max":777,"o":"m 422 668 q 286 652 348 668 q 161 608 224 637 l 101 759 q 247 818 164 798 q 431 838 330 838 q 588 815 522 838 q 695 745 653 791 q 757 631 737 699 q 777 475 777 564 l 777 0 l 578 0 l 544 103 q 504 48 525 71 q 458 10 483 25 q 402 -12 433 -5 q 335 -18 372 -18 q 215 -1 268 -18 q 125 52 162 17 q 68 137 88 86 q 49 254 49 188 q 75 370 49 321 q 151 450 101 418 q 275 497 201 481 q 443 512 348 512 q 483 511 463 512 q 523 506 503 509 q 520 562 523 533 q 508 614 518 590 q 478 653 498 637 q 422 668 458 668 m 402 154 q 523 220 474 154 l 523 376 q 484 378 500 377 q 465 380 468 380 q 385 373 416 380 q 336 352 354 366 q 312 320 319 339 q 305 276 305 300 q 330 187 305 220 q 402 154 355 154 m 332 1010 l 477 1440 l 701 1335 l 449 956 l 332 1010 z "},"â":{"ha":868,"x_min":49,"x_max":777,"o":"m 422 668 q 286 652 348 668 q 161 608 224 637 l 101 759 q 247 818 164 798 q 431 838 330 838 q 588 815 522 838 q 695 745 653 791 q 757 631 737 699 q 777 475 777 564 l 777 0 l 578 0 l 544 103 q 504 48 525 71 q 458 10 483 25 q 402 -12 433 -5 q 335 -18 372 -18 q 215 -1 268 -18 q 125 52 162 17 q 68 137 88 86 q 49 254 49 188 q 75 370 49 321 q 151 450 101 418 q 275 497 201 481 q 443 512 348 512 q 483 511 463 512 q 523 506 503 509 q 520 562 523 533 q 508 614 518 590 q 478 653 498 637 q 422 668 458 668 m 402 154 q 523 220 474 154 l 523 376 q 484 378 500 377 q 465 380 468 380 q 385 373 416 380 q 336 352 354 366 q 312 320 319 339 q 305 276 305 300 q 330 187 305 220 q 402 154 355 154 m 526 1392 l 705 955 l 503 955 l 431 1225 l 359 949 l 159 949 l 338 1392 l 526 1392 z "},"ã":{"ha":868,"x_min":49,"x_max":777,"o":"m 422 668 q 286 652 348 668 q 161 608 224 637 l 101 759 q 247 818 164 798 q 431 838 330 838 q 588 815 522 838 q 695 745 653 791 q 757 631 737 699 q 777 475 777 564 l 777 0 l 578 0 l 544 103 q 504 48 525 71 q 458 10 483 25 q 402 -12 433 -5 q 335 -18 372 -18 q 215 -1 268 -18 q 125 52 162 17 q 68 137 88 86 q 49 254 49 188 q 75 370 49 321 q 151 450 101 418 q 275 497 201 481 q 443 512 348 512 q 483 511 463 512 q 523 506 503 509 q 520 562 523 533 q 508 614 518 590 q 478 653 498 637 q 422 668 458 668 m 402 154 q 523 220 474 154 l 523 376 q 484 378 500 377 q 465 380 468 380 q 385 373 416 380 q 336 352 354 366 q 312 320 319 339 q 305 276 305 300 q 330 187 305 220 q 402 154 355 154 m 582 955 q 509 967 549 955 q 429 1002 470 980 q 391 1022 410 1013 q 357 1040 373 1032 q 328 1052 341 1047 q 304 1056 315 1056 q 288 1052 296 1056 q 274 1039 280 1048 q 264 1015 268 1030 q 260 975 260 999 l 111 975 q 275 1217 111 1217 q 319 1213 298 1217 q 358 1203 340 1209 q 394 1190 377 1198 q 428 1175 411 1183 q 467 1157 448 1166 q 504 1140 487 1147 q 536 1127 522 1132 q 559 1122 550 1122 q 569 1124 565 1122 q 575 1133 573 1126 q 579 1152 578 1139 q 581 1187 581 1165 l 739 1187 q 699 1014 739 1073 q 582 955 659 955 z "},"ä":{"ha":868,"x_min":47,"x_max":812,"o":"m 422 668 q 286 652 348 668 q 161 608 224 637 l 101 759 q 247 818 164 798 q 431 838 330 838 q 588 815 522 838 q 695 745 653 791 q 757 631 737 699 q 777 475 777 564 l 777 0 l 578 0 l 544 103 q 504 48 525 71 q 458 10 483 25 q 402 -12 433 -5 q 335 -18 372 -18 q 215 -1 268 -18 q 125 52 162 17 q 68 137 88 86 q 49 254 49 188 q 75 370 49 321 q 151 450 101 418 q 275 497 201 481 q 443 512 348 512 q 483 511 463 512 q 523 506 503 509 q 520 562 523 533 q 508 614 518 590 q 478 653 498 637 q 422 668 458 668 m 402 154 q 523 220 474 154 l 523 376 q 484 378 500 377 q 465 380 468 380 q 385 373 416 380 q 336 352 354 366 q 312 320 319 339 q 305 276 305 300 q 330 187 305 220 q 402 154 355 154 m 47 1097 q 58 1153 47 1127 q 87 1198 68 1179 q 132 1227 106 1217 q 188 1238 158 1238 q 243 1227 217 1238 q 289 1198 269 1217 q 319 1153 308 1179 q 331 1097 331 1127 q 319 1042 331 1067 q 289 997 308 1016 q 243 966 269 977 q 188 956 217 956 q 131 967 157 956 q 86 997 105 978 q 57 1042 68 1016 q 47 1097 47 1067 m 528 1097 q 539 1153 528 1127 q 569 1198 550 1179 q 614 1227 589 1217 q 669 1238 640 1238 q 725 1227 699 1238 q 770 1198 751 1217 q 801 1153 789 1179 q 812 1097 812 1127 q 801 1042 812 1067 q 770 997 789 1016 q 725 966 751 977 q 669 956 699 956 q 613 967 639 956 q 568 997 587 978 q 539 1042 549 1016 q 528 1097 528 1067 z "},"å":{"ha":868,"x_min":49,"x_max":777,"o":"m 422 668 q 286 652 348 668 q 161 608 224 637 l 101 759 q 247 818 164 798 q 431 838 330 838 q 588 815 522 838 q 695 745 653 791 q 757 631 737 699 q 777 475 777 564 l 777 0 l 578 0 l 544 103 q 504 48 525 71 q 458 10 483 25 q 402 -12 433 -5 q 335 -18 372 -18 q 215 -1 268 -18 q 125 52 162 17 q 68 137 88 86 q 49 254 49 188 q 75 370 49 321 q 151 450 101 418 q 275 497 201 481 q 443 512 348 512 q 483 511 463 512 q 523 506 503 509 q 520 562 523 533 q 508 614 518 590 q 478 653 498 637 q 422 668 458 668 m 402 154 q 523 220 474 154 l 523 376 q 484 378 500 377 q 465 380 468 380 q 385 373 416 380 q 336 352 354 366 q 312 320 319 339 q 305 276 305 300 q 330 187 305 220 q 402 154 355 154 m 304 1200 q 315 1151 304 1174 q 342 1111 325 1128 q 384 1085 360 1095 q 433 1076 407 1076 q 482 1085 459 1076 q 523 1111 505 1095 q 551 1151 541 1128 q 561 1200 561 1174 q 550 1251 561 1227 q 522 1291 540 1274 q 481 1317 505 1308 q 433 1327 458 1327 q 383 1317 406 1327 q 342 1290 359 1308 q 315 1250 325 1273 q 304 1200 304 1227 m 433 1446 q 534 1428 486 1446 q 618 1376 582 1409 q 676 1297 654 1343 q 697 1198 697 1252 q 674 1098 697 1143 q 613 1022 651 1053 q 526 973 574 990 q 425 956 477 956 q 327 976 374 956 q 245 1029 281 996 q 190 1108 210 1063 q 169 1205 169 1154 q 191 1301 169 1257 q 251 1378 214 1345 q 335 1428 288 1410 q 433 1446 383 1446 z "},"æ":{"ha":1284,"x_min":47,"x_max":1229,"o":"m 1021 473 q 1014 547 1021 513 q 992 606 1007 581 q 953 644 977 630 q 893 658 928 658 q 834 643 859 658 q 795 602 810 627 q 772 543 780 576 q 762 473 764 509 l 1021 473 m 1187 54 q 1176 50 1186 54 q 1147 38 1165 45 q 1103 22 1128 31 q 1048 6 1078 14 q 986 -5 1019 -1 q 918 -10 953 -10 q 827 -4 868 -10 q 750 19 785 3 q 686 62 715 35 q 631 130 656 89 q 571 58 606 85 q 495 14 536 30 q 412 -7 455 -1 q 328 -13 369 -13 q 118 56 189 -13 q 47 263 47 125 q 63 356 47 317 q 104 422 78 395 q 168 467 131 450 q 247 495 204 485 q 338 508 290 505 q 434 512 385 512 q 524 506 483 512 q 522 558 524 532 q 510 603 520 583 q 478 636 500 623 q 418 648 457 648 q 354 644 387 648 q 290 634 321 640 q 231 621 259 628 q 182 608 203 614 q 148 598 161 602 q 134 594 135 594 l 102 758 q 115 763 102 758 q 151 776 128 768 q 205 793 174 784 q 273 811 237 803 q 349 825 309 820 q 428 831 389 831 q 665 732 597 831 q 707 775 682 757 q 761 806 731 794 q 826 825 791 819 q 898 831 861 831 q 1038 804 976 831 q 1141 729 1099 777 q 1206 614 1183 681 q 1228 466 1228 547 q 1228 406 1228 436 q 1229 347 1228 376 l 762 347 q 775 272 764 306 q 807 214 786 238 q 858 176 827 189 q 929 162 888 162 q 1007 171 969 162 q 1074 189 1044 179 q 1121 207 1103 199 q 1141 216 1139 216 l 1187 54 m 286 272 q 315 189 286 219 q 390 159 343 159 q 460 176 429 159 q 524 220 492 192 l 524 376 q 488 378 505 377 q 458 380 472 380 q 383 375 415 380 q 329 357 351 370 q 297 324 308 345 q 286 272 286 303 z "},"ç":{"ha":767,"x_min":49,"x_max":730,"o":"m 468 -18 q 318 1 382 -18 q 207 54 254 21 q 130 130 161 87 q 81 219 100 173 q 56 313 63 266 q 49 400 49 359 q 78 574 49 494 q 161 713 106 654 q 293 805 215 772 q 470 838 371 838 q 566 832 524 838 q 639 815 608 825 q 693 793 671 805 q 730 770 715 781 l 684 606 q 650 627 669 616 q 607 647 631 637 q 555 662 584 656 q 492 668 526 668 q 417 654 451 668 q 358 609 382 640 q 320 529 334 578 q 307 412 307 481 q 358 218 307 282 q 515 154 409 154 q 608 172 564 154 q 683 214 652 190 l 729 50 q 689 26 713 38 q 633 4 665 14 q 561 -12 602 -6 q 468 -18 519 -18 m 372 -336 q 415 -351 393 -345 q 457 -361 434 -357 q 505 -366 481 -366 q 537 -363 522 -366 q 565 -353 553 -361 q 584 -331 576 -345 q 591 -294 591 -317 q 545 -218 591 -241 q 408 -195 499 -195 l 423 13 l 507 13 l 498 -113 q 543 -117 518 -113 q 593 -130 568 -121 q 644 -152 619 -138 q 687 -186 668 -165 q 719 -233 707 -206 q 730 -294 730 -260 q 716 -368 730 -335 q 674 -424 701 -401 q 610 -459 648 -447 q 525 -472 572 -472 q 460 -466 488 -472 q 412 -452 431 -460 q 382 -439 392 -445 q 372 -433 372 -433 l 372 -336 z "},"è":{"ha":850,"x_min":49,"x_max":795,"o":"m 753 47 q 620 -2 686 14 q 479 -18 553 -18 q 303 8 382 -18 q 168 85 224 35 q 80 211 111 136 q 49 380 49 285 q 76 576 49 490 q 154 720 102 662 q 282 808 206 778 q 457 838 358 838 q 602 810 539 838 q 707 733 665 783 q 772 615 750 684 q 794 465 794 547 q 794 407 794 436 q 795 347 794 377 l 313 347 q 327 269 314 304 q 365 208 340 233 q 423 168 389 182 q 500 154 457 154 q 611 170 561 154 q 707 218 662 185 l 753 47 m 587 471 q 554 618 587 572 q 451 668 522 665 q 388 649 414 665 q 345 607 361 633 q 320 546 328 581 q 312 473 312 511 l 587 473 l 587 471 m 277 1335 l 500 1440 l 646 1012 l 530 956 l 277 1335 z "},"é":{"ha":850,"x_min":49,"x_max":795,"o":"m 753 47 q 620 -2 686 14 q 479 -18 553 -18 q 303 8 382 -18 q 168 85 224 35 q 80 211 111 136 q 49 380 49 285 q 76 576 49 490 q 154 720 102 662 q 282 808 206 778 q 457 838 358 838 q 602 810 539 838 q 707 733 665 783 q 772 615 750 684 q 794 465 794 547 q 794 407 794 436 q 795 347 794 377 l 313 347 q 327 269 314 304 q 365 208 340 233 q 423 168 389 182 q 500 154 457 154 q 611 170 561 154 q 707 218 662 185 l 753 47 m 587 471 q 554 618 587 572 q 451 668 522 665 q 388 649 414 665 q 345 607 361 633 q 320 546 328 581 q 312 473 312 511 l 587 473 l 587 471 m 355 1009 l 500 1439 l 725 1333 l 473 954 l 355 1009 z "},"ê":{"ha":850,"x_min":49,"x_max":795,"o":"m 753 47 q 620 -2 686 14 q 479 -18 553 -18 q 303 8 382 -18 q 168 85 224 35 q 80 211 111 136 q 49 380 49 285 q 76 576 49 490 q 154 720 102 662 q 282 808 206 778 q 457 838 358 838 q 602 810 539 838 q 707 733 665 783 q 772 615 750 684 q 794 465 794 547 q 794 407 794 436 q 795 347 794 377 l 313 347 q 327 269 314 304 q 365 208 340 233 q 423 168 389 182 q 500 154 457 154 q 611 170 561 154 q 707 218 662 185 l 753 47 m 587 471 q 554 618 587 572 q 451 668 522 665 q 388 649 414 665 q 345 607 361 633 q 320 546 328 581 q 312 473 312 511 l 587 473 l 587 471 m 549 1390 l 728 954 l 526 954 l 454 1223 l 382 948 l 182 948 l 361 1390 l 549 1390 z "},"ë":{"ha":850,"x_min":49,"x_max":836,"o":"m 753 47 q 620 -2 686 14 q 479 -18 553 -18 q 303 8 382 -18 q 168 85 224 35 q 80 211 111 136 q 49 380 49 285 q 76 576 49 490 q 154 720 102 662 q 282 808 206 778 q 457 838 358 838 q 602 810 539 838 q 707 733 665 783 q 772 615 750 684 q 794 465 794 547 q 794 407 794 436 q 795 347 794 377 l 313 347 q 327 269 314 304 q 365 208 340 233 q 423 168 389 182 q 500 154 457 154 q 611 170 561 154 q 707 218 662 185 l 753 47 m 587 471 q 554 618 587 572 q 451 668 522 665 q 388 649 414 665 q 345 607 361 633 q 320 546 328 581 q 312 473 312 511 l 587 473 l 587 471 m 70 1096 q 81 1152 70 1126 q 111 1196 92 1177 q 155 1226 130 1215 q 211 1237 181 1237 q 266 1226 240 1237 q 312 1196 292 1215 q 342 1152 331 1177 q 354 1096 354 1126 q 342 1040 354 1066 q 312 995 331 1015 q 266 965 292 976 q 211 954 240 954 q 154 965 180 954 q 110 996 128 977 q 80 1040 91 1015 q 70 1096 70 1066 m 551 1096 q 562 1152 551 1126 q 592 1196 573 1177 q 637 1226 612 1215 q 692 1237 663 1237 q 748 1226 722 1237 q 793 1196 774 1215 q 824 1152 812 1177 q 836 1096 836 1126 q 824 1040 836 1066 q 793 995 812 1015 q 748 965 774 976 q 692 954 722 954 q 636 965 662 954 q 591 996 610 977 q 562 1040 572 1015 q 551 1096 551 1066 z "},"ì":{"ha":524,"x_min":16,"x_max":410,"o":"m 16 1283 l 240 1389 l 385 960 l 269 905 l 16 1283 m 153 0 l 153 812 l 410 812 l 410 0 l 153 0 z "},"í":{"ha":524,"x_min":153,"x_max":524,"o":"m 155 930 l 300 1360 l 524 1255 l 271 876 l 155 930 m 153 0 l 153 812 l 410 812 l 410 0 l 153 0 z "},"î":{"ha":524,"x_min":-11,"x_max":534,"o":"m 357 1310 l 534 874 l 332 874 l 261 1143 l 190 869 l -11 869 l 168 1310 l 357 1310 m 153 0 l 153 812 l 410 812 l 410 0 l 153 0 z "},"ï":{"ha":524,"x_min":-119,"x_max":647,"o":"m -119 1006 q -108 1062 -119 1036 q -78 1107 -97 1088 q -33 1137 -58 1126 q 22 1147 -7 1147 q 78 1137 52 1147 q 123 1107 104 1126 q 154 1062 142 1088 q 165 1006 165 1036 q 154 950 165 976 q 123 905 142 924 q 78 876 104 886 q 22 865 52 865 q -34 876 -8 865 q -79 906 -60 887 q -108 951 -98 925 q -119 1006 -119 977 m 363 1006 q 374 1062 363 1036 q 404 1107 385 1088 q 449 1137 423 1126 q 504 1147 474 1147 q 559 1137 533 1147 q 605 1107 585 1126 q 635 1062 624 1088 q 647 1006 647 1036 q 635 950 647 976 q 605 905 624 924 q 559 876 585 886 q 504 865 533 865 q 448 876 473 865 q 403 906 422 887 q 373 951 384 925 q 363 1006 363 977 m 153 0 l 153 812 l 410 812 l 410 0 l 153 0 z "},"ð":{"ha":878,"x_min":49,"x_max":830,"o":"m 830 423 q 804 226 830 308 q 726 91 777 144 q 601 14 675 39 q 429 -11 526 -11 q 260 23 332 -11 q 142 116 189 58 q 72 253 95 174 q 49 420 49 331 q 71 586 49 511 q 133 716 92 662 q 232 801 174 770 q 361 831 290 831 q 486 807 433 831 q 574 734 538 784 q 562 775 571 751 q 536 825 552 798 q 500 879 521 851 q 454 935 479 907 l 290 882 l 260 990 l 363 1024 q 311 1066 336 1048 q 260 1099 286 1084 l 370 1228 q 419 1197 397 1211 q 463 1168 441 1183 q 508 1134 484 1153 q 562 1088 531 1115 l 768 1155 l 798 1046 l 650 998 q 721 890 688 947 q 778 763 754 832 q 816 609 802 693 q 830 423 830 525 m 306 411 q 312 320 306 365 q 333 239 318 275 q 375 182 349 204 q 441 161 401 161 q 504 180 478 161 q 545 232 530 200 q 568 304 561 264 q 574 384 574 344 q 574 498 574 441 q 574 613 574 555 q 499 648 536 635 q 415 661 462 661 q 368 649 387 661 q 337 619 349 638 q 319 575 325 600 q 310 522 313 550 q 306 466 307 494 q 306 411 306 437 z "},"ñ":{"ha":940,"x_min":110,"x_max":849,"o":"m 354 710 q 434 807 385 777 q 559 838 484 838 q 780 756 710 838 q 849 505 849 674 l 849 0 l 593 0 l 593 524 q 586 594 593 566 q 567 638 580 622 q 533 661 553 654 q 487 668 513 668 q 410 648 439 668 q 366 598 381 627 l 366 0 l 110 0 l 110 812 l 304 812 l 354 710 m 619 954 q 547 966 586 954 q 467 1000 507 979 q 429 1021 447 1011 q 394 1038 410 1031 q 365 1050 378 1046 q 342 1055 352 1055 q 326 1051 334 1055 q 311 1038 317 1047 q 301 1013 305 1029 q 298 973 298 998 l 149 973 q 312 1215 149 1215 q 356 1212 336 1215 q 396 1202 377 1208 q 431 1189 414 1196 q 465 1174 448 1181 q 505 1155 485 1164 q 542 1138 524 1146 q 573 1126 559 1131 q 597 1121 587 1121 q 606 1123 602 1121 q 613 1132 610 1125 q 616 1151 615 1138 q 618 1186 618 1164 l 776 1186 q 736 1013 776 1072 q 619 954 696 954 z "},"ò":{"ha":901,"x_min":50,"x_max":852,"o":"m 451 155 q 514 169 487 155 q 559 214 541 183 q 587 293 578 244 q 597 410 597 341 q 587 528 597 479 q 559 608 578 577 q 514 654 541 640 q 451 669 487 669 q 388 654 415 669 q 343 608 361 640 q 316 528 325 577 q 307 410 307 479 q 308 352 307 382 q 314 294 309 322 q 329 241 319 266 q 354 197 338 216 q 394 167 370 178 q 451 155 418 156 m 852 408 q 825 226 852 305 q 747 93 798 146 q 621 11 695 39 q 451 -17 547 -17 q 281 11 356 -17 q 155 93 207 39 q 77 226 104 146 q 50 408 50 305 q 77 593 50 513 q 156 728 104 673 q 282 811 208 783 q 450 839 357 839 q 618 811 544 839 q 744 728 692 783 q 824 593 796 673 q 852 408 852 513 m 269 1335 l 492 1440 l 637 1012 l 522 956 l 269 1335 z "},"ó":{"ha":901,"x_min":50,"x_max":852,"o":"m 451 155 q 514 169 487 155 q 559 214 541 183 q 587 293 578 244 q 597 410 597 341 q 587 528 597 479 q 559 608 578 577 q 514 654 541 640 q 451 669 487 669 q 388 654 415 669 q 343 608 361 640 q 316 528 325 577 q 307 410 307 479 q 308 352 307 382 q 314 294 309 322 q 329 241 319 266 q 354 197 338 216 q 394 167 370 178 q 451 155 418 156 m 852 408 q 825 226 852 305 q 747 93 798 146 q 621 11 695 39 q 451 -17 547 -17 q 281 11 356 -17 q 155 93 207 39 q 77 226 104 146 q 50 408 50 305 q 77 593 50 513 q 156 728 104 673 q 282 811 208 783 q 450 839 357 839 q 618 811 544 839 q 744 728 692 783 q 824 593 796 673 q 852 408 852 513 m 345 1009 l 490 1439 l 715 1333 l 463 954 l 345 1009 z "},"ô":{"ha":901,"x_min":50,"x_max":852,"o":"m 451 155 q 514 169 487 155 q 559 214 541 183 q 587 293 578 244 q 597 410 597 341 q 587 528 597 479 q 559 608 578 577 q 514 654 541 640 q 451 669 487 669 q 388 654 415 669 q 343 608 361 640 q 316 528 325 577 q 307 410 307 479 q 308 352 307 382 q 314 294 309 322 q 329 241 319 266 q 354 197 338 216 q 394 167 370 178 q 451 155 418 156 m 852 408 q 825 226 852 305 q 747 93 798 146 q 621 11 695 39 q 451 -17 547 -17 q 281 11 356 -17 q 155 93 207 39 q 77 226 104 146 q 50 408 50 305 q 77 593 50 513 q 156 728 104 673 q 282 811 208 783 q 450 839 357 839 q 618 811 544 839 q 744 728 692 783 q 824 593 796 673 q 852 408 852 513 m 539 1390 l 718 954 l 516 954 l 445 1223 l 372 948 l 172 948 l 351 1390 l 539 1390 z "},"õ":{"ha":901,"x_min":50,"x_max":852,"o":"m 451 155 q 514 169 487 155 q 559 214 541 183 q 587 293 578 244 q 597 410 597 341 q 587 528 597 479 q 559 608 578 577 q 514 654 541 640 q 451 669 487 669 q 388 654 415 669 q 343 608 361 640 q 316 528 325 577 q 307 410 307 479 q 308 352 307 382 q 314 294 309 322 q 329 241 319 266 q 354 197 338 216 q 394 167 370 178 q 451 155 418 156 m 852 408 q 825 226 852 305 q 747 93 798 146 q 621 11 695 39 q 451 -17 547 -17 q 281 11 356 -17 q 155 93 207 39 q 77 226 104 146 q 50 408 50 305 q 77 593 50 513 q 156 728 104 673 q 282 811 208 783 q 450 839 357 839 q 618 811 544 839 q 744 728 692 783 q 824 593 796 673 q 852 408 852 513 m 596 954 q 524 966 563 954 q 444 1000 484 979 q 406 1021 424 1011 q 371 1038 387 1031 q 342 1050 355 1046 q 319 1055 329 1055 q 302 1051 311 1055 q 288 1038 294 1047 q 278 1013 282 1029 q 275 973 275 998 l 125 973 q 289 1215 125 1215 q 333 1212 313 1215 q 373 1202 354 1208 q 408 1189 391 1196 q 442 1174 425 1181 q 481 1155 462 1164 q 518 1138 501 1146 q 550 1126 536 1131 q 574 1121 564 1121 q 583 1123 579 1121 q 590 1132 587 1125 q 593 1151 592 1138 q 595 1186 595 1164 l 753 1186 q 713 1013 753 1072 q 596 954 673 954 z "},"ö":{"ha":901,"x_min":50,"x_max":852,"o":"m 451 155 q 514 169 487 155 q 559 214 541 183 q 587 293 578 244 q 597 410 597 341 q 587 528 597 479 q 559 608 578 577 q 514 654 541 640 q 451 669 487 669 q 388 654 415 669 q 343 608 361 640 q 316 528 325 577 q 307 410 307 479 q 308 352 307 382 q 314 294 309 322 q 329 241 319 266 q 354 197 338 216 q 394 167 370 178 q 451 155 418 156 m 852 408 q 825 226 852 305 q 747 93 798 146 q 621 11 695 39 q 451 -17 547 -17 q 281 11 356 -17 q 155 93 207 39 q 77 226 104 146 q 50 408 50 305 q 77 593 50 513 q 156 728 104 673 q 282 811 208 783 q 450 839 357 839 q 618 811 544 839 q 744 728 692 783 q 824 593 796 673 q 852 408 852 513 m 62 1096 q 73 1152 62 1126 q 102 1196 83 1177 q 147 1226 121 1215 q 203 1237 173 1237 q 258 1226 232 1237 q 303 1196 284 1215 q 334 1152 323 1177 q 346 1096 346 1126 q 334 1040 346 1066 q 303 995 323 1015 q 258 965 284 976 q 203 954 232 954 q 146 965 172 954 q 101 996 120 977 q 72 1040 83 1015 q 62 1096 62 1066 m 543 1096 q 554 1152 543 1126 q 584 1196 565 1177 q 629 1226 604 1215 q 684 1237 654 1237 q 740 1226 713 1237 q 785 1196 766 1215 q 816 1152 804 1177 q 827 1096 827 1126 q 816 1040 827 1066 q 785 995 804 1015 q 740 965 766 976 q 684 954 713 954 q 628 965 654 954 q 583 996 602 977 q 554 1040 564 1015 q 543 1096 543 1066 z "},"÷":{"ha":842,"x_min":57,"x_max":782,"o":"m 283 822 q 294 878 283 852 q 322 923 304 904 q 366 953 340 942 q 421 964 391 964 q 476 953 451 964 q 520 923 502 942 q 549 878 538 903 q 559 822 559 852 q 549 766 559 792 q 521 722 539 741 q 477 692 503 703 q 421 681 452 681 q 365 692 391 681 q 322 722 340 703 q 294 767 304 741 q 283 822 283 793 m 286 214 q 296 270 286 244 q 325 315 307 296 q 369 345 343 334 q 424 356 394 356 q 479 345 454 356 q 522 315 504 334 q 551 270 541 296 q 562 214 562 243 q 551 159 562 184 q 523 114 541 134 q 479 84 505 95 q 424 73 454 73 q 368 84 393 73 q 324 115 342 96 q 296 160 306 134 q 286 214 286 185 m 57 421 l 57 614 l 782 614 l 782 421 l 57 421 z "},"ø":{"ha":901,"x_min":49,"x_max":851,"o":"m 496 677 q 450 682 480 682 q 414 679 434 682 q 375 668 395 677 q 335 643 355 659 q 301 597 316 626 q 277 527 286 569 q 268 425 268 485 q 278 316 268 361 q 300 242 288 271 q 321 201 312 214 l 332 189 l 332 189 l 496 677 m 313 -122 l 237 -97 l 277 18 q 106 160 163 62 q 49 408 49 258 q 76 586 49 507 q 154 719 103 664 q 280 802 205 773 q 450 831 355 831 q 497 829 475 831 q 541 823 519 827 l 586 956 l 660 930 l 618 803 q 718 746 675 783 q 791 660 762 710 q 836 546 821 609 q 851 408 851 482 q 825 233 851 310 q 747 101 798 155 q 622 18 696 47 q 450 -11 547 -11 q 353 -3 398 -11 l 313 -122 m 450 137 q 528 155 493 137 q 588 207 564 172 q 627 292 613 241 q 641 410 641 343 q 629 524 641 480 q 603 591 617 567 q 576 623 589 614 q 564 631 564 631 l 401 141 q 421 138 409 138 q 450 137 433 137 z "},"ù":{"ha":929,"x_min":91,"x_max":819,"o":"m 344 295 q 348 237 344 264 q 364 192 353 211 q 395 162 376 173 q 446 152 415 152 q 512 169 484 152 q 562 215 539 186 l 562 812 l 819 812 l 819 0 l 638 0 l 581 124 q 555 59 572 86 q 512 15 537 33 q 457 -10 488 -2 q 391 -18 426 -18 q 164 65 237 -18 q 91 315 91 149 l 91 812 l 344 812 l 344 295 m 281 1335 l 504 1440 l 650 1012 l 534 956 l 281 1335 z "},"ú":{"ha":929,"x_min":91,"x_max":819,"o":"m 344 295 q 348 237 344 264 q 364 192 353 211 q 395 162 376 173 q 446 152 415 152 q 512 169 484 152 q 562 215 539 186 l 562 812 l 819 812 l 819 0 l 638 0 l 581 124 q 555 59 572 86 q 512 15 537 33 q 457 -10 488 -2 q 391 -18 426 -18 q 164 65 237 -18 q 91 315 91 149 l 91 812 l 344 812 l 344 295 m 358 1009 l 503 1439 l 728 1333 l 475 954 l 358 1009 z "},"û":{"ha":929,"x_min":91,"x_max":819,"o":"m 344 295 q 348 237 344 264 q 364 192 353 211 q 395 162 376 173 q 446 152 415 152 q 512 169 484 152 q 562 215 539 186 l 562 812 l 819 812 l 819 0 l 638 0 l 581 124 q 555 59 572 86 q 512 15 537 33 q 457 -10 488 -2 q 391 -18 426 -18 q 164 65 237 -18 q 91 315 91 149 l 91 812 l 344 812 l 344 295 m 551 1390 l 730 954 l 528 954 l 457 1223 l 385 948 l 184 948 l 363 1390 l 551 1390 z "},"ü":{"ha":929,"x_min":73,"x_max":839,"o":"m 344 295 q 348 237 344 264 q 364 192 353 211 q 395 162 376 173 q 446 152 415 152 q 512 169 484 152 q 562 215 539 186 l 562 812 l 819 812 l 819 0 l 638 0 l 581 124 q 555 59 572 86 q 512 15 537 33 q 457 -10 488 -2 q 391 -18 426 -18 q 164 65 237 -18 q 91 315 91 149 l 91 812 l 344 812 l 344 295 m 73 1096 q 84 1152 73 1126 q 114 1196 95 1177 q 159 1226 133 1215 q 214 1237 184 1237 q 270 1226 243 1237 q 315 1196 296 1215 q 346 1152 334 1177 q 357 1096 357 1126 q 346 1040 357 1066 q 315 995 334 1015 q 270 965 296 976 q 214 954 243 954 q 158 965 184 954 q 113 996 132 977 q 84 1040 94 1015 q 73 1096 73 1066 m 555 1096 q 566 1152 555 1126 q 596 1196 576 1177 q 641 1226 615 1215 q 696 1237 666 1237 q 751 1226 725 1237 q 797 1196 777 1215 q 827 1152 816 1177 q 839 1096 839 1126 q 827 1040 839 1066 q 797 995 816 1015 q 751 965 777 976 q 696 954 725 954 q 639 965 665 954 q 594 996 613 977 q 565 1040 576 1015 q 555 1096 555 1066 z "},"ý":{"ha":834,"x_min":0,"x_max":837,"o":"m 0 812 l 263 812 l 450 271 l 578 812 l 837 812 l 562 -22 q 505 -154 538 -97 q 424 -249 471 -210 q 313 -308 377 -288 q 164 -328 250 -328 l 92 -155 q 202 -138 160 -150 q 271 -104 245 -126 q 313 -49 298 -82 q 340 31 328 -16 l 0 812 m 309 1009 l 454 1439 l 679 1333 l 427 954 l 309 1009 z "},"þ":{"ha":943,"x_min":110,"x_max":895,"o":"m 635 416 q 626 523 635 478 q 599 596 616 568 q 557 639 582 625 q 499 652 532 652 q 444 648 465 652 q 407 637 422 644 q 384 622 393 630 q 366 604 374 613 l 366 224 q 437 175 399 191 q 523 159 475 159 q 571 172 551 159 q 603 204 590 184 q 622 250 615 224 q 631 305 628 277 q 634 362 634 334 q 635 416 635 391 m 551 -11 q 366 77 429 -11 l 366 -279 l 110 -279 l 110 1106 l 363 1106 l 363 732 q 397 773 376 755 q 443 802 417 790 q 499 819 469 813 q 562 824 529 824 q 709 792 646 824 q 813 704 772 761 q 874 569 854 648 q 895 395 895 490 q 869 219 895 295 q 799 93 844 144 q 690 15 753 41 q 551 -11 627 -11 z "},"ÿ":{"ha":834,"x_min":0,"x_max":837,"o":"m 0 812 l 263 812 l 450 271 l 578 812 l 837 812 l 562 -22 q 505 -154 538 -97 q 424 -249 471 -210 q 313 -308 377 -288 q 164 -328 250 -328 l 92 -155 q 202 -138 160 -150 q 271 -104 245 -126 q 313 -49 298 -82 q 340 31 328 -16 l 0 812 m 25 1096 q 36 1152 25 1126 q 66 1196 47 1177 q 111 1226 85 1215 q 166 1237 136 1237 q 221 1226 195 1237 q 267 1196 248 1215 q 298 1152 286 1177 q 309 1096 309 1126 q 298 1040 309 1066 q 267 995 286 1015 q 221 965 248 976 q 166 954 195 954 q 110 965 136 954 q 65 996 83 977 q 36 1040 46 1015 q 25 1096 25 1066 m 507 1096 q 517 1152 507 1126 q 548 1196 528 1177 q 592 1226 567 1215 q 648 1237 618 1237 q 703 1226 677 1237 q 748 1196 729 1215 q 779 1152 768 1177 q 791 1096 791 1126 q 779 1040 791 1066 q 748 995 768 1015 q 703 965 729 976 q 648 954 677 954 q 591 965 617 954 q 546 996 565 977 q 517 1040 528 1015 q 507 1096 507 1066 z "},"ı":{"ha":471,"x_min":108,"x_max":363,"o":"m 108 0 l 108 812 l 363 812 l 363 0 l 108 0 z "},"Œ":{"ha":1615,"x_min":72,"x_max":1567,"o":"m 804 0 l 804 1105 l 1560 1105 l 1560 935 l 1073 935 l 1073 654 l 1497 654 l 1497 488 l 1073 488 l 1073 166 l 1567 166 l 1567 0 l 804 0 m 1074 552 q 1044 313 1074 418 q 951 133 1013 207 q 795 20 889 60 q 573 -19 701 -19 q 352 20 446 -19 q 195 133 258 59 q 102 312 133 206 q 72 550 72 417 q 103 792 72 685 q 196 972 134 899 q 353 1085 258 1046 q 573 1124 447 1124 q 794 1084 700 1124 q 950 971 888 1045 q 1043 792 1013 898 q 1074 552 1074 686 m 342 554 q 351 409 342 477 q 387 288 361 340 q 457 205 412 236 q 573 175 502 175 q 690 207 645 175 q 761 291 736 238 q 796 412 787 343 q 805 554 805 480 q 795 698 805 630 q 759 818 785 766 q 688 900 733 869 q 572 930 643 930 q 456 899 501 930 q 386 817 412 869 q 351 697 361 765 q 342 554 342 629 z "},"œ":{"ha":1398,"x_min":49,"x_max":1343,"o":"m 1136 473 q 1103 620 1136 574 q 1000 668 1069 667 q 939 652 965 667 q 896 611 913 637 q 870 550 878 585 q 861 473 861 515 l 1136 473 m 451 155 q 514 169 487 155 q 560 214 542 183 q 588 293 578 244 q 597 410 597 341 q 588 528 597 479 q 560 608 578 576 q 514 654 542 640 q 451 669 487 669 q 387 654 414 669 q 342 608 360 640 q 315 528 324 576 q 306 410 306 479 q 307 352 306 382 q 314 294 309 322 q 328 241 319 266 q 354 197 338 216 q 394 167 370 178 q 451 155 418 156 m 1302 47 q 1170 -2 1236 14 q 1029 -18 1103 -18 q 942 -14 984 -18 q 863 5 901 -9 q 791 42 825 18 q 729 104 758 66 q 684 55 713 77 q 618 17 655 33 q 538 -8 581 1 q 451 -17 495 -17 q 279 11 354 -17 q 153 94 205 39 q 75 228 102 149 q 49 408 49 307 q 76 594 49 513 q 156 729 104 675 q 282 812 208 784 q 450 840 357 840 q 533 833 493 840 q 610 812 574 827 q 675 770 646 796 q 727 704 705 744 q 787 768 757 743 q 850 810 817 794 q 921 832 883 825 q 1006 838 960 838 q 1152 810 1089 838 q 1258 733 1215 783 q 1322 615 1300 684 q 1343 465 1343 547 l 1343 347 l 862 347 q 877 270 863 305 q 914 208 890 234 q 972 168 938 182 q 1048 154 1006 154 q 1161 170 1110 154 q 1255 218 1211 186 l 1302 47 z "},"Š":{"ha":932,"x_min":61,"x_max":887,"o":"m 887 315 q 783 67 887 153 q 477 -19 679 -19 q 317 -2 390 -19 q 190 35 244 14 q 75 88 127 58 l 132 276 q 150 269 132 276 q 198 249 168 260 q 266 225 227 238 q 344 200 304 212 q 422 182 384 189 q 492 174 460 174 q 602 195 566 174 q 637 269 637 216 q 633 307 637 289 q 618 340 629 324 q 591 368 608 355 q 547 393 574 381 l 267 511 q 113 629 164 554 q 61 810 61 704 q 78 908 61 864 q 124 988 95 953 q 194 1048 154 1023 q 279 1090 233 1074 q 374 1116 325 1107 q 473 1124 424 1124 q 578 1117 528 1124 q 671 1100 629 1110 q 748 1077 714 1089 q 807 1054 783 1065 q 844 1037 831 1044 l 856 1030 l 793 854 l 781 860 q 749 874 770 865 q 701 892 729 882 q 640 910 673 902 q 572 924 608 919 q 500 930 536 930 q 435 927 469 930 q 372 914 401 924 q 324 884 343 904 q 305 831 305 865 q 306 813 305 823 q 315 792 307 803 q 338 768 322 781 q 385 744 355 756 l 637 642 q 743 587 696 618 q 822 516 789 556 q 870 426 854 476 q 887 315 887 376 m 398 1252 l 219 1689 l 421 1689 l 493 1419 l 564 1694 l 765 1694 l 586 1252 l 398 1252 z "},"š":{"ha":783,"x_min":75,"x_max":724,"o":"m 252 366 q 184 397 216 380 q 128 441 153 414 q 89 506 104 467 q 75 604 75 545 q 97 701 75 657 q 163 774 120 744 q 267 822 205 805 q 408 838 329 838 q 483 833 446 838 q 554 822 520 829 q 617 806 589 814 q 667 791 646 798 q 700 780 688 784 q 711 776 711 775 l 665 614 l 665 613 q 650 617 663 613 q 617 627 637 621 q 571 641 597 633 q 518 654 545 648 q 464 664 491 660 q 414 668 437 668 q 361 664 382 668 q 328 651 340 659 q 311 629 316 642 q 307 598 307 616 q 309 578 307 587 q 318 564 312 570 q 336 552 325 557 q 364 540 347 547 l 507 485 q 601 440 561 465 q 669 387 642 416 q 710 322 696 357 q 724 245 724 288 q 695 118 724 168 q 618 37 665 67 q 511 -6 570 7 q 390 -18 451 -18 q 307 -13 347 -18 q 232 1 267 -7 q 168 18 197 9 q 118 36 138 28 q 86 48 97 43 q 76 53 75 54 l 122 218 q 136 214 123 218 q 169 202 149 210 q 216 186 189 195 q 271 171 242 178 q 329 159 300 163 q 382 154 357 154 q 436 159 416 154 q 467 174 456 163 q 482 201 478 184 q 486 239 486 217 q 469 269 486 254 q 416 299 452 284 l 252 366 m 313 956 l 134 1393 l 336 1393 l 408 1123 l 479 1398 l 680 1398 l 500 956 l 313 956 z "},"Ÿ":{"ha":860,"x_min":-51,"x_max":913,"o":"m 639 1105 l 913 1105 l 556 366 l 556 0 l 301 0 l 301 366 l -51 1105 l 218 1105 l 428 649 l 639 1105 m 43 1393 q 54 1449 43 1423 q 84 1493 65 1474 q 129 1523 103 1512 q 184 1534 155 1534 q 240 1523 214 1534 q 285 1493 266 1512 q 316 1449 304 1474 q 328 1393 328 1423 q 316 1337 328 1363 q 285 1292 304 1312 q 240 1262 266 1273 q 184 1251 214 1251 q 128 1262 154 1251 q 83 1293 102 1274 q 54 1337 64 1312 q 43 1393 43 1363 m 525 1393 q 536 1449 525 1423 q 566 1493 547 1474 q 611 1523 585 1512 q 666 1534 636 1534 q 721 1523 695 1534 q 767 1493 747 1512 q 798 1449 786 1474 q 809 1393 809 1423 q 798 1337 809 1363 q 767 1292 786 1312 q 721 1262 747 1273 q 666 1251 695 1251 q 609 1262 635 1251 q 565 1293 583 1274 q 535 1337 546 1312 q 525 1393 525 1363 z "},"Ž":{"ha":851,"x_min":33,"x_max":816,"o":"m 814 945 l 337 170 l 816 170 l 816 0 l 33 0 l 33 165 l 517 935 l 33 935 l 33 1105 l 814 1105 l 814 945 m 336 1254 l 157 1691 l 359 1691 l 431 1421 l 503 1696 l 703 1696 l 524 1254 l 336 1254 z "},"ž":{"ha":740,"x_min":67,"x_max":684,"o":"m 74 642 l 74 813 l 676 813 l 676 647 l 349 170 l 684 170 l 684 0 l 67 0 l 67 168 l 406 642 l 74 642 m 288 958 l 109 1394 l 311 1394 l 382 1124 l 454 1400 l 654 1400 l 475 958 l 288 958 z "},"ƒ":{"ha":616,"x_min":11,"x_max":593,"o":"m 490 1000 q 451 992 469 1000 q 422 965 434 985 q 404 913 410 946 q 398 831 398 881 l 398 820 l 593 820 l 593 715 l 397 715 l 402 332 q 410 183 404 262 q 427 17 416 104 q 304 14 366 17 q 174 12 242 12 l 170 90 q 165 135 170 111 q 157 180 161 159 q 150 264 153 224 q 146 340 147 304 l 141 715 l 11 715 l 11 820 l 140 820 q 211 1096 140 1002 q 430 1190 281 1190 q 505 1187 467 1190 q 587 1173 543 1185 l 592 985 q 544 998 568 995 q 490 1000 519 1000 z "},"ˆ":{"ha":848,"x_min":181,"x_max":727,"o":"m 548 581 l 727 144 l 525 144 l 454 414 l 381 139 l 181 139 l 360 581 l 548 581 z "},"ˇ":{"ha":848,"x_min":181,"x_max":727,"o":"m 360 147 l 181 584 l 383 584 l 455 314 l 526 589 l 727 589 l 548 147 l 360 147 z "},"˚":{"ha":597,"x_min":35,"x_max":563,"o":"m 170 390 q 180 340 170 363 q 208 301 191 317 q 249 275 226 284 q 298 265 273 265 q 348 275 325 265 q 389 301 371 284 q 416 340 406 317 q 427 390 427 363 q 416 440 427 417 q 388 480 406 463 q 347 507 370 497 q 298 517 324 517 q 249 507 272 517 q 208 480 225 497 q 180 439 191 463 q 170 390 170 416 m 299 635 q 400 617 352 635 q 484 566 448 599 q 542 487 520 532 q 563 387 563 441 q 540 288 563 332 q 478 211 517 243 q 391 163 440 180 q 291 146 342 146 q 193 165 239 146 q 111 219 146 185 q 55 298 76 253 q 35 395 35 343 q 57 491 35 447 q 116 567 79 535 q 201 617 153 600 q 299 635 249 635 z "},"˜":{"ha":823,"x_min":113,"x_max":741,"o":"m 584 144 q 511 157 551 144 q 431 191 472 170 q 393 212 412 202 q 359 229 375 222 q 330 241 343 237 q 307 245 317 245 q 290 242 298 245 q 276 229 282 238 q 266 204 270 220 q 262 164 262 189 l 113 164 q 277 406 113 406 q 321 402 300 406 q 360 393 342 399 q 396 380 379 387 q 430 365 413 372 q 469 346 450 355 q 506 329 489 337 q 538 317 524 321 q 562 312 552 312 q 571 314 567 312 q 577 322 575 316 q 581 342 580 329 q 583 377 583 355 l 741 377 q 701 203 741 262 q 584 144 661 144 z "},"́":{"ha":744,"x_min":332,"x_max":597,"o":"m 332 1129 l 439 1544 l 597 1482 l 370 1112 l 332 1129 z "},"̆":{"ha":931,"x_min":220,"x_max":709,"o":"m 709 1148 q 649 967 709 1025 q 465 909 588 909 q 282 967 343 909 q 220 1148 220 1025 l 374 1148 q 378 1087 374 1112 q 393 1047 382 1063 q 420 1025 403 1032 q 465 1019 438 1019 q 509 1025 492 1019 q 538 1047 527 1032 q 553 1087 549 1063 q 557 1148 557 1112 l 709 1148 z "},"Ѐ":{"ha":915,"x_min":107,"x_max":870,"o":"m 286 1591 l 509 1696 l 655 1267 l 538 1212 l 286 1591 m 107 0 l 107 1105 l 864 1105 l 864 935 l 377 935 l 377 654 l 801 654 l 801 488 l 377 488 l 377 166 l 870 166 l 870 0 l 107 0 z "},"Ё":{"ha":937,"x_min":98,"x_max":892,"o":"m 98 1351 q 109 1407 98 1381 q 139 1452 120 1432 q 184 1482 159 1471 q 239 1493 210 1493 q 295 1482 269 1493 q 341 1452 321 1471 q 372 1407 360 1432 q 383 1351 383 1381 q 372 1295 383 1321 q 341 1251 360 1270 q 295 1221 321 1232 q 239 1210 269 1210 q 183 1221 209 1210 q 138 1251 157 1232 q 109 1296 119 1270 q 98 1351 98 1321 m 580 1351 q 591 1407 580 1381 q 621 1452 602 1432 q 666 1482 640 1471 q 721 1493 692 1493 q 777 1482 750 1493 q 822 1452 803 1471 q 853 1407 842 1432 q 865 1351 865 1381 q 853 1295 865 1321 q 822 1251 842 1270 q 777 1221 803 1232 q 721 1210 750 1210 q 664 1221 690 1210 q 620 1251 638 1232 q 590 1296 601 1270 q 580 1351 580 1321 m 130 0 l 130 1105 l 886 1105 l 886 935 l 399 935 l 399 654 l 823 654 l 823 488 l 399 488 l 399 166 l 892 166 l 892 0 l 130 0 z "},"Ђ":{"ha":1132,"x_min":-12,"x_max":1046,"o":"m 632 -26 q 648 -29 640 -27 q 667 -33 656 -31 q 761 6 731 -33 q 791 115 791 44 q 790 168 791 142 q 789 220 789 194 l 789 524 q 761 629 789 590 q 672 668 732 668 q 633 666 650 668 q 603 660 617 665 q 574 645 589 654 q 541 620 560 635 l 541 0 l 271 0 l 271 935 l -12 935 l -12 1105 l 819 1105 l 819 935 l 541 935 l 541 745 q 565 774 547 758 q 612 805 583 791 q 680 829 641 819 q 765 838 719 838 q 881 818 829 838 q 970 755 933 797 q 1026 652 1006 714 q 1046 507 1046 589 l 1046 130 q 1027 -16 1046 46 q 972 -119 1008 -77 q 887 -180 937 -160 q 774 -201 837 -201 q 686 -193 725 -201 q 616 -167 648 -184 l 632 -26 z "},"Ѓ":{"ha":778,"x_min":107,"x_max":749,"o":"m 430 1192 l 538 1607 l 695 1545 l 469 1175 l 430 1192 m 378 936 l 378 0 l 107 0 l 107 1105 l 749 1105 l 749 936 l 378 936 z "},"Є":{"ha":909,"x_min":72,"x_max":895,"o":"m 72 557 q 103 793 72 688 q 195 972 134 899 q 347 1084 256 1045 q 559 1124 438 1124 q 668 1116 615 1124 q 765 1096 721 1108 q 843 1068 810 1083 q 895 1039 877 1053 l 821 849 q 701 911 759 892 q 579 929 643 929 q 477 908 519 929 q 407 851 435 888 q 365 763 380 814 q 345 650 351 711 l 720 650 l 720 484 l 342 484 q 587 175 361 175 q 821 252 715 175 l 893 62 q 840 31 875 45 q 760 5 805 16 q 663 -13 715 -6 q 559 -19 612 -19 q 347 22 438 -19 q 195 139 256 64 q 103 320 134 214 q 72 557 72 427 z "},"Ѕ":{"ha":932,"x_min":61,"x_max":887,"o":"m 887 315 q 783 67 887 153 q 477 -19 679 -19 q 317 -2 390 -19 q 190 35 244 14 q 75 88 127 58 l 132 276 q 150 269 132 276 q 198 249 168 260 q 266 225 227 238 q 344 200 304 212 q 422 182 384 189 q 492 174 460 174 q 602 195 566 174 q 637 269 637 216 q 633 307 637 289 q 618 340 629 324 q 591 368 608 355 q 547 393 574 381 l 267 511 q 113 629 164 554 q 61 810 61 704 q 78 908 61 864 q 124 988 95 953 q 194 1048 154 1023 q 279 1090 233 1074 q 374 1116 325 1107 q 473 1124 424 1124 q 578 1117 528 1124 q 671 1100 629 1110 q 748 1077 714 1089 q 807 1054 783 1065 q 844 1037 831 1044 l 856 1030 l 793 854 l 781 860 q 749 874 770 865 q 701 892 729 882 q 640 910 673 902 q 572 924 608 919 q 500 930 536 930 q 435 927 469 930 q 372 914 401 924 q 324 884 343 904 q 305 831 305 865 q 306 813 305 823 q 315 792 307 803 q 338 768 322 781 q 385 744 355 756 l 637 642 q 743 587 696 618 q 822 516 789 556 q 870 426 854 476 q 887 315 887 376 z "},"І":{"ha":610,"x_min":53,"x_max":559,"o":"m 170 123 l 170 982 l 53 982 l 53 1105 l 559 1105 l 559 982 l 441 982 l 441 123 l 559 123 l 559 0 l 53 0 l 53 123 l 170 123 z "},"Ї":{"ha":612,"x_min":-75,"x_max":690,"o":"m -75 1324 q -64 1380 -75 1354 q -35 1425 -54 1406 q 10 1455 -16 1444 q 65 1466 35 1466 q 121 1455 94 1466 q 166 1424 147 1444 q 197 1379 186 1405 q 209 1324 209 1354 q 197 1269 209 1295 q 166 1224 186 1243 q 121 1194 147 1204 q 66 1183 95 1183 q 9 1194 35 1183 q -36 1224 -17 1205 q -65 1269 -54 1243 q -75 1324 -75 1295 m 406 1324 q 417 1380 406 1354 q 447 1425 428 1406 q 492 1455 466 1444 q 547 1466 517 1466 q 602 1455 576 1466 q 648 1424 629 1444 q 679 1379 667 1405 q 690 1324 690 1354 q 679 1269 690 1295 q 648 1224 667 1243 q 603 1194 629 1204 q 547 1183 576 1183 q 490 1194 516 1183 q 446 1224 465 1205 q 417 1269 427 1243 q 406 1324 406 1295 m 170 123 l 170 982 l 54 982 l 54 1105 l 559 1105 l 559 982 l 441 982 l 441 123 l 559 123 l 559 0 l 54 0 l 54 123 l 170 123 z "},"Ј":{"ha":619,"x_min":20,"x_max":513,"o":"m 20 116 q 126 137 83 124 q 194 177 168 151 q 231 246 220 203 q 241 356 241 289 l 241 1105 l 513 1105 l 513 355 q 487 167 513 245 q 409 40 462 90 q 277 -34 357 -10 q 90 -60 197 -58 l 20 116 z "},"Љ":{"ha":1740,"x_min":28,"x_max":1691,"o":"m 1420 374 q 1397 469 1420 431 q 1337 527 1375 506 q 1250 557 1299 549 q 1147 565 1200 565 l 1112 565 l 1112 170 l 1167 170 q 1275 180 1227 170 q 1354 212 1322 189 q 1403 275 1386 235 q 1420 374 1420 314 m 842 0 l 842 936 l 479 936 l 481 574 q 474 425 481 497 q 449 289 467 353 q 398 172 431 225 q 316 81 366 119 q 194 22 265 43 q 28 1 123 1 l 28 252 q 128 275 92 252 q 183 337 165 298 q 207 427 202 376 q 212 534 212 478 l 212 561 l 209 1105 l 1112 1105 l 1112 725 l 1149 725 q 1371 710 1271 725 q 1542 655 1471 694 q 1652 547 1613 615 q 1691 372 1691 479 q 1673 241 1691 298 q 1623 143 1655 184 q 1544 74 1590 102 q 1439 30 1497 47 q 1312 7 1381 14 q 1168 0 1244 0 l 1099 0 l 842 0 z "},"Њ":{"ha":1648,"x_min":107,"x_max":1598,"o":"m 1327 374 q 1304 469 1327 431 q 1244 527 1282 506 q 1157 557 1206 549 q 1055 565 1108 565 l 1020 565 l 1020 170 l 1075 170 q 1182 180 1135 170 q 1262 212 1230 189 q 1311 275 1294 235 q 1327 374 1327 314 m 749 489 l 378 489 l 378 0 l 107 0 l 107 1105 l 378 1105 l 378 655 l 749 655 l 749 1105 l 1020 1105 l 1020 725 l 1056 725 q 1279 710 1179 725 q 1450 655 1379 694 q 1559 547 1520 615 q 1598 372 1598 479 q 1559 188 1598 260 q 1451 74 1520 116 q 1285 16 1381 33 q 1076 0 1190 0 l 749 0 l 749 489 z "},"Ћ":{"ha":1133,"x_min":4,"x_max":1040,"o":"m 537 0 l 264 0 l 264 936 l 4 936 l 4 1105 l 836 1105 l 836 936 l 535 936 l 535 722 l 762 722 q 877 701 825 722 q 964 638 928 680 q 1020 534 1000 596 q 1040 390 1040 472 l 1040 0 l 783 0 l 783 298 q 784 349 783 323 q 785 403 785 376 q 777 466 785 438 q 754 513 768 494 q 719 542 739 532 q 675 551 699 551 l 537 551 l 537 0 z "},"Ќ":{"ha":1042,"x_min":107,"x_max":1050,"o":"m 378 0 l 107 0 l 107 1105 l 378 1105 l 378 634 l 425 634 l 736 1105 l 1013 1105 l 753 726 q 699 654 723 684 q 651 605 674 624 q 603 574 627 585 q 550 558 578 564 q 602 544 578 553 q 648 518 625 534 q 695 476 671 502 q 746 413 718 450 l 1050 0 l 768 0 l 420 469 l 378 469 l 378 0 m 432 1187 l 577 1617 l 802 1512 l 549 1133 l 432 1187 z "},"Ѝ":{"ha":1153,"x_min":107,"x_max":1046,"o":"m 324 1454 l 547 1559 l 693 1131 l 577 1075 l 324 1454 m 347 1105 l 347 461 l 761 1105 l 1046 1105 l 1046 0 l 804 0 l 804 751 l 348 92 l 348 0 l 107 0 l 107 1105 l 347 1105 z "},"Ў":{"ha":874,"x_min":-46,"x_max":930,"o":"m 683 1388 q 622 1207 683 1265 q 438 1149 562 1149 q 255 1207 317 1149 q 194 1388 194 1265 l 347 1388 q 352 1328 347 1352 q 366 1288 356 1303 q 394 1265 376 1272 q 438 1259 412 1259 q 483 1265 465 1259 q 511 1288 500 1272 q 527 1328 522 1303 q 531 1388 531 1352 l 683 1388 m 656 1105 l 930 1105 l 568 369 l 568 252 q 594 8 568 141 l 330 -1 q 316 131 321 66 q 311 252 311 195 l 311 369 l -46 1105 l 224 1105 l 439 654 l 656 1105 z "},"Џ":{"ha":1158,"x_min":107,"x_max":1051,"o":"m 107 1105 l 378 1105 l 378 170 l 781 170 l 781 1105 l 1051 1105 l 1051 0 l 715 0 l 715 -248 l 445 -248 l 445 0 l 107 0 l 107 1105 z "},"А":{"ha":1057,"x_min":18,"x_max":1038,"o":"m 669 1105 l 1038 0 l 768 0 l 692 243 l 365 243 l 288 0 l 18 0 l 382 1105 l 669 1105 m 399 367 l 669 367 l 533 774 l 399 367 z "},"Б":{"ha":1137,"x_min":107,"x_max":1088,"o":"m 510 170 l 565 170 q 671 180 624 170 q 750 213 718 190 q 800 276 783 237 q 817 374 817 315 q 798 465 817 429 q 742 524 778 502 q 656 555 706 546 q 545 565 606 565 l 510 565 l 510 170 m 1088 373 q 1049 189 1088 261 q 941 75 1010 117 q 776 16 872 33 q 566 0 680 0 l 448 0 l 239 0 l 239 939 l 107 939 l 107 1105 l 964 1105 l 964 936 l 510 936 l 510 725 l 546 725 q 768 710 669 725 q 937 655 867 694 q 1047 547 1008 615 q 1088 373 1086 479 z "},"В":{"ha":1028,"x_min":107,"x_max":969,"o":"m 404 1105 q 578 1098 506 1105 q 701 1078 650 1090 q 783 1050 751 1066 q 837 1018 814 1034 q 909 929 886 981 q 932 808 932 877 q 913 726 932 765 q 863 656 895 687 q 786 606 830 626 q 690 581 742 586 q 820 548 766 569 q 906 494 873 526 q 954 420 939 463 q 969 326 969 378 q 937 177 969 239 q 844 76 905 115 q 695 18 783 37 q 492 0 606 0 l 354 0 l 107 0 l 107 1105 l 404 1105 m 454 170 q 562 173 515 170 q 640 191 608 176 q 686 237 671 205 q 702 326 702 269 q 688 406 702 374 q 646 455 675 437 q 573 480 618 473 q 465 487 528 487 l 378 487 l 378 170 l 454 170 m 378 651 l 467 651 q 634 686 577 651 q 692 790 692 721 q 681 855 692 827 q 645 901 671 883 q 578 927 620 918 q 474 936 536 936 l 378 936 l 378 651 z "},"Г":{"ha":760,"x_min":107,"x_max":749,"o":"m 378 936 l 378 0 l 107 0 l 107 1105 l 749 1105 l 749 936 l 378 936 z "},"Д":{"ha":1218,"x_min":1,"x_max":1193,"o":"m 846 170 l 846 936 l 465 936 l 465 654 q 463 524 465 593 q 454 388 462 454 q 431 264 447 321 q 385 170 415 207 l 846 170 m 69 170 q 68 168 68 168 l 68 168 q 80 180 70 168 q 103 217 90 191 q 133 286 117 243 q 163 390 149 328 q 185 535 176 452 q 194 726 194 618 l 194 1106 l 1118 1106 l 1118 96 l 1193 96 l 1193 -331 l 958 -331 l 958 1 l 292 1 l 292 -330 l 1 -330 l 1 170 l 69 170 z "},"Е":{"ha":917,"x_min":107,"x_max":870,"o":"m 107 0 l 107 1105 l 864 1105 l 864 935 l 377 935 l 377 654 l 801 654 l 801 488 l 377 488 l 377 166 l 870 166 l 870 0 l 107 0 z "},"Ж":{"ha":1612,"x_min":-7,"x_max":1620,"o":"m 671 469 l 626 469 l 274 0 l -7 0 l 298 411 q 350 475 326 449 q 395 518 373 501 q 441 544 418 534 q 494 558 465 553 q 441 575 465 565 q 395 605 418 586 q 347 653 372 624 q 292 726 323 682 l 30 1105 l 306 1105 l 621 634 l 671 634 l 671 1105 l 941 1105 l 941 634 l 991 634 l 1307 1105 l 1581 1105 l 1320 726 q 1265 653 1290 682 q 1218 604 1241 623 q 1170 574 1194 585 q 1118 558 1146 564 q 1170 544 1146 553 q 1216 517 1194 534 q 1262 474 1238 500 q 1314 411 1286 448 l 1620 0 l 1337 0 l 985 469 l 941 469 l 941 0 l 671 0 l 671 469 z "},"З":{"ha":1075,"x_min":107,"x_max":960,"o":"m 766 565 q 827 546 793 562 q 889 497 860 529 q 938 418 918 465 q 958 307 958 370 q 921 144 958 208 q 818 44 884 81 q 664 -5 753 8 q 471 -19 575 -19 q 390 -13 433 -19 q 303 5 348 -6 q 214 30 259 16 q 125 60 168 44 l 179 246 q 236 224 202 237 q 310 201 270 212 q 392 182 349 190 q 477 175 435 175 q 638 213 583 175 q 694 335 694 252 q 683 396 694 370 q 649 437 673 421 q 588 461 626 454 q 496 469 551 469 q 441 468 468 469 q 387 467 414 467 l 286 467 l 286 648 l 469 648 q 640 679 585 648 q 695 779 695 709 q 686 850 695 821 q 653 897 676 879 q 589 922 629 914 q 488 929 549 929 q 367 920 422 929 q 270 899 312 911 q 201 875 229 886 q 165 859 174 863 l 107 1035 q 198 1079 151 1061 q 295 1106 245 1096 q 396 1120 345 1116 q 496 1124 446 1124 q 681 1110 595 1124 q 828 1062 766 1097 q 925 966 890 1027 q 960 810 960 905 q 939 701 960 747 q 888 624 918 654 q 825 579 859 594 q 766 565 792 565 z "},"И":{"ha":1153,"x_min":107,"x_max":1046,"o":"m 347 1105 l 347 461 l 761 1105 l 1046 1105 l 1046 0 l 804 0 l 804 751 l 348 92 l 348 0 l 107 0 l 107 1105 l 347 1105 z "},"Й":{"ha":1153,"x_min":107,"x_max":1046,"o":"m 821 1377 q 760 1196 821 1254 q 576 1137 699 1137 q 393 1196 454 1137 q 332 1377 332 1254 l 485 1377 q 489 1316 485 1341 q 504 1276 494 1291 q 532 1254 514 1261 q 576 1247 549 1247 q 621 1254 603 1247 q 649 1276 638 1261 q 664 1316 660 1291 q 669 1377 669 1341 l 821 1377 m 347 1105 l 347 461 l 761 1105 l 1046 1105 l 1046 0 l 804 0 l 804 751 l 348 92 l 348 0 l 107 0 l 107 1105 l 347 1105 z "},"К":{"ha":1042,"x_min":107,"x_max":1050,"o":"m 378 0 l 107 0 l 107 1105 l 378 1105 l 378 634 l 425 634 l 736 1105 l 1013 1105 l 753 726 q 699 654 723 684 q 651 605 674 624 q 603 574 627 585 q 550 558 578 564 q 602 544 578 553 q 648 518 625 534 q 695 476 671 502 q 746 413 718 450 l 1050 0 l 768 0 l 420 469 l 378 469 l 378 0 z "},"Л":{"ha":1192,"x_min":3,"x_max":1086,"o":"m 1086 0 l 815 0 l 815 936 l 455 936 l 458 584 q 451 432 458 505 q 425 293 444 358 q 374 175 406 229 q 291 82 342 121 q 170 22 241 43 q 3 1 99 1 l 3 251 q 88 263 53 251 q 145 303 123 275 q 178 378 168 332 q 188 496 188 425 l 184 1105 l 1086 1105 l 1086 0 z "},"М":{"ha":1388,"x_min":107,"x_max":1280,"o":"m 330 735 l 330 0 l 107 0 l 107 1105 l 419 1105 l 688 299 l 968 1105 l 1280 1105 l 1280 0 l 1058 0 l 1058 735 l 821 0 l 570 0 l 330 735 z "},"Н":{"ha":1127,"x_min":107,"x_max":1020,"o":"m 749 489 l 378 489 l 378 0 l 107 0 l 107 1105 l 378 1105 l 378 655 l 749 655 l 749 1105 l 1020 1105 l 1020 0 l 749 0 l 749 489 z "},"О":{"ha":1147,"x_min":72,"x_max":1074,"o":"m 1074 552 q 1044 313 1074 418 q 951 133 1013 207 q 795 20 889 60 q 573 -19 701 -19 q 352 20 446 -19 q 195 133 258 59 q 102 312 133 206 q 72 550 72 417 q 103 792 72 685 q 196 972 134 899 q 353 1085 258 1046 q 573 1124 447 1124 q 794 1084 700 1124 q 950 971 888 1045 q 1043 792 1013 898 q 1074 552 1074 686 m 342 554 q 351 409 342 477 q 387 288 361 340 q 457 205 412 236 q 573 175 502 175 q 690 207 645 175 q 761 291 736 238 q 796 412 787 343 q 805 554 805 480 q 795 698 805 630 q 759 818 785 766 q 688 900 733 869 q 572 930 643 930 q 456 899 501 930 q 386 817 412 869 q 351 697 361 765 q 342 554 342 629 z "},"П":{"ha":1158,"x_min":107,"x_max":1051,"o":"m 1051 0 l 781 0 l 781 936 l 378 936 l 378 0 l 107 0 l 107 1105 l 1051 1105 l 1051 0 z "},"Р":{"ha":989,"x_min":107,"x_max":956,"o":"m 956 733 q 916 559 956 627 q 805 451 877 490 q 634 396 734 412 q 414 381 534 381 l 378 381 l 378 0 l 107 0 l 107 1105 l 433 1105 q 651 1088 555 1105 q 814 1028 747 1071 q 917 913 881 985 q 956 733 954 842 m 413 540 q 519 548 469 540 q 606 578 569 557 q 665 637 644 600 q 687 731 687 674 q 670 830 687 790 q 622 893 654 869 q 542 926 589 916 q 433 936 495 936 l 378 936 l 378 540 l 413 540 z "},"С":{"ha":920,"x_min":73,"x_max":896,"o":"m 341 549 q 402 268 341 360 q 586 176 464 176 q 703 193 646 176 q 821 252 761 210 l 894 62 q 840 30 873 45 q 763 4 806 15 q 669 -13 720 -7 q 560 -19 617 -19 q 357 19 447 -19 q 203 130 267 57 q 106 311 140 203 q 73 556 73 418 q 106 804 73 697 q 203 981 140 910 q 356 1088 266 1053 q 559 1124 446 1124 q 643 1120 599 1124 q 731 1106 687 1116 q 818 1080 775 1097 q 896 1039 860 1064 l 822 849 q 755 888 786 872 q 694 912 724 903 q 636 926 665 922 q 579 930 608 930 q 473 908 518 930 q 399 841 429 887 q 355 723 370 795 q 341 549 341 650 z "},"Т":{"ha":806,"x_min":-12,"x_max":819,"o":"m 541 935 l 541 0 l 271 0 l 271 935 l -12 935 l -12 1105 l 819 1105 l 819 935 l 541 935 z "},"У":{"ha":873,"x_min":-50,"x_max":926,"o":"m 652 1105 l 926 1105 l 564 369 l 564 252 q 590 8 564 141 l 326 -1 q 312 131 317 66 q 307 252 307 195 l 307 369 l -50 1105 l 220 1105 l 435 654 l 652 1105 z "},"Ф":{"ha":1407,"x_min":72,"x_max":1335,"o":"m 839 -61 l 569 -61 l 569 52 q 405 73 477 52 q 277 129 332 93 q 183 213 222 165 q 119 317 144 261 q 83 433 94 372 q 72 553 72 493 q 113 769 72 675 q 224 925 155 862 q 382 1021 293 989 q 569 1053 472 1053 l 569 1167 l 839 1167 l 839 1053 q 964 1039 902 1053 q 1080 997 1025 1025 q 1182 927 1135 968 q 1263 829 1229 885 q 1316 705 1297 774 q 1335 553 1335 635 q 1324 432 1335 492 q 1288 315 1312 371 q 1224 212 1263 260 q 1129 128 1185 163 q 1002 73 1074 93 q 839 52 930 52 l 839 -61 m 569 859 q 476 845 517 857 q 405 801 434 833 q 359 708 375 768 q 342 553 342 649 q 362 402 342 461 q 414 308 382 342 q 487 260 446 273 q 569 246 527 246 l 569 859 m 839 247 q 894 253 867 247 q 946 272 921 258 q 994 308 972 286 q 1031 365 1015 331 q 1056 446 1047 399 q 1065 553 1065 492 q 1058 666 1065 618 q 1036 748 1050 714 q 1002 802 1022 781 q 956 836 981 823 q 902 852 931 848 q 839 859 872 857 l 839 247 z "},"Х":{"ha":962,"x_min":-7,"x_max":969,"o":"m 688 1105 l 969 1105 l 632 559 l 969 0 l 683 0 l 481 337 l 278 0 l -7 0 l 330 559 l -7 1105 l 273 1105 l 481 758 l 688 1105 z "},"Ц":{"ha":1253,"x_min":107,"x_max":1147,"o":"m 107 1105 l 378 1105 l 378 170 l 765 170 l 765 1105 l 1036 1105 l 1036 132 l 1147 132 l 1147 -248 l 876 -248 l 876 0 l 107 0 l 107 1105 z "},"Ч":{"ha":943,"x_min":75,"x_max":837,"o":"m 581 361 q 496 292 550 318 q 367 267 441 267 q 243 288 298 267 q 152 351 189 309 q 95 455 115 393 q 75 600 75 517 l 75 1105 l 332 1105 l 332 581 q 341 518 332 545 q 366 473 351 491 q 401 446 381 455 q 441 437 421 437 q 502 440 479 437 q 537 451 524 444 q 560 467 551 458 q 581 486 569 476 l 581 1105 l 837 1105 l 837 0 l 581 0 l 581 361 z "},"Ш":{"ha":1693,"x_min":107,"x_max":1586,"o":"m 983 170 l 1317 170 l 1317 1105 l 1586 1105 l 1586 0 l 107 0 l 107 1105 l 377 1105 l 377 170 l 711 170 l 711 1105 l 983 1105 l 983 170 z "},"Щ":{"ha":1686,"x_min":107,"x_max":1647,"o":"m 983 169 l 1318 169 l 1318 1105 l 1575 1105 l 1575 59 l 1647 59 l 1647 -315 l 1415 -315 l 1415 0 l 107 0 l 107 1105 l 377 1105 l 377 169 l 711 169 l 711 1105 l 983 1105 l 983 169 z "},"Ъ":{"ha":1112,"x_min":12,"x_max":1061,"o":"m 483 170 l 538 170 q 645 180 598 170 q 725 213 692 190 q 774 276 757 237 q 791 374 791 315 q 771 465 791 429 q 715 524 751 502 q 629 555 679 546 q 518 565 578 565 l 483 565 l 483 170 m 483 725 l 519 725 q 742 710 642 725 q 913 655 842 694 q 1023 547 984 615 q 1061 373 1061 479 q 1023 189 1061 261 q 915 75 984 117 q 749 16 845 33 q 538 0 653 0 l 213 0 l 213 939 l 12 939 l 12 1105 l 483 1105 l 483 725 z "},"Ы":{"ha":1537,"x_min":69,"x_max":1430,"o":"m 1430 0 l 1161 0 l 1161 1103 l 1430 1103 l 1430 0 m 918 373 q 879 189 918 261 q 771 75 840 117 q 605 16 701 33 q 395 0 509 0 l 69 0 l 69 1105 l 339 1105 l 339 725 l 376 725 q 597 710 498 725 q 767 655 696 694 q 877 547 838 615 q 918 373 916 479 m 339 170 l 394 170 q 502 180 454 170 q 581 213 549 190 q 630 276 613 237 q 647 374 647 315 q 627 465 647 429 q 571 524 607 502 q 485 555 535 546 q 374 565 435 565 l 339 565 l 339 170 z "},"Ь":{"ha":967,"x_min":69,"x_max":918,"o":"m 918 373 q 879 189 918 261 q 771 75 840 117 q 605 16 701 33 q 395 0 509 0 l 69 0 l 69 1105 l 339 1105 l 339 725 l 376 725 q 597 710 498 725 q 767 655 696 694 q 877 547 838 615 q 918 373 916 479 m 339 170 l 394 170 q 502 180 454 170 q 581 213 549 190 q 630 276 613 237 q 647 374 647 315 q 627 465 647 429 q 571 524 607 502 q 485 555 535 546 q 374 565 435 565 l 339 565 l 339 170 z "},"Э":{"ha":931,"x_min":35,"x_max":859,"o":"m 859 557 q 828 320 859 427 q 736 139 798 214 q 584 22 675 64 q 371 -19 492 -19 q 271 -13 321 -19 q 176 4 220 -7 q 95 29 131 14 q 37 62 58 44 l 111 252 q 228 192 171 210 q 343 175 286 175 q 516 250 454 175 q 589 485 578 324 l 202 485 l 202 650 l 586 650 q 566 763 581 711 q 523 851 551 814 q 454 909 496 888 q 352 929 412 929 q 295 925 323 929 q 237 912 267 922 q 177 888 208 903 q 109 849 145 872 l 35 1039 q 95 1070 59 1055 q 174 1098 130 1086 q 268 1117 218 1109 q 372 1124 319 1124 q 584 1084 493 1124 q 736 972 675 1045 q 828 793 797 899 q 859 557 859 688 z "},"Ю":{"ha":1583,"x_min":107,"x_max":1510,"o":"m 512 643 q 530 762 517 703 q 569 875 544 821 q 632 974 594 928 q 725 1053 671 1019 q 849 1105 779 1086 q 1010 1124 920 1124 q 1185 1101 1109 1124 q 1316 1037 1260 1078 q 1409 942 1371 997 q 1469 824 1446 888 q 1501 691 1491 761 q 1510 553 1510 622 q 1502 420 1510 488 q 1472 289 1493 353 q 1415 170 1451 226 q 1323 72 1379 113 q 1190 5 1267 30 q 1010 -19 1113 -19 q 865 -4 929 -19 q 751 36 801 11 q 666 96 702 62 q 604 170 629 131 q 561 251 578 209 q 534 333 545 292 q 518 411 524 374 q 510 477 513 448 l 378 477 l 378 0 l 107 0 l 107 1105 l 378 1105 l 378 643 l 512 643 m 1240 551 q 1237 644 1240 598 q 1223 732 1233 690 q 1198 810 1214 774 q 1156 873 1181 846 q 1094 915 1130 900 q 1010 930 1058 930 q 895 899 940 930 q 824 817 850 869 q 788 696 798 765 q 778 551 778 627 q 782 460 778 505 q 795 373 785 414 q 822 295 805 331 q 864 232 838 259 q 926 190 890 205 q 1010 175 962 175 q 1101 193 1063 175 q 1164 241 1139 211 q 1205 309 1190 271 q 1228 390 1220 348 q 1238 474 1236 432 q 1240 551 1240 515 z "},"Я":{"ha":1057,"x_min":83,"x_max":949,"o":"m 422 550 q 289 570 350 555 q 185 616 229 585 q 116 698 141 648 q 92 823 92 748 q 102 907 92 868 q 137 977 113 945 q 204 1033 162 1008 q 308 1073 245 1057 q 455 1097 370 1089 q 653 1105 541 1105 l 949 1105 l 949 0 l 679 0 l 679 469 l 601 469 q 495 461 542 469 q 417 432 449 452 q 368 375 385 411 q 351 285 351 340 l 351 0 l 83 0 l 83 267 q 108 391 83 340 q 178 475 133 442 q 286 525 223 507 q 422 550 348 543 m 679 632 l 679 936 l 626 936 q 503 930 553 936 q 421 908 452 924 q 376 863 390 892 q 363 790 363 835 q 380 711 363 742 q 433 663 397 681 q 525 639 469 646 q 658 632 581 632 l 679 632 z "},"а":{"ha":904,"x_min":65,"x_max":793,"o":"m 438 668 q 302 652 364 668 q 177 608 240 637 l 117 759 q 263 818 180 798 q 447 838 347 838 q 604 815 538 838 q 711 745 669 791 q 773 631 753 699 q 793 475 793 564 l 793 0 l 595 0 l 560 103 q 520 48 541 71 q 474 10 499 25 q 419 -12 449 -5 q 351 -18 389 -18 q 231 -1 284 -18 q 141 52 178 17 q 85 137 104 86 q 65 254 65 188 q 91 370 65 321 q 168 450 117 418 q 291 497 218 481 q 459 512 364 512 q 499 511 479 512 q 539 506 519 509 q 537 562 539 533 q 525 614 534 590 q 494 653 515 637 q 438 668 474 668 m 418 154 q 539 220 490 154 l 539 376 q 500 378 517 377 q 481 380 484 380 q 401 373 433 380 q 353 352 370 366 q 328 320 335 339 q 321 276 321 300 q 346 187 321 220 q 418 154 371 154 z "},"б":{"ha":880,"x_min":49,"x_max":831,"o":"m 306 409 q 341 209 306 271 q 440 146 376 146 q 574 413 574 146 q 567 544 574 492 q 548 627 561 596 q 513 669 534 657 q 463 682 492 682 q 302 603 387 682 q 305 506 304 553 q 306 409 306 458 m 441 -19 q 352 -12 398 -19 q 263 15 307 -5 q 181 71 220 35 q 113 162 142 106 q 66 297 83 218 q 49 485 49 376 q 59 681 49 595 q 86 830 68 766 q 128 940 104 895 q 180 1015 152 985 q 240 1062 209 1045 q 303 1088 271 1080 q 366 1099 335 1097 q 426 1101 397 1101 q 445 1101 433 1101 q 470 1100 457 1101 q 494 1100 483 1100 q 509 1099 505 1099 q 553 1102 534 1099 q 585 1112 572 1105 q 604 1132 597 1119 q 610 1164 610 1145 l 812 1164 q 802 1084 812 1116 q 775 1029 793 1051 q 735 996 758 1008 q 683 979 711 985 q 624 973 655 974 q 559 972 592 972 l 536 972 q 474 970 505 972 q 415 963 444 969 q 363 943 387 956 q 321 905 339 929 q 294 843 304 880 q 283 753 283 806 q 332 793 304 776 q 391 822 359 810 q 457 839 422 833 q 526 845 491 845 q 588 838 554 845 q 656 813 622 831 q 721 764 690 795 q 777 685 753 733 q 816 570 802 637 q 831 414 831 503 q 810 249 831 318 q 757 131 790 179 q 682 53 724 83 q 597 8 640 24 q 512 -14 553 -8 q 441 -19 471 -19 z "},"в":{"ha":861,"x_min":110,"x_max":778,"o":"m 418 174 q 509 191 481 174 q 537 250 537 208 q 531 285 537 270 q 506 310 525 300 q 452 325 487 319 q 359 331 417 330 l 359 174 l 418 174 m 359 490 q 451 494 416 490 q 506 506 486 498 q 532 529 525 515 q 538 564 538 543 q 504 623 538 607 q 401 639 469 639 l 359 639 l 359 490 m 110 812 l 450 812 q 581 798 521 812 q 684 755 641 784 q 752 683 728 727 q 777 581 777 640 q 767 516 777 544 q 743 469 758 489 q 710 437 728 450 q 674 417 692 425 q 642 407 657 410 q 619 404 627 404 q 684 382 655 399 q 734 340 713 366 q 767 283 755 315 q 778 217 778 252 q 752 122 778 163 q 682 54 727 81 q 575 14 637 27 q 439 0 513 0 l 110 0 l 110 812 z "},"г":{"ha":695,"x_min":110,"x_max":688,"o":"m 110 0 l 110 812 l 688 812 l 688 643 l 366 643 l 366 0 l 110 0 z "},"д":{"ha":1025,"x_min":20,"x_max":1008,"o":"m 20 172 q 84 203 55 180 q 135 258 113 226 q 171 331 157 290 q 192 415 186 371 q 184 398 184 408 q 217 605 200 503 q 250 812 233 708 l 884 812 l 884 172 l 1008 172 l 1008 -183 l 788 -183 l 788 0 l 238 0 l 238 -183 l 20 -183 l 20 172 m 628 643 l 453 643 l 425 387 q 411 306 420 341 q 393 245 403 271 q 371 201 382 219 q 348 171 359 183 l 628 171 l 628 643 z "},"е":{"ha":850,"x_min":49,"x_max":795,"o":"m 753 47 q 620 -2 686 14 q 479 -18 553 -18 q 303 8 382 -18 q 168 85 224 35 q 80 211 111 136 q 49 380 49 285 q 76 576 49 490 q 154 720 102 662 q 282 808 206 778 q 457 838 358 838 q 602 810 539 838 q 707 733 665 783 q 772 615 750 684 q 794 465 794 547 q 794 407 794 436 q 795 347 794 377 l 313 347 q 327 269 314 304 q 365 208 340 233 q 423 168 389 182 q 500 154 457 154 q 611 170 561 154 q 707 218 662 185 l 753 47 m 587 471 q 554 618 587 572 q 451 668 522 665 q 388 649 414 665 q 345 607 361 633 q 320 546 328 581 q 312 473 312 511 l 587 473 l 587 471 z "},"ж":{"ha":1300,"x_min":3,"x_max":1297,"o":"m 532 0 l 532 319 l 477 319 l 292 0 l 9 0 l 214 296 q 283 367 243 338 q 369 410 324 396 q 285 443 326 414 q 211 519 244 473 l 3 812 l 292 812 l 487 512 l 532 512 l 532 812 l 766 812 l 766 513 l 813 513 l 1008 812 l 1297 812 l 1089 519 q 1014 443 1055 473 q 931 410 973 414 q 974 392 952 403 q 1016 366 996 381 q 1054 334 1036 351 q 1086 296 1072 316 l 1292 1 l 1010 1 l 822 319 l 766 319 l 766 0 l 532 0 z "},"з":{"ha":826,"x_min":125,"x_max":774,"o":"m 234 498 q 348 500 300 498 q 428 506 395 502 q 480 517 460 510 q 510 535 499 524 q 523 559 520 545 q 526 591 526 572 q 493 649 526 632 q 384 665 460 665 q 304 654 342 665 q 236 630 266 644 q 189 605 207 616 q 172 592 172 593 l 125 757 q 275 818 199 799 q 439 838 352 838 q 575 823 513 838 q 680 780 636 809 q 747 708 723 751 q 771 606 771 665 q 760 534 771 564 q 732 482 749 503 q 695 447 715 460 q 657 427 675 434 q 627 417 640 419 q 611 414 614 414 l 610 415 l 611 415 l 610 415 q 623 413 610 415 q 652 404 634 411 q 692 384 671 397 q 731 349 713 371 q 762 294 749 327 q 774 216 774 262 q 748 119 774 162 q 676 45 722 75 q 566 -2 629 14 q 427 -18 503 -18 q 268 3 341 -18 q 125 70 194 24 l 173 233 q 216 205 192 219 q 268 179 239 191 q 328 160 296 168 q 397 153 361 153 q 494 176 463 153 q 525 242 525 199 q 515 289 525 271 q 473 318 505 308 q 385 333 442 329 q 234 337 328 337 l 234 498 z "},"и":{"ha":1055,"x_min":110,"x_max":951,"o":"m 951 0 l 701 0 l 701 488 l 359 100 l 359 0 l 110 0 l 110 813 l 359 813 l 359 406 l 706 813 l 951 813 l 951 0 z "},"й":{"ha":1055,"x_min":110,"x_max":951,"o":"m 773 1107 q 712 926 773 984 q 528 867 652 867 q 346 926 407 867 q 284 1107 284 984 l 437 1107 q 442 1046 437 1071 q 456 1006 446 1021 q 484 984 467 991 q 528 977 502 977 q 573 984 555 977 q 602 1006 591 991 q 617 1046 612 1021 q 621 1107 621 1071 l 773 1107 m 951 0 l 701 0 l 701 488 l 359 100 l 359 0 l 110 0 l 110 813 l 359 813 l 359 406 l 706 813 l 951 813 l 951 0 z "},"к":{"ha":924,"x_min":110,"x_max":922,"o":"m 343 812 l 343 513 l 404 513 l 633 812 l 922 812 l 689 518 q 651 479 673 498 q 603 445 628 460 q 552 420 578 430 q 506 410 527 411 q 548 397 526 404 q 593 377 570 391 q 644 341 617 363 q 699 281 670 318 l 916 0 l 633 0 l 414 319 l 343 319 l 343 0 l 110 0 l 110 812 l 343 812 z "},"л":{"ha":1046,"x_min":3,"x_max":943,"o":"m 943 0 l 688 0 l 688 643 l 489 643 l 463 388 q 428 231 454 302 q 351 109 403 160 q 214 30 298 58 q 3 1 130 1 l 3 222 q 85 229 47 222 q 152 253 123 235 q 200 304 181 271 q 225 391 219 337 l 271 812 l 943 812 l 943 0 z "},"м":{"ha":1256,"x_min":110,"x_max":1154,"o":"m 1154 812 l 1154 0 l 927 0 l 927 549 l 741 0 l 513 0 l 336 549 l 336 0 l 110 0 l 110 812 l 450 812 l 631 279 l 814 812 l 1154 812 z "},"н":{"ha":1026,"x_min":110,"x_max":923,"o":"m 363 505 l 665 505 l 665 812 l 923 812 l 923 0 l 667 0 l 667 334 l 366 334 l 366 0 l 110 0 l 110 812 l 363 812 l 363 505 z "},"о":{"ha":901,"x_min":50,"x_max":852,"o":"m 451 155 q 514 169 487 155 q 559 214 541 183 q 587 293 578 244 q 597 410 597 341 q 587 528 597 479 q 559 608 578 577 q 514 654 541 640 q 451 669 487 669 q 388 654 415 669 q 343 608 361 640 q 316 528 325 577 q 307 410 307 479 q 308 352 307 382 q 314 294 309 322 q 329 241 319 266 q 354 197 338 216 q 394 167 370 178 q 451 155 418 156 m 852 408 q 825 226 852 305 q 747 93 798 146 q 621 11 695 39 q 451 -17 547 -17 q 281 11 356 -17 q 155 93 207 39 q 77 226 104 146 q 50 408 50 305 q 77 593 50 513 q 156 728 104 673 q 282 811 208 783 q 450 839 357 839 q 618 811 544 839 q 744 728 692 783 q 824 593 796 673 q 852 408 852 513 z "},"п":{"ha":1026,"x_min":110,"x_max":923,"o":"m 923 0 l 667 0 l 667 643 l 366 643 l 366 0 l 110 0 l 110 812 l 923 812 l 923 0 z "},"р":{"ha":942,"x_min":110,"x_max":893,"o":"m 519 668 q 438 651 476 668 q 366 598 401 634 l 366 230 q 455 172 418 189 q 524 154 493 154 q 566 166 548 154 q 596 199 584 178 q 616 245 609 219 q 628 298 624 271 q 633 352 632 326 q 635 401 635 379 q 632 505 635 456 q 618 590 629 554 q 584 647 607 627 q 519 668 560 668 m 552 -18 q 449 6 494 -18 q 366 81 403 31 l 366 -279 l 110 -279 l 110 812 l 305 812 l 353 709 q 424 806 372 773 q 570 838 477 838 q 720 806 659 838 q 820 715 782 774 q 876 576 859 657 q 893 397 893 494 q 868 214 893 292 q 797 84 842 136 q 689 7 751 33 q 552 -18 626 -18 z "},"с":{"ha":772,"x_min":49,"x_max":730,"o":"m 468 -18 q 318 1 382 -18 q 207 54 254 21 q 130 130 161 87 q 81 219 100 173 q 56 313 63 266 q 49 400 49 359 q 78 574 49 494 q 161 713 106 654 q 293 805 215 772 q 470 838 371 838 q 566 832 524 838 q 639 815 608 825 q 693 793 671 805 q 730 770 715 781 l 684 606 q 650 627 669 616 q 607 647 631 637 q 555 662 584 656 q 492 668 526 668 q 417 654 451 668 q 358 609 382 640 q 320 529 334 578 q 307 412 307 481 q 358 218 307 282 q 515 154 409 154 q 608 172 564 154 q 683 214 652 190 l 729 50 q 689 26 713 38 q 633 4 665 14 q 561 -12 602 -6 q 468 -18 519 -18 z "},"т":{"ha":770,"x_min":9,"x_max":764,"o":"m 764 643 l 515 643 l 515 0 l 258 0 l 258 643 l 9 643 l 9 812 l 764 812 l 764 643 z "},"у":{"ha":834,"x_min":0,"x_max":837,"o":"m 0 812 l 263 812 l 450 271 l 578 812 l 837 812 l 562 -22 q 505 -154 538 -97 q 424 -249 471 -210 q 313 -308 377 -288 q 164 -328 250 -328 l 92 -155 q 202 -138 160 -150 q 271 -104 245 -126 q 313 -49 298 -82 q 340 31 328 -16 l 0 812 z "},"ф":{"ha":1127,"x_min":49,"x_max":1078,"o":"m 446 862 l 682 862 l 682 791 q 694 793 688 791 q 706 794 700 794 q 847 773 780 794 q 966 707 915 753 q 1047 588 1017 661 q 1078 410 1078 515 q 1047 235 1078 308 q 965 116 1016 163 q 848 48 914 70 q 712 27 783 27 q 696 28 704 27 q 682 30 689 29 l 682 -55 l 446 -55 l 446 30 q 434 29 439 30 q 422 27 429 28 q 282 48 350 27 q 163 114 215 68 q 80 233 111 160 q 49 410 49 306 q 78 585 49 512 q 157 704 107 658 q 273 772 207 751 q 412 794 338 794 q 429 793 421 794 q 446 791 437 792 l 446 862 m 446 622 q 392 616 418 622 q 348 589 367 610 q 317 526 328 568 q 306 411 306 484 q 317 298 306 340 q 348 234 328 256 q 392 205 367 212 q 446 199 418 199 l 446 622 m 682 199 q 736 206 711 199 q 781 235 762 213 q 810 299 800 258 q 821 411 821 341 q 810 525 821 483 q 779 588 798 566 q 734 616 760 610 q 682 622 709 622 l 682 199 z "},"х":{"ha":829,"x_min":3,"x_max":827,"o":"m 292 0 l 9 0 l 286 410 l 3 812 l 292 812 l 420 593 l 543 812 l 827 812 l 551 410 l 823 0 l 543 0 l 416 233 l 292 0 z "},"ц":{"ha":1022,"x_min":110,"x_max":1000,"o":"m 110 812 l 366 812 l 366 171 l 671 171 l 671 812 l 927 812 l 927 54 l 1000 54 l 1000 -317 l 769 -317 l 769 0 l 110 0 l 110 812 z "},"ч":{"ha":1029,"x_min":91,"x_max":819,"o":"m 567 374 l 567 0 l 819 0 l 819 812 l 562 812 l 562 486 q 512 440 539 457 q 446 423 484 423 q 395 434 415 423 q 364 463 376 444 q 348 509 353 482 q 344 566 344 535 l 344 812 l 91 812 l 91 586 q 164 337 91 420 q 391 253 237 253 q 486 282 426 253 q 567 374 545 311 z "},"ш":{"ha":1337,"x_min":110,"x_max":1234,"o":"m 110 812 l 366 812 l 366 170 l 543 170 l 543 812 l 800 812 l 800 170 l 979 170 l 979 812 l 1234 812 l 1234 0 l 110 0 l 110 812 z "},"щ":{"ha":1607,"x_min":110,"x_max":1504,"o":"m 1504 -265 l 1263 -265 l 1263 0 l 110 0 l 110 812 l 365 812 l 365 170 l 612 170 l 612 812 l 869 812 l 869 170 l 1117 170 l 1117 812 l 1373 812 l 1373 168 l 1504 168 l 1504 -265 z "},"ъ":{"ha":1010,"x_min":2,"x_max":973,"o":"m 210 0 l 210 643 l 2 643 l 2 812 l 467 812 l 467 612 q 522 613 494 612 q 578 613 550 613 q 727 601 656 613 q 853 555 798 588 q 941 465 908 522 q 973 319 973 408 q 957 186 973 240 q 911 96 941 132 q 838 42 881 61 q 741 13 795 22 q 623 2 687 4 q 486 0 558 1 l 210 0 m 718 301 q 705 383 718 353 q 672 428 692 413 q 627 447 652 443 q 576 450 602 450 l 467 450 l 467 160 l 505 160 q 540 159 522 160 q 575 159 557 159 q 629 163 603 159 q 674 182 654 168 q 706 225 694 197 q 718 301 718 253 z "},"ы":{"ha":1431,"x_min":110,"x_max":1329,"o":"m 1072 0 l 1072 812 l 1329 812 l 1329 0 l 1072 0 m 616 301 q 603 386 616 355 q 568 431 589 416 q 520 449 547 446 q 468 452 494 452 q 446 451 463 452 q 412 451 429 451 l 366 451 l 366 161 l 370 161 q 392 161 376 161 q 425 161 408 161 q 456 160 441 161 q 477 160 471 160 q 526 164 501 160 q 571 182 551 168 q 604 225 591 197 q 616 301 616 253 m 110 0 l 110 810 l 366 810 l 366 612 q 491 610 429 612 q 610 599 553 608 q 714 570 666 589 q 797 515 762 550 q 852 429 832 481 q 872 301 872 376 q 856 175 872 227 q 810 90 840 123 q 737 39 780 57 q 640 13 694 21 q 522 2 586 4 q 385 0 457 1 l 110 0 z "},"ь":{"ha":922,"x_min":110,"x_max":872,"o":"m 616 301 q 603 386 616 355 q 568 431 589 416 q 520 449 547 446 q 468 452 494 452 q 446 451 463 452 q 412 451 429 451 l 366 451 l 366 161 l 370 161 q 392 161 376 161 q 425 161 408 161 q 456 160 441 161 q 477 160 471 160 q 526 164 501 160 q 571 182 551 168 q 604 225 591 197 q 616 301 616 253 m 110 0 l 110 810 l 366 810 l 366 612 q 491 610 429 612 q 610 599 553 608 q 714 570 666 589 q 797 515 762 550 q 852 429 832 481 q 872 301 872 376 q 856 175 872 227 q 810 90 840 123 q 737 39 780 57 q 640 13 694 21 q 522 2 586 4 q 385 0 457 1 l 110 0 z "},"э":{"ha":801,"x_min":71,"x_max":751,"o":"m 332 -19 q 265 -15 296 -19 q 203 -3 234 -12 q 141 18 173 5 q 72 51 109 31 l 118 215 q 132 205 119 215 q 168 184 145 196 q 220 163 190 173 q 286 154 250 154 q 425 198 375 154 q 488 334 474 243 l 275 334 l 275 479 l 491 479 q 471 572 486 535 q 433 629 456 608 q 378 659 410 650 q 307 667 347 667 q 249 660 279 667 q 192 643 218 653 q 144 623 165 633 q 117 606 124 612 l 71 770 q 153 807 117 793 q 222 827 189 821 q 286 836 254 834 q 352 838 317 838 q 527 803 452 838 q 652 709 602 768 q 727 569 702 649 q 751 400 751 490 q 745 315 751 361 q 720 222 738 269 q 672 132 703 175 q 595 55 642 88 q 484 1 549 21 q 332 -19 418 -19 z "},"ю":{"ha":1307,"x_min":110,"x_max":1257,"o":"m 857 152 q 966 213 930 152 q 1002 410 1002 275 q 966 606 1002 545 q 857 667 930 667 q 747 606 783 667 q 711 410 711 545 q 713 354 711 383 q 719 295 714 324 q 733 241 724 267 q 759 195 743 215 q 799 163 774 175 q 857 152 823 152 m 1257 407 q 1231 227 1257 306 q 1154 93 1205 148 q 1028 10 1103 39 q 856 -19 954 -19 q 699 5 768 -19 q 578 74 629 28 q 497 185 528 119 q 458 336 467 252 l 366 336 l 366 0 l 110 0 l 110 812 l 363 812 l 363 507 l 461 507 q 505 648 473 587 q 588 752 537 710 q 706 817 638 795 q 857 838 773 838 q 1025 810 951 838 q 1152 726 1100 781 q 1230 591 1203 671 q 1257 407 1257 511 z "},"я":{"ha":962,"x_min":73,"x_max":852,"o":"m 852 810 l 852 0 l 595 0 l 595 252 q 544 252 570 252 q 493 251 519 252 l 371 0 l 73 0 l 252 283 q 131 370 174 311 q 89 532 89 429 q 114 670 89 616 q 197 755 140 724 q 348 799 255 787 q 578 810 441 810 l 852 810 m 345 532 q 356 468 345 492 q 390 433 368 445 q 440 417 411 420 q 505 413 470 413 q 549 414 526 413 q 595 414 571 414 l 595 646 l 513 646 q 463 645 492 646 q 408 633 434 644 q 363 599 381 623 q 345 532 345 576 z "},"ѐ":{"ha":850,"x_min":49,"x_max":795,"o":"m 116 1292 l 339 1397 l 486 968 l 369 913 l 116 1292 m 753 47 q 620 -2 686 14 q 479 -18 553 -18 q 303 8 382 -18 q 168 85 224 35 q 80 211 111 136 q 49 380 49 285 q 76 576 49 490 q 154 720 102 662 q 282 808 206 778 q 457 838 358 838 q 602 810 539 838 q 707 733 665 783 q 772 615 750 684 q 794 465 794 547 q 794 407 794 436 q 795 347 794 377 l 313 347 q 327 269 314 304 q 365 208 340 233 q 423 168 389 182 q 500 154 457 154 q 611 170 562 154 q 707 218 661 185 l 753 47 m 587 471 q 554 618 587 572 q 451 668 522 665 q 388 649 414 665 q 345 607 361 633 q 320 546 328 581 q 312 473 312 511 l 587 473 l 587 471 z "},"ё":{"ha":856,"x_min":43,"x_max":809,"o":"m 753 47 q 620 -2 686 14 q 479 -18 553 -18 q 303 8 382 -18 q 168 85 224 35 q 80 211 111 136 q 49 380 49 285 q 76 576 49 490 q 154 720 102 662 q 282 808 206 778 q 457 838 358 838 q 602 810 539 838 q 707 733 665 783 q 772 615 750 684 q 794 465 794 547 q 794 407 794 436 q 795 347 794 377 l 313 347 q 327 269 314 304 q 365 208 340 233 q 423 168 389 182 q 500 154 457 154 q 611 170 561 154 q 707 218 662 185 l 753 47 m 587 471 q 554 618 587 572 q 451 668 522 665 q 388 649 414 665 q 345 607 361 633 q 320 546 328 581 q 312 473 312 511 l 587 473 l 587 471 m 43 1025 q 54 1081 43 1055 q 84 1126 65 1107 q 129 1156 103 1145 q 184 1166 155 1166 q 240 1156 214 1166 q 285 1126 266 1145 q 316 1081 304 1107 q 328 1025 328 1055 q 316 970 328 996 q 285 925 304 944 q 240 895 266 905 q 184 884 214 884 q 128 895 154 884 q 83 925 102 906 q 54 970 64 944 q 43 1025 43 996 m 525 1025 q 536 1081 525 1055 q 566 1126 547 1107 q 611 1156 585 1145 q 666 1166 636 1166 q 721 1156 695 1166 q 767 1126 747 1145 q 798 1081 786 1107 q 809 1025 809 1055 q 798 970 809 996 q 767 925 786 944 q 721 895 747 905 q 666 884 695 884 q 609 895 635 884 q 565 925 583 906 q 535 970 546 944 q 525 1025 525 996 z "},"ђ":{"ha":958,"x_min":-2,"x_max":867,"o":"m 362 1105 l 694 1105 l 694 984 l 362 984 l 362 745 q 450 813 394 789 q 576 838 507 838 q 707 812 652 838 q 798 741 762 786 q 850 636 833 696 q 867 507 867 576 l 867 221 q 858 23 867 108 q 830 -122 849 -62 q 783 -221 811 -182 q 718 -283 755 -260 q 632 -314 680 -305 q 528 -323 585 -323 l 507 -323 l 466 -121 q 537 -110 509 -121 q 582 -62 565 -98 q 605 40 598 -26 q 611 214 611 106 l 611 524 q 602 587 611 560 q 577 632 593 614 q 542 659 562 650 q 501 668 522 668 q 440 660 466 668 q 396 643 414 652 q 370 627 379 634 l 362 619 l 362 0 l 106 0 l 106 984 l -2 984 l -2 1105 l 106 1105 l 106 1175 l 362 1218 l 362 1105 z "},"ѓ":{"ha":703,"x_min":110,"x_max":688,"o":"m 110 0 l 110 812 l 688 812 l 688 643 l 366 643 l 366 0 l 110 0 m 264 968 l 410 1398 l 634 1292 l 381 913 l 264 968 z "},"є":{"ha":801,"x_min":50,"x_max":730,"o":"m 469 -19 q 536 -15 505 -19 q 597 -3 567 -12 q 660 18 628 5 q 729 51 692 31 l 683 215 q 669 205 682 215 q 633 184 656 196 q 581 163 611 173 q 515 154 551 154 q 376 198 426 154 q 313 334 327 243 l 526 334 l 526 479 l 310 479 q 330 572 315 535 q 368 629 345 608 q 422 659 391 650 q 494 667 454 667 q 552 660 522 667 q 609 643 583 653 q 656 623 636 633 q 684 606 677 612 l 730 770 q 648 807 684 793 q 579 827 612 821 q 515 836 547 834 q 449 838 484 838 q 274 803 349 838 q 149 709 199 768 q 74 569 99 649 q 50 400 50 490 q 56 315 50 361 q 81 222 63 269 q 129 132 98 175 q 205 55 159 88 q 317 1 252 21 q 469 -19 382 -19 z "},"ѕ":{"ha":797,"x_min":77,"x_max":726,"o":"m 254 366 q 186 397 218 380 q 130 441 155 414 q 91 506 106 467 q 77 604 77 545 q 99 701 77 657 q 165 774 122 744 q 269 822 208 805 q 410 838 331 838 q 485 833 448 838 q 556 822 522 829 q 620 806 591 814 q 669 791 648 798 q 702 780 690 784 q 713 776 713 775 l 667 614 l 667 613 q 652 617 665 613 q 619 627 640 621 q 573 641 599 633 q 520 654 547 648 q 466 664 493 660 q 416 668 439 668 q 363 664 384 668 q 330 651 342 659 q 313 629 318 642 q 309 598 309 616 q 311 578 309 587 q 320 564 314 570 q 338 552 327 557 q 366 540 349 547 l 509 485 q 603 440 563 465 q 671 387 644 416 q 712 322 699 357 q 726 245 726 288 q 697 118 726 168 q 620 37 667 67 q 513 -6 572 7 q 392 -18 453 -18 q 309 -13 349 -18 q 234 1 269 -7 q 170 18 199 9 q 120 36 140 28 q 88 48 99 43 q 78 53 77 54 l 124 218 q 138 214 125 218 q 171 202 151 210 q 218 186 191 195 q 273 171 244 178 q 331 159 302 163 q 385 154 359 154 q 438 159 418 154 q 469 174 458 163 q 484 201 480 184 q 488 239 488 217 q 471 269 488 254 q 418 299 454 284 l 254 366 z "},"і":{"ha":528,"x_min":141,"x_max":425,"o":"m 155 0 l 155 812 l 410 812 l 410 0 l 155 0 m 141 1135 q 152 1191 141 1165 q 182 1236 163 1217 q 227 1266 201 1255 q 282 1277 252 1277 q 337 1266 311 1277 q 382 1236 363 1255 q 414 1191 402 1217 q 425 1135 425 1165 q 414 1079 425 1105 q 382 1034 402 1053 q 336 1005 362 1015 q 282 994 311 994 q 225 1005 252 994 q 181 1035 199 1016 q 152 1080 162 1054 q 141 1135 141 1105 z "},"ї":{"ha":513,"x_min":-125,"x_max":640,"o":"m -125 1006 q -115 1062 -125 1036 q -84 1107 -104 1088 q -40 1137 -65 1126 q 16 1147 -14 1147 q 71 1137 45 1147 q 116 1107 97 1126 q 147 1062 136 1088 q 159 1006 159 1036 q 147 950 159 976 q 116 905 136 924 q 71 876 97 886 q 16 865 45 865 q -41 876 -15 865 q -86 906 -67 887 q -115 951 -104 925 q -125 1006 -125 977 m 356 1006 q 367 1062 356 1036 q 397 1107 378 1088 q 442 1137 416 1126 q 497 1147 467 1147 q 552 1137 526 1147 q 598 1107 578 1126 q 629 1062 617 1088 q 640 1006 640 1036 q 629 950 640 976 q 598 905 617 924 q 552 876 578 886 q 497 865 526 865 q 441 876 467 865 q 396 906 415 887 q 367 951 377 925 q 356 1006 356 977 m 146 0 l 146 812 l 403 812 l 403 0 l 146 0 z "},"ј":{"ha":524,"x_min":-8,"x_max":405,"o":"m 130 1133 q 140 1190 130 1164 q 169 1235 151 1216 q 212 1264 187 1254 q 267 1275 237 1275 q 321 1264 296 1275 q 365 1234 346 1253 q 394 1190 383 1215 q 405 1133 405 1164 q 394 1075 405 1101 q 364 1030 383 1049 q 320 1002 345 1012 q 267 991 295 991 q 210 1003 235 991 q 166 1034 184 1015 q 139 1079 149 1053 q 130 1133 130 1105 m -8 -69 q 52 -31 24 -50 q 98 12 79 -12 q 129 70 118 37 q 140 149 140 102 l 140 812 l 397 812 l 397 145 q 371 6 397 70 q 300 -109 345 -58 q 197 -193 256 -159 q 74 -242 139 -227 l -8 -69 z "},"љ":{"ha":1518,"x_min":25,"x_max":1469,"o":"m 961 812 l 961 612 q 1082 610 1021 612 q 1200 599 1143 608 q 1305 570 1257 589 q 1391 516 1354 551 q 1448 429 1427 481 q 1469 301 1469 376 q 1451 174 1469 225 q 1400 89 1433 122 q 1323 37 1368 55 q 1224 11 1278 19 q 1110 1 1171 3 q 985 0 1049 0 l 705 0 l 705 643 l 519 643 l 480 388 q 457 281 471 332 q 420 188 444 231 q 364 110 397 144 q 282 51 330 75 q 171 14 235 27 q 25 1 108 1 l 25 222 q 102 229 67 222 q 163 254 137 235 q 208 305 190 272 q 232 391 225 338 l 286 812 l 961 812 m 1213 301 q 1200 382 1213 353 q 1168 427 1188 412 q 1123 446 1148 442 q 1073 450 1098 450 q 1017 449 1044 450 q 962 449 989 449 l 962 160 l 1002 160 q 1034 159 1017 160 q 1067 158 1050 158 q 1121 162 1095 158 q 1167 182 1147 167 q 1200 225 1187 197 q 1213 301 1213 253 z "},"њ":{"ha":1480,"x_min":110,"x_max":1430,"o":"m 1174 301 q 1161 382 1174 353 q 1129 427 1149 412 q 1084 446 1109 442 q 1034 450 1059 450 q 979 449 1006 450 q 926 449 952 449 l 926 160 q 980 159 951 160 q 1039 159 1008 159 q 1088 164 1064 159 q 1131 183 1112 169 q 1162 226 1150 198 q 1174 301 1174 254 m 363 505 l 667 505 l 667 812 l 926 812 l 926 612 q 1057 611 994 612 q 1177 602 1120 610 q 1279 576 1233 594 q 1359 523 1326 557 q 1411 434 1392 488 q 1430 301 1430 380 q 1411 180 1430 230 q 1358 97 1392 130 q 1278 44 1324 63 q 1179 15 1232 24 q 1066 2 1125 5 q 947 -1 1007 -1 q 898 0 923 -1 q 850 0 873 0 l 667 0 l 667 334 l 365 334 l 365 0 l 110 0 l 110 812 l 363 812 l 363 505 z "},"ћ":{"ha":1103,"x_min":117,"x_max":1013,"o":"m 507 1057 l 845 1057 l 845 918 l 507 918 l 507 745 q 595 813 539 789 q 721 838 651 838 q 845 817 790 838 q 937 754 899 796 q 994 651 974 713 q 1013 507 1013 589 l 1013 0 l 756 0 l 756 524 q 747 586 756 559 q 723 631 738 612 q 688 659 707 649 q 646 668 668 668 q 585 660 612 668 q 542 643 559 652 q 515 627 524 634 l 507 619 l 507 0 l 251 0 l 251 918 l 117 918 l 117 1057 l 251 1057 l 251 1175 l 507 1218 l 507 1057 z "},"ќ":{"ha":924,"x_min":110,"x_max":922,"o":"m 343 812 l 343 513 l 404 513 l 633 812 l 922 812 l 689 518 q 650 479 673 498 q 603 445 627 460 q 552 420 578 430 q 506 410 527 411 q 548 397 526 404 q 593 377 570 391 q 644 341 617 363 q 699 281 670 318 l 916 0 l 633 0 l 414 319 l 343 319 l 343 0 l 110 0 l 110 812 l 343 812 m 402 901 l 547 1331 l 772 1225 l 519 846 l 402 901 z "},"ѝ":{"ha":1055,"x_min":110,"x_max":951,"o":"m 288 1200 l 511 1305 l 657 876 l 541 821 l 288 1200 m 951 0 l 701 0 l 701 488 l 359 100 l 359 0 l 110 0 l 110 813 l 359 813 l 359 406 l 706 813 l 951 813 l 951 0 z "},"ў":{"ha":834,"x_min":0,"x_max":837,"o":"m 0 812 l 263 812 l 450 271 l 578 812 l 837 812 l 562 -22 q 500 -159 536 -102 q 415 -254 464 -217 q 304 -310 366 -292 q 164 -328 242 -328 l 92 -155 q 201 -138 159 -150 q 270 -104 243 -126 q 312 -49 297 -82 q 340 31 328 -16 l 0 812 m 663 1154 q 602 975 663 1031 q 418 918 541 918 q 236 974 297 918 q 174 1154 174 1030 l 328 1154 q 332 1092 328 1118 q 346 1050 336 1067 q 374 1026 357 1034 q 418 1019 392 1019 q 463 1026 445 1019 q 491 1050 481 1034 q 506 1092 502 1067 q 511 1154 511 1118 l 663 1154 z "},"џ":{"ha":1025,"x_min":110,"x_max":922,"o":"m 110 812 l 366 812 l 366 170 l 667 170 l 667 812 l 922 812 l 922 0 l 650 0 l 650 -248 l 378 -248 l 378 0 l 110 0 l 110 812 z "},"Ỳ":{"ha":860,"x_min":-51,"x_max":913,"o":"m 639 1105 l 913 1105 l 556 366 l 556 0 l 301 0 l 301 366 l -51 1105 l 218 1105 l 428 649 l 639 1105 m 251 1633 l 474 1738 l 620 1310 l 504 1254 l 251 1633 z "},"ỳ":{"ha":834,"x_min":0,"x_max":837,"o":"m 0 812 l 263 812 l 450 271 l 578 812 l 837 812 l 562 -22 q 505 -154 538 -97 q 424 -249 471 -210 q 313 -308 377 -288 q 164 -328 250 -328 l 92 -155 q 202 -138 160 -150 q 271 -104 245 -126 q 313 -49 298 -82 q 340 31 328 -16 l 0 812 m 233 1335 l 456 1440 l 602 1012 l 486 956 l 233 1335 z "},"–":{"ha":701,"x_min":96,"x_max":600,"o":"m 96 595 l 600 595 l 600 404 l 96 404 l 96 595 z "},"—":{"ha":1487,"x_min":111,"x_max":1371,"o":"m 111 595 l 1371 595 l 1371 404 l 111 404 l 111 595 z "},"‘":{"ha":480,"x_min":84,"x_max":387,"o":"m 387 584 l 84 584 l 84 845 q 107 953 84 910 q 168 1025 131 996 q 251 1070 205 1053 q 341 1101 296 1088 l 387 1020 q 329 994 353 1007 q 289 965 304 981 q 267 929 274 949 q 260 882 260 909 l 387 882 l 387 584 z "},"’":{"ha":379,"x_min":38,"x_max":341,"o":"m 38 1105 l 341 1105 l 341 844 q 318 736 341 779 q 258 665 295 694 q 176 619 222 637 q 84 588 130 602 l 39 669 q 97 694 73 681 q 136 723 121 707 q 158 759 151 739 q 165 806 165 779 l 38 806 l 38 1105 z "},"‚":{"ha":472,"x_min":91,"x_max":395,"o":"m 91 298 l 395 298 l 395 38 q 371 -71 395 -27 q 311 -142 348 -114 q 228 -188 273 -170 q 137 -218 182 -205 l 92 -138 q 150 -113 125 -125 q 190 -84 174 -100 q 212 -47 205 -68 q 219 0 219 -27 l 91 0 l 91 298 z "},"“":{"ha":836,"x_min":66,"x_max":746,"o":"m 746 586 l 443 586 l 443 847 q 466 955 443 912 q 527 1027 490 998 q 609 1073 564 1055 q 700 1103 655 1090 l 745 1022 q 687 996 711 1009 q 648 967 663 983 q 626 931 633 951 q 618 884 618 911 l 746 884 l 746 586 m 370 586 l 66 586 l 66 847 q 90 955 66 912 q 151 1027 113 998 q 234 1073 188 1055 q 324 1103 279 1090 l 369 1022 q 311 996 335 1009 q 272 967 287 983 q 249 931 256 951 q 242 884 242 911 l 370 884 l 370 586 z "},"”":{"ha":713,"x_min":38,"x_max":718,"o":"m 38 1105 l 341 1105 l 341 844 q 318 736 341 779 q 258 665 295 694 q 176 619 222 637 q 84 588 130 602 l 39 669 q 97 694 73 681 q 136 723 121 707 q 158 759 151 739 q 165 806 165 779 l 38 806 l 38 1105 m 414 1105 l 718 1105 l 718 844 q 694 736 718 779 q 635 665 671 694 q 552 619 598 637 q 460 588 506 602 l 415 669 q 473 694 449 681 q 512 723 497 707 q 535 759 528 739 q 542 806 542 779 l 414 806 l 414 1105 z "},"„":{"ha":798,"x_min":78,"x_max":758,"o":"m 78 298 l 381 298 l 381 38 q 358 -71 381 -27 q 297 -142 334 -114 q 215 -188 260 -170 q 124 -218 169 -205 l 79 -138 q 137 -113 113 -125 q 176 -84 161 -100 q 198 -47 191 -68 q 205 0 205 -27 l 78 0 l 78 298 m 454 298 l 758 298 l 758 38 q 734 -71 758 -27 q 673 -142 711 -114 q 590 -188 636 -170 q 500 -218 545 -205 l 455 -138 q 513 -113 489 -125 q 552 -84 537 -100 q 575 -47 568 -68 q 582 0 582 -27 l 454 0 l 454 298 z "},"†":{"ha":731,"x_min":76,"x_max":655,"o":"m 263 651 l 76 651 l 76 787 l 262 787 l 262 996 l 475 996 l 475 787 l 655 787 l 655 651 l 473 651 l 473 0 l 263 0 l 263 651 z "},"‡":{"ha":731,"x_min":76,"x_max":656,"o":"m 263 208 l 77 208 l 77 345 l 263 345 l 263 651 l 76 651 l 76 787 l 263 787 l 263 996 l 475 996 l 475 787 l 655 787 l 655 651 l 475 651 l 475 345 l 656 345 l 656 208 l 475 208 l 475 0 l 263 0 l 263 208 z "},"•":{"ha":842,"x_min":145,"x_max":701,"o":"m 425 220 q 323 238 373 220 q 233 290 273 256 q 170 371 194 323 q 145 475 145 418 q 168 574 145 527 q 228 656 190 621 q 315 712 266 691 q 419 732 365 732 q 522 713 471 732 q 612 661 572 694 q 676 579 652 627 q 701 475 701 532 q 677 373 701 420 q 614 292 653 326 q 526 239 576 258 q 425 220 477 220 z "},"…":{"ha":1180,"x_min":66,"x_max":1124,"o":"m 843 130 q 842 135 842 133 q 842 141 842 138 q 853 199 842 174 q 884 243 865 225 q 930 270 904 260 q 987 279 957 279 q 1044 268 1019 279 q 1087 238 1069 257 q 1115 193 1105 218 q 1124 138 1124 167 q 1113 79 1124 105 q 1081 36 1101 54 q 1034 8 1061 18 q 978 -1 1008 -1 q 923 9 948 -1 q 881 37 899 20 q 853 79 863 55 q 843 130 843 102 m 447 130 q 447 135 447 132 q 446 140 446 137 q 458 198 446 172 q 489 242 469 224 q 535 270 509 260 q 591 279 561 279 q 648 268 623 279 q 691 238 673 257 q 719 193 709 218 q 728 138 728 167 q 717 79 728 105 q 685 36 705 54 q 638 8 665 18 q 582 -1 612 -1 q 527 9 552 -1 q 485 37 503 20 q 457 79 467 55 q 447 130 447 102 m 66 130 q 66 136 66 133 q 66 141 66 138 q 77 199 66 174 q 107 243 88 225 q 153 270 127 260 q 210 279 180 279 q 267 268 241 279 q 310 238 292 257 q 338 194 328 219 q 348 139 348 168 q 336 80 348 106 q 304 36 324 54 q 258 9 284 18 q 201 -1 231 -1 q 147 9 172 -1 q 104 37 122 20 q 76 79 86 55 q 66 130 66 102 z "},"‰":{"ha":1196,"x_min":0,"x_max":0,"o":""},"‹":{"ha":865,"x_min":96,"x_max":701,"o":"m 96 502 l 700 870 l 700 653 l 312 417 l 701 182 l 701 -35 l 96 333 l 96 502 z "},"›":{"ha":820,"x_min":142,"x_max":746,"o":"m 142 -35 l 142 182 l 524 417 l 142 653 l 142 870 l 746 502 l 746 333 l 142 -35 z "},"€":{"ha":909,"x_min":34,"x_max":880,"o":"m 600 524 l 600 387 l 370 387 q 553 176 393 176 q 651 195 595 176 q 765 254 707 214 l 816 70 q 703 3 774 29 q 537 -26 633 -24 q 391 -5 460 -26 q 269 66 322 17 q 183 194 216 115 q 142 387 149 273 l 48 387 l 48 524 l 139 524 q 140 571 140 552 q 142 604 140 591 l 34 604 l 34 740 l 162 740 q 220 903 182 830 q 315 1028 258 977 q 447 1107 372 1080 q 618 1135 523 1135 q 705 1127 665 1135 q 779 1106 745 1119 q 837 1080 812 1094 q 880 1053 863 1065 l 820 873 q 771 903 799 890 q 713 924 743 916 q 655 936 684 932 q 605 940 627 940 q 538 925 569 940 q 481 885 507 911 q 434 822 455 859 q 399 740 414 785 l 646 740 l 646 604 l 370 604 q 366 524 367 578 l 600 524 z "},"№":{"ha":2055,"x_min":107,"x_max":2005,"o":"m 767 0 l 347 730 l 347 0 l 107 0 l 107 1105 l 392 1105 l 805 387 l 805 1105 l 1044 1105 l 1044 0 l 767 0 m 1604 155 q 1667 169 1640 155 q 1712 214 1694 183 q 1740 293 1731 244 q 1750 410 1750 341 q 1740 528 1750 479 q 1712 608 1731 577 q 1667 654 1694 640 q 1604 669 1640 669 q 1541 654 1568 669 q 1496 608 1514 640 q 1469 528 1478 577 q 1459 410 1459 479 q 1461 352 1459 382 q 1467 294 1462 322 q 1482 241 1472 266 q 1507 197 1491 216 q 1547 167 1523 178 q 1604 155 1571 156 m 2005 408 q 1978 226 2005 305 q 1900 93 1951 146 q 1774 11 1848 39 q 1604 -17 1699 -17 q 1434 11 1509 -17 q 1308 93 1360 39 q 1230 226 1257 146 q 1202 408 1202 305 q 1230 593 1202 513 q 1309 728 1257 673 q 1435 811 1360 783 q 1603 839 1510 839 q 1771 811 1697 839 q 1897 728 1845 783 q 1977 593 1949 673 q 2005 408 2005 513 z "},"™":{"ha":1495,"x_min":65,"x_max":1438,"o":"m 818 817 l 818 332 l 677 332 l 677 1050 l 874 1050 l 1054 522 l 1240 1050 l 1438 1050 l 1438 332 l 1297 332 l 1297 817 l 1137 332 l 980 332 l 818 817 m 423 933 l 423 332 l 252 332 l 252 933 l 65 933 l 65 1050 l 605 1050 l 605 933 l 423 933 z "},"ﬀ":{"ha":1129,"x_min":9,"x_max":1124,"o":"m 1021 1000 q 981 991 999 1000 q 951 961 964 983 q 933 903 939 939 q 926 813 926 867 l 1118 813 l 1118 708 l 926 708 l 926 0 l 670 0 l 670 708 l 394 708 l 394 0 l 138 0 l 138 708 l 9 708 l 9 813 l 138 813 q 209 1094 138 997 q 429 1190 280 1190 q 504 1187 466 1190 q 587 1173 543 1185 l 591 985 q 555 993 572 989 q 522 998 539 996 q 490 1000 504 1000 q 449 991 467 1000 q 419 961 431 983 q 401 903 407 939 q 395 813 395 867 l 670 813 q 742 1094 670 997 q 962 1190 813 1190 q 1037 1187 998 1190 q 1120 1173 1076 1185 l 1124 985 q 1088 993 1106 989 q 1054 998 1072 996 q 1021 1000 1036 1000 z "},"ﬁ":{"ha":1077,"x_min":9,"x_max":963,"o":"m 679 1135 q 690 1191 679 1165 q 720 1236 701 1217 q 765 1266 739 1255 q 820 1277 790 1277 q 875 1266 849 1277 q 921 1236 901 1255 q 952 1191 941 1217 q 963 1135 963 1165 q 952 1080 963 1105 q 921 1035 941 1054 q 875 1005 901 1016 q 820 994 849 994 q 764 1005 789 994 q 719 1035 738 1016 q 689 1080 700 1055 q 679 1135 679 1105 m 692 0 l 692 708 l 394 708 l 394 0 l 138 0 l 138 708 l 9 708 l 9 813 l 138 813 q 209 1094 138 998 q 429 1190 280 1190 q 504 1187 465 1190 q 588 1173 543 1185 l 592 985 q 555 993 573 989 q 522 998 540 996 q 490 1000 505 1000 q 448 991 466 1000 q 418 959 430 981 q 400 898 406 936 q 395 803 395 860 l 515 813 l 948 813 l 948 0 l 692 0 z "},"ﬂ":{"ha":999,"x_min":9,"x_max":886,"o":"m 586 813 l 586 708 l 394 708 l 394 0 l 138 0 l 138 708 l 9 708 l 9 813 l 138 813 q 158 975 138 905 q 223 1094 178 1046 q 341 1166 269 1141 q 519 1190 414 1190 q 693 1166 623 1190 q 806 1096 763 1143 q 867 980 849 1049 q 886 820 886 911 l 886 0 l 629 0 l 629 849 q 633 919 629 892 q 637 967 637 947 q 632 993 637 983 q 614 1009 627 1003 q 578 1017 602 1015 q 519 1019 555 1019 q 449 1017 476 1019 q 407 1008 422 1014 q 387 992 392 1002 q 381 967 381 982 q 388 911 381 945 q 395 829 395 878 l 395 813 l 586 813 z "},"ﬃ":{"ha":1628,"x_min":9,"x_max":1514,"o":"m 1231 1135 q 1242 1191 1231 1165 q 1272 1236 1253 1217 q 1316 1266 1291 1255 q 1371 1277 1341 1277 q 1427 1266 1400 1277 q 1472 1236 1453 1255 q 1503 1191 1492 1217 q 1514 1135 1514 1165 q 1503 1080 1514 1105 q 1472 1035 1492 1054 q 1427 1005 1453 1016 q 1371 994 1400 994 q 1314 1005 1340 994 q 1270 1035 1289 1016 q 1241 1080 1252 1055 q 1231 1135 1231 1105 m 1046 1000 q 1005 991 1023 1000 q 975 961 987 983 q 957 903 963 939 q 950 813 950 867 l 1500 813 l 1500 0 l 1243 0 l 1243 708 l 949 708 l 949 0 l 694 0 l 694 708 l 394 708 l 394 0 l 138 0 l 138 708 l 9 708 l 9 813 l 138 813 q 209 1094 138 998 q 429 1190 281 1190 q 504 1187 466 1190 q 587 1173 543 1185 l 591 985 q 555 993 572 989 q 522 998 539 996 q 490 1000 504 1000 q 449 991 467 1000 q 419 961 431 983 q 401 903 407 939 q 395 813 395 867 l 694 813 q 766 1094 694 998 q 986 1190 838 1190 q 1061 1187 1023 1190 q 1144 1173 1099 1185 l 1148 985 q 1112 993 1130 989 q 1078 998 1096 996 q 1046 1000 1060 1000 z "},"ﬄ":{"ha":1495,"x_min":9,"x_max":1381,"o":"m 1015 1190 q 1190 1166 1120 1190 q 1303 1094 1261 1141 q 1363 975 1345 1046 q 1381 810 1381 903 l 1381 0 l 1124 0 l 1124 848 q 1128 919 1124 891 q 1133 967 1133 946 q 1128 993 1133 983 q 1110 1009 1123 1003 q 1074 1017 1097 1015 q 1015 1019 1051 1019 q 945 1017 972 1019 q 903 1008 918 1014 q 882 991 888 1002 q 877 967 877 981 q 884 913 877 945 q 890 834 890 880 l 890 813 l 1050 813 l 1050 708 l 889 708 l 889 0 l 633 0 l 633 708 l 394 708 l 394 0 l 138 0 l 138 708 l 9 708 l 9 813 l 138 813 q 209 1094 138 997 q 429 1190 280 1190 q 493 1187 461 1190 q 559 1173 524 1184 l 564 985 q 536 993 549 989 q 512 998 524 996 q 490 1000 499 1000 q 449 991 467 1000 q 419 961 431 983 q 401 903 407 939 q 395 813 395 867 l 633 813 q 653 975 633 905 q 719 1094 673 1046 q 837 1166 764 1141 q 1015 1190 909 1190 z "}}}
